<svg class="animated" id="freepik_stories-press-play" xmlns="http://www.w3.org/2000/svg" viewBox="0 0 500 740" version="1.1" xmlns:xlink="http://www.w3.org/1999/xlink" xmlns:svgjs="http://svgjs.com/svgjs"><style>svg#freepik_stories-press-play:not(.animated) .animable {opacity: 0;}svg#freepik_stories-press-play.animated #freepik--Device--inject-382 {animation: 1.5s Infinite  linear heartbeat;animation-delay: 0s;}            @keyframes heartbeat {                0% {                    transform: scale(1);                }                10% {                    transform: scale(1.1);                }                30% {                    transform: scale(1);                }                40% {                    transform: scale(1);                }                50% {                    transform: scale(1.1);                }                60% {                    transform: scale(1);                }                100% {                    transform: scale(1);                }            }        .animator-hidden { display: none; }</style><g id="freepik--Floor--inject-382" class="animable" style="transform-origin: 249.98px 344.43px;"><ellipse id="freepik--floor--inject-382" cx="249.98" cy="344.43" rx="230.41" ry="133" style="fill: rgb(245, 245, 245); transform-origin: 249.98px 344.43px;" class="animable"></ellipse></g><g id="freepik--Shadow--inject-382" class="animable" style="transform-origin: 256.05px 351.025px;"><path id="freepik--shadow--inject-382" d="M76.35,323.71l227,131.08a9.79,9.79,0,0,0,8.82,0l123.58-71.36c2.44-1.4,2.44-3.68,0-5.09l-227-131.08a9.79,9.79,0,0,0-8.82,0L76.35,318.62C73.91,320,73.91,322.3,76.35,323.71Z" style="fill: rgb(224, 224, 224); transform-origin: 256.05px 351.025px;" class="animable"></path></g><g id="freepik--Clouds--inject-382" class="animable" style="transform-origin: 363.825px 115.807px;"><g id="freepik--clouds--inject-382" class="animable" style="transform-origin: 363.825px 115.807px;"><path d="M414.51,164.26,407,159.94a8.89,8.89,0,0,0,.06-.92v-2.17A13.39,13.39,0,0,0,401,146.36a4.7,4.7,0,0,0-3.61-.69c-.55-5.49-4.36-11.7-9-14.37-5-2.89-9.05-.55-9.05,5.23v3.25a15.74,15.74,0,0,0,.76,4.64l-6.22-3.59c-1.85-1.07-3.36-.2-3.36,1.94a7.44,7.44,0,0,0,3.36,5.82L414.51,172c1.85,1.07,3.35.2,3.35-1.94A7.43,7.43,0,0,0,414.51,164.26Z" style="fill: rgb(240, 240, 240); transform-origin: 394.19px 151.26px;" id="elokw549rpjn" class="animable"></path><path d="M315.15,73.83l4.13,1.59v-9.1c0-7.22,5.76-8.95,12-5.34h0c6.25,3.61,11.32,12.38,11.32,19.59V81.9c1.42-.57,3.25-.35,5.25.81h0c4.49,2.59,8.14,8.9,8.14,14.1v.6l5.76,3.32a11.86,11.86,0,0,1,5.36,9.29c0,3.42-2.4,4.8-5.36,3.09l-46.6-26.9a11.86,11.86,0,0,1-5.36-9.29C309.79,73.51,312.19,72.12,315.15,73.83Z" style="fill: rgb(240, 240, 240); transform-origin: 338.45px 86.4996px;" id="eljv007jzh8hp" class="animable"></path></g></g><g id="freepik--Plants--inject-382" class="animable" style="transform-origin: 253.484px 301.963px;"><g id="freepik--plants--inject-382" class="animable" style="transform-origin: 420.593px 328.37px;"><path d="M406,359.35,398.13,354s-3.48-20.69-.25-38.86c4.54-25.54,22.16-34,28.45-31.37s7.63,10.28-4.1,24.87C415.31,317.26,406.27,335.56,406,359.35Z" style="fill: #407BFF; transform-origin: 413.792px 321.331px;" id="elyt0nql0iznj" class="animable"></path><g id="ell9zc1jhtxyj"><g style="opacity: 0.15; transform-origin: 413.792px 321.331px;" class="animable" id="elepbwp27jsxr"><path d="M406,359.35,398.13,354s-3.48-20.69-.25-38.86c4.54-25.54,22.16-34,28.45-31.37s7.63,10.28-4.1,24.87C415.31,317.26,406.27,335.56,406,359.35Z" id="elvate8xztxad" class="animable" style="transform-origin: 413.792px 321.331px;"></path></g></g><path d="M403.31,349.11h.08a.57.57,0,0,0,.5-.64c-2.85-24.05,7.31-50.14,18.35-60.53a.57.57,0,0,0-.78-.83c-11.25,10.57-21.6,37.09-18.7,61.5A.55.55,0,0,0,403.31,349.11Z" style="fill: rgb(255, 255, 255); transform-origin: 412.334px 318.041px;" id="el9wvjo2a16o6" class="animable"></path><path d="M426.7,373.3c1.26.75,4.92-2,5.93-2.62a12.15,12.15,0,0,0,4.12-4.54,11.37,11.37,0,0,0,1.14-6.79,28.49,28.49,0,0,0-.8-3.64c-.31-1.17-.62-2.35-.94-3.53a8.8,8.8,0,0,1-.44-3.55c.35-2.4,2.51-4,4.48-5.46,2.18-1.56,4.45-3.64,4.49-6.53a10.16,10.16,0,0,0-2.43-6.11c-2.15-2.83-4.34-5.06-3.73-8.92a31.51,31.51,0,0,1,2.37-6.73,10.85,10.85,0,0,0,.85-2.92,6.27,6.27,0,0,0-6.63-6.89,11.47,11.47,0,0,0-4.66,1.54c-4.48,2.38-7.2,8.58-12.4,9.23-1.69.21-3.41.13-5.1.35a7.48,7.48,0,0,0-4.58,2c-3.95,4.24.64,9.79-1,14.46-1.18,3.33-4.47,4.55-6.36,7.54a7.24,7.24,0,0,0-.94,4.38,21.18,21.18,0,0,0,1.71,7.46,66.76,66.76,0,0,0,3.92,7.07Z" style="fill: #407BFF; transform-origin: 422.356px 339.243px;" id="elnvts2lqdvfl" class="animable"></path><g id="elckkfo98na5c"><path d="M426.7,373.3c1.26.75,4.92-2,5.93-2.62a12.15,12.15,0,0,0,4.12-4.54,11.37,11.37,0,0,0,1.14-6.79,28.49,28.49,0,0,0-.8-3.64c-.31-1.17-.62-2.35-.94-3.53a8.8,8.8,0,0,1-.44-3.55c.35-2.4,2.51-4,4.48-5.46,2.18-1.56,4.45-3.64,4.49-6.53a10.16,10.16,0,0,0-2.43-6.11c-2.15-2.83-4.34-5.06-3.73-8.92a31.51,31.51,0,0,1,2.37-6.73,10.85,10.85,0,0,0,.85-2.92,6.27,6.27,0,0,0-6.63-6.89,11.47,11.47,0,0,0-4.66,1.54c-4.48,2.38-7.2,8.58-12.4,9.23-1.69.21-3.41.13-5.1.35a7.48,7.48,0,0,0-4.58,2c-3.95,4.24.64,9.79-1,14.46-1.18,3.33-4.47,4.55-6.36,7.54a7.24,7.24,0,0,0-.94,4.38,21.18,21.18,0,0,0,1.71,7.46,66.76,66.76,0,0,0,3.92,7.07Z" style="fill: rgb(255, 255, 255); opacity: 0.2; transform-origin: 422.356px 339.243px;" class="animable" id="el8dnz7tir71a"></path></g><path d="M414.57,365.85h0a.56.56,0,0,0,.56-.58c-.5-22.72,10.68-47.58,18.6-54.72a.57.57,0,0,0-.76-.85c-8.08,7.28-19.49,32.55-19,55.59A.57.57,0,0,0,414.57,365.85Z" style="fill: rgb(255, 255, 255); transform-origin: 423.936px 337.704px;" id="elvgjsbef0syf" class="animable"></path><path d="M418.76,338.17l.17,0a76.37,76.37,0,0,1,16.53-2.34.58.58,0,0,0,.56-.58.56.56,0,0,0-.59-.56,77.58,77.58,0,0,0-16.82,2.38.57.57,0,0,0,.15,1.12Z" style="fill: rgb(255, 255, 255); transform-origin: 427.105px 336.44px;" id="elhajnznt7i6o" class="animable"></path></g><g id="freepik--plants--inject-382" class="animable" style="transform-origin: 84.4142px 271.299px;"><path d="M93.4,309.54l9.14-4.12s4-18.28,4-32.74c.06-20.33-10.5-45.86-26.58-41.74s4.47,26.9,7.77,44.48S93.4,309.54,93.4,309.54Z" style="fill: #407BFF; transform-origin: 90.2121px 270.019px;" id="el6kg5bzh9bc8" class="animable"></path><g id="elxndn1wqpqr"><path d="M93.4,309.54l9.14-4.12s4-18.28,4-32.74c.06-20.33-10.5-45.86-26.58-41.74s4.47,26.9,7.77,44.48S93.4,309.54,93.4,309.54Z" style="opacity: 0.15; transform-origin: 90.2121px 270.019px;" class="animable" id="eldbeck7batke"></path></g><path d="M98.16,307.9h0a.53.53,0,0,1-.45-.6c6-44.57-14-69.31-14.16-69.56a.53.53,0,1,1,.81-.67c.21.25,20.49,25.35,14.39,70.38A.52.52,0,0,1,98.16,307.9Z" style="fill: rgb(255, 255, 255); transform-origin: 91.6376px 272.364px;" id="elzgutny747p" class="animable"></path><path d="M87.66,312.1l6.5-2.93s2.33-12.58-2.33-28.63c-4.06-14-16.38-26.47-23.38-24.81s-7.31,6.47-4.52,11.83S85.56,286.93,87.66,312.1Z" style="fill: #407BFF; transform-origin: 78.5153px 283.841px;" id="el9lmrhle2dzs" class="animable"></path><g id="eleqplpvd0se5"><path d="M87.66,312.1l6.5-2.93s2.33-12.58-2.33-28.63c-4.06-14-16.38-26.47-23.38-24.81s-7.31,6.47-4.52,11.83S85.56,286.93,87.66,312.1Z" style="fill: rgb(255, 255, 255); opacity: 0.2; transform-origin: 78.5153px 283.841px;" class="animable" id="elilnsmzkw5k"></path></g><path d="M91,311.08h0a.53.53,0,0,1-.47-.58c3-28.27-21.64-50.06-21.89-50.28a.52.52,0,1,1,.69-.79c.25.22,25.28,22.38,22.24,51.18A.52.52,0,0,1,91,311.08Z" style="fill: rgb(255, 255, 255); transform-origin: 80.1433px 285.192px;" id="elpmhrk0932xs" class="animable"></path></g></g><g id="freepik--Device--inject-382" class="animable animator-active" style="transform-origin: 257.685px 341.934px;"><g id="freepik--Mobile--inject-382" class="animable" style="transform-origin: 257.685px 341.934px;"><g id="freepik--mobile--inject-382" class="animable" style="transform-origin: 257.685px 341.934px;"><path d="M422.21,382.22,316.67,443.15a11.39,11.39,0,0,1-11,.2L93.16,320.66c-3.34-1.93-6.06-6.25-6.06-9.65s2.71-7.72,6.06-9.66l105.16-60.71a13.47,13.47,0,0,1,12.12,0L422.21,362.91c3.35,1.93,6.06,6.26,6.06,9.66S425.56,380.29,422.21,382.22Z" style="fill: #407BFF; transform-origin: 257.685px 341.934px;" id="elmz4j4qdmdeg" class="animable"></path><g id="el65so96n446"><path d="M198.32,240.64,93.16,301.35c-3.35,1.94-6.06,6.26-6.06,9.66s2.72,7.72,6.06,9.65L305.65,443.35a11.9,11.9,0,0,0,5.27,1.31v-146l-100.48-58A13.47,13.47,0,0,0,198.32,240.64Z" style="opacity: 0.5; transform-origin: 199.01px 341.935px;" class="animable" id="elxj6l7qb13h"></path></g><g id="el4z8ojas3mci"><path d="M316.67,443.15l105.54-60.93c3.35-1.93,6.06-6.25,6.06-9.65s-2.71-7.73-6.06-9.66L310.92,298.66v146A11.2,11.2,0,0,0,316.67,443.15Z" style="opacity: 0.4; transform-origin: 369.595px 371.66px;" class="animable" id="elycsrzl7e4td"></path></g><path d="M314.16,432.29a11.84,11.84,0,0,1-10.69,0L93.14,310.86c-4.53-2.61-4.53-6.89,0-9.5l105.17-60.72a13.47,13.47,0,0,1,12.12,0L422.2,362.91c3.34,1.93,3.34,5.07,0,7Z" style="fill: #407BFF; transform-origin: 257.224px 336.382px;" id="elpqd78tse0ch" class="animable"></path><g id="elx4wq7h7xmcn"><path d="M314.16,432.29a11.84,11.84,0,0,1-10.69,0L93.14,310.86c-4.53-2.61-4.53-6.89,0-9.5l105.17-60.72a13.47,13.47,0,0,1,12.12,0L422.2,362.91c3.34,1.93,3.34,5.07,0,7Z" style="opacity: 0.3; transform-origin: 257.224px 336.382px;" class="animable" id="elonbnrnqsai"></path></g><path d="M303.94,420.06a12.71,12.71,0,0,1-11.52,0l-181-104.49c-3.18-1.84-3.18-4.81,0-6.65l98.94-57.11a12.77,12.77,0,0,1,11.52,0l181,104.49c3.17,1.83,3.17,4.82,0,6.65Z" style="fill: rgb(55, 71, 79); transform-origin: 257.146px 335.939px;" id="elwy8ybe2rl0q" class="animable"></path><path d="M215.78,250.45a11.52,11.52,0,0,0-5.4,1.36l-98.94,57.11c-3.18,1.84-3.18,4.81,0,6.65l19.61,11.32,84.73-54.11Z" style="fill: rgb(38, 50, 56); transform-origin: 162.417px 288.67px;" id="el5uum1cisvyc" class="animable"></path><path d="M222,256.13a12.77,12.77,0,0,0-11.52,0l-98.93,57.11a6.16,6.16,0,0,0-1.51,1.21,6.1,6.1,0,0,0,1.44,1.12l181,104.49a12.71,12.71,0,0,0,11.52,0L402.88,363a5.77,5.77,0,0,0,1.49-1.19,5.77,5.77,0,0,0-1.42-1.14Z" style="fill: rgb(69, 90, 100); transform-origin: 257.205px 338.099px;" id="elw2gb4lwyrje" class="animable"></path><path d="M147.6,282.21l17.54-10.13c1-.6,1.1-1.55.11-2.12a4.09,4.09,0,0,0-3.67.07l-17.53,10.12c-1.05.61-1.1,1.56-.12,2.12A4.06,4.06,0,0,0,147.6,282.21Z" style="fill: rgb(55, 71, 79); transform-origin: 154.585px 276.119px;" id="el8nhlwek6qv" class="animable"></path><path d="M177.71,264.85a1.08,1.08,0,0,0,0-2.05,3.9,3.9,0,0,0-3.55,0,1.08,1.08,0,0,0,0,2.05A4,4,0,0,0,177.71,264.85Z" style="fill: rgb(55, 71, 79); transform-origin: 175.935px 263.819px;" id="ely2jrwzch56" class="animable"></path><path d="M184.82,260.74a1.08,1.08,0,0,0,0-2.05,3.9,3.9,0,0,0-3.55,0c-1,.56-1,1.48,0,2.05A3.9,3.9,0,0,0,184.82,260.74Z" style="fill: rgb(55, 71, 79); transform-origin: 183.04px 259.715px;" id="el35jkxusbwue" class="animable"></path><path d="M128,293.57a1.08,1.08,0,0,0,0-2.05,3.92,3.92,0,0,0-3.56,0,1.08,1.08,0,0,0,0,2.05A3.92,3.92,0,0,0,128,293.57Z" style="fill: rgb(55, 71, 79); transform-origin: 126.22px 292.545px;" id="elqe8lz4e8iq" class="animable"></path><path d="M135.06,289.46a1.08,1.08,0,0,0,0-2,3.9,3.9,0,0,0-3.55,0,1.08,1.08,0,0,0,0,2A3.9,3.9,0,0,0,135.06,289.46Z" style="fill: rgb(55, 71, 79); transform-origin: 133.285px 288.46px;" id="el3jpbc5jb2y" class="animable"></path><path d="M159.82,352.19a4.1,4.1,0,0,1,1.89,3.15,1.16,1.16,0,0,1-.52,1.1c-.23.13-1.09.65-1.33.78a1.39,1.39,0,0,1-1.36-.16l-24.64-14.23a4,4,0,0,1-1.9-3.14,1.2,1.2,0,0,1,.48-1.08c.23-.15,1.13-.67,1.37-.8a1.41,1.41,0,0,1,1.37.16Z" style="fill: #407BFF; transform-origin: 146.836px 347.515px;" id="elggtjb6xz4am" class="animable"></path><g id="elpzfmx0sm5wb"><path d="M159.82,352.19a4.1,4.1,0,0,1,1.89,3.15,1.16,1.16,0,0,1-.52,1.1c-.23.13-1.09.65-1.33.78a1.39,1.39,0,0,1-1.36-.16l-24.64-14.23a4,4,0,0,1-1.9-3.14,1.2,1.2,0,0,1,.48-1.08c.23-.15,1.13-.67,1.37-.8a1.41,1.41,0,0,1,1.37.16Z" style="opacity: 0.4; transform-origin: 146.836px 347.515px;" class="animable" id="elgznm3pbj4ua"></path></g><path d="M158.5,353l-24.64-14.23c-1.05-.6-1.9-.17-1.9,1a4,4,0,0,0,1.9,3.14l24.64,14.23c1,.61,1.89.18,1.89-1A4.06,4.06,0,0,0,158.5,353Z" style="fill: #407BFF; transform-origin: 146.175px 347.958px;" id="elw3l4dwt6bq" class="animable"></path><g id="el5liw9r7jbjg"><path d="M158.5,353l-24.64-14.23c-1.05-.6-1.9-.17-1.9,1a4,4,0,0,0,1.9,3.14l24.64,14.23c1,.61,1.89.18,1.89-1A4.06,4.06,0,0,0,158.5,353Z" style="opacity: 0.3; transform-origin: 146.175px 347.958px;" class="animable" id="elc0gxgfgxw1c"></path></g><path d="M126.83,333.15a4,4,0,0,1,1.9,3.15,1.18,1.18,0,0,1-.52,1.1l-1.33.77a1.4,1.4,0,0,1-1.37-.15l-11.61-6.71a4,4,0,0,1-1.9-3.15,1.17,1.17,0,0,1,.48-1.07c.23-.15,1.13-.67,1.37-.8a1.4,1.4,0,0,1,1.37.15Z" style="fill: #407BFF; transform-origin: 120.365px 332.23px;" id="eluau4bn023p9" class="animable"></path><g id="elqmtal3ii6mn"><path d="M126.83,333.15a4,4,0,0,1,1.9,3.15,1.18,1.18,0,0,1-.52,1.1l-1.33.77a1.4,1.4,0,0,1-1.37-.15l-11.61-6.71a4,4,0,0,1-1.9-3.15,1.17,1.17,0,0,1,.48-1.07c.23-.15,1.13-.67,1.37-.8a1.4,1.4,0,0,1,1.37.15Z" style="opacity: 0.4; transform-origin: 120.365px 332.23px;" class="animable" id="el1b35np57kvq"></path></g><path d="M125.51,333.91l-11.61-6.7c-1.05-.61-1.9-.18-1.9,1a4,4,0,0,0,1.9,3.15L125.51,338c1,.6,1.9.17,1.9-1A4.08,4.08,0,0,0,125.51,333.91Z" style="fill: #407BFF; transform-origin: 119.705px 332.602px;" id="elciqray7lyap" class="animable"></path><g id="elm2g15o22wmd"><path d="M125.51,333.91l-11.61-6.7c-1.05-.61-1.9-.18-1.9,1a4,4,0,0,0,1.9,3.15L125.51,338c1,.6,1.9.17,1.9-1A4.08,4.08,0,0,0,125.51,333.91Z" style="opacity: 0.3; transform-origin: 119.705px 332.602px;" class="animable" id="el4msxbhb5h8h"></path></g></g><g id="freepik--Button--inject-382" class="animable" style="transform-origin: 239.63px 320.495px;"><path d="M207.13,347.49c18,10.36,47.05,10.36,65,0,9-5.19,13.48-12,13.46-18.79V324s-4.63-9-13.46-14.07c-17.94-10.36-47-10.36-65,0-8.87,5.12-13.46,14.07-13.46,14.07v4.69C193.67,335.52,198.16,342.31,207.13,347.49Z" style="fill: rgb(224, 224, 224); transform-origin: 239.63px 328.71px;" id="elnm8iowewko" class="animable"></path><ellipse cx="239.63" cy="324.04" rx="45.96" ry="26.53" style="fill: rgb(240, 240, 240); transform-origin: 239.63px 324.04px;" id="el66w914hx0i7" class="animable"></ellipse><path d="M212.82,339.11c14.8,8.54,38.81,8.54,53.62,0,7.41-4.28,11.11-9.89,11.1-15.5v-16A31.94,31.94,0,0,0,266.44,296c-14.81-8.54-38.82-8.54-53.62,0a31.77,31.77,0,0,0-11.11,11.61v16C201.71,329.23,205.41,334.83,212.82,339.11Z" style="fill: #407BFF; transform-origin: 239.625px 317.555px;" id="elvuaj1ts715c" class="animable"></path><g id="elqcga9rmwh69"><path d="M212.82,339.11c14.8,8.54,38.81,8.54,53.62,0,7.41-4.28,11.11-9.89,11.1-15.5v-16A31.94,31.94,0,0,0,266.44,296c-14.81-8.54-38.82-8.54-53.62,0a31.77,31.77,0,0,0-11.11,11.61v16C201.71,329.23,205.41,334.83,212.82,339.11Z" style="opacity: 0.15; transform-origin: 239.625px 317.555px;" class="animable" id="elpbyjk64lg9"></path></g><g id="el4mr18mpao3q"><path d="M218.83,341.93a59.38,59.38,0,0,0,20.54,3.58v-55.9a59.38,59.38,0,0,0-20.54,3.58Z" style="opacity: 0.04; transform-origin: 229.1px 317.56px;" class="animable" id="elvdv9tjdxydq"></path></g><g id="eljio7qa8xmh"><path d="M266.44,296c-7.47-4.31-17.28-6.44-27.07-6.4v55.9c9.79,0,19.6-2.09,27.07-6.4s11.11-9.89,11.1-15.5v-16A31.94,31.94,0,0,0,266.44,296Z" style="opacity: 0.07; transform-origin: 258.455px 317.55px;" class="animable" id="elj0irrokj33"></path></g><ellipse cx="239.63" cy="307.62" rx="37.91" ry="21.89" style="fill: #407BFF; transform-origin: 239.63px 307.62px;" id="elr1k25qktyv" class="animable"></ellipse><path d="M221.48,306.53l20,11.57a2.63,2.63,0,0,0,3.51-.86l11.53-18.07c.74-1.16.25-1.87-1.1-1.59l-33.7,7.18C220.41,305,220.29,305.84,221.48,306.53Z" style="fill: rgb(250, 250, 250); transform-origin: 238.761px 307.981px;" id="elxqp1hfn32v" class="animable"></path></g><g id="freepik--Text--inject-382" class="animable" style="transform-origin: 301.677px 363.275px;"><g id="el03g62toxto5k"><g style="opacity: 0.2; transform-origin: 301.677px 363.275px;" class="animable" id="el5vye3yl05w2"><path d="M273.55,380.24a2.44,2.44,0,0,1-1.25-.31l-10.61-6.13a1.46,1.46,0,0,1-.81-1.28,1.48,1.48,0,0,1,.81-1.33l5.3-3.06a7.7,7.7,0,0,1,7.07,0l1.51.88a2.82,2.82,0,0,1,0,5.23l-3,1.76,2.28,1.32a1.48,1.48,0,0,1,.82,1.33,1.52,1.52,0,0,1-.82,1.28,2.47,2.47,0,0,1-1.25.31ZM269,374l4.06-2.35-1.53-.88a2.35,2.35,0,0,0-2,0l-3.05,1.76Z" style="fill: #407BFF; transform-origin: 269.107px 373.756px;" id="el34w70jy84tv" class="animable"></path><path d="M285.68,373.24a2.5,2.5,0,0,1-1.26-.31l-10.61-6.13a1.49,1.49,0,0,1-.81-1.28,1.51,1.51,0,0,1,.81-1.33l5.31-3.06a7.67,7.67,0,0,1,7.06,0l1.52.88a3.7,3.7,0,0,1,1.32,1.21,2.79,2.79,0,0,1,.29.57,8.39,8.39,0,0,1,1.12.16,6.29,6.29,0,0,1,1.81.68l2.28,1.31a1.5,1.5,0,0,1,.82,1.31,1.48,1.48,0,0,1-.82,1.3,2.55,2.55,0,0,1-1.25.32,2.47,2.47,0,0,1-1.27-.32l-2.27-1.31a2.08,2.08,0,0,0-1-.23,2,2,0,0,0-1,.23L284.65,369l2.29,1.32a1.46,1.46,0,0,1,.81,1.32,1.49,1.49,0,0,1-.82,1.29,2.44,2.44,0,0,1-1.25.31ZM281.13,367l4.07-2.35-1.53-.88a2.38,2.38,0,0,0-2,0l-3,1.76Z" style="fill: #407BFF; transform-origin: 284.17px 366.755px;" id="elx0lttedgrrm" class="animable"></path><path d="M297.8,366.24a2.47,2.47,0,0,1-1.25-.31l-10.61-6.13a1.46,1.46,0,0,1-.81-1.28,1.48,1.48,0,0,1,.81-1.33l7.58-4.37a2.42,2.42,0,0,1,1.25-.31,2.52,2.52,0,0,1,1.27.31,1.44,1.44,0,0,1,0,2.6l-5.32,3.08,1.79,1,4.8-2.77a2.64,2.64,0,0,1,2.52,0,1.45,1.45,0,0,1,0,2.6l-3.8,2.2,1.79,1,6.32-3.65a2.49,2.49,0,0,1,1.25-.31,2.46,2.46,0,0,1,1.26.32,1.44,1.44,0,0,1,0,2.6l-7.58,4.38a2.44,2.44,0,0,1-1.25.31Z" style="fill: #407BFF; transform-origin: 296.3px 359.375px;" id="eljbactanciq" class="animable"></path><path d="M309.93,358.47a7,7,0,0,1-3.53-.86,1.51,1.51,0,0,1-.82-1.27,1.44,1.44,0,0,1,.43-1,8.51,8.51,0,0,1-1.36.11,7.06,7.06,0,0,1-3.54-.87l-.76-.43a2.83,2.83,0,0,1,0-5.24l3-1.74a7.67,7.67,0,0,1,7.06,0,1.48,1.48,0,0,1,.82,1.3,1.41,1.41,0,0,1-.43,1,8.79,8.79,0,0,1,1.38-.1,6.94,6.94,0,0,1,3.53.85l.76.44a2.82,2.82,0,0,1,0,5.23l-3,1.75A7,7,0,0,1,309.93,358.47Zm-2.05-3.77a2.39,2.39,0,0,1,1,.31,2,2,0,0,0,1,.22,2.08,2.08,0,0,0,1-.22l3-1.76-.77-.45a2.05,2.05,0,0,0-1-.23,2,2,0,0,0-1,.23l-3,1.75Zm-4.26-2.76a2.05,2.05,0,0,0,1,.23,2,2,0,0,0,1-.23l3-1.75L309,350a2.43,2.43,0,0,1-1-.3,2.38,2.38,0,0,0-2,0l-3,1.75Z" style="fill: #407BFF; transform-origin: 308.412px 352.392px;" id="elvhzqxqafljh" class="animable"></path><path d="M322.05,351.47a7,7,0,0,1-3.53-.86,1.49,1.49,0,0,1-.81-1.27,1.37,1.37,0,0,1,.43-1,8.64,8.64,0,0,1-1.37.11,7.08,7.08,0,0,1-3.54-.87l-.76-.43a2.84,2.84,0,0,1,0-5.24l3-1.74a7.67,7.67,0,0,1,7.06,0,1.48,1.48,0,0,1,.82,1.3,1.37,1.37,0,0,1-.43,1,8.83,8.83,0,0,1,1.39-.1,7,7,0,0,1,3.53.85l.76.44a2.83,2.83,0,0,1,0,5.23l-3,1.75A6.94,6.94,0,0,1,322.05,351.47ZM320,347.7a2.35,2.35,0,0,1,1,.31,2.45,2.45,0,0,0,2,0l3.05-1.76-.78-.45a2,2,0,0,0-1-.23,2.05,2.05,0,0,0-1,.23l-3,1.75Zm-4.25-2.76a2,2,0,0,0,1,.23,2.08,2.08,0,0,0,1-.23l3-1.75.27-.15a2.43,2.43,0,0,1-1-.3,2.05,2.05,0,0,0-1-.23,2,2,0,0,0-1,.23l-3,1.75Z" style="fill: #407BFF; transform-origin: 320.537px 345.392px;" id="elxkdc94ea49" class="animable"></path><path d="M297.8,387.24a2.44,2.44,0,0,1-1.25-.31l-10.61-6.13a1.46,1.46,0,0,1-.81-1.28,1.48,1.48,0,0,1,.81-1.33l5.3-3.06a7.7,7.7,0,0,1,7.07,0l1.51.88a2.82,2.82,0,0,1,0,5.23L296.77,383l2.29,1.32a1.44,1.44,0,0,1,0,2.61,2.4,2.4,0,0,1-1.24.31ZM293.26,381l4.06-2.35-1.53-.88a2.35,2.35,0,0,0-2,0l-3.05,1.76Z" style="fill: #407BFF; transform-origin: 293.357px 380.756px;" id="eltqbnwdy032m" class="animable"></path><path d="M309.92,380.24a2.44,2.44,0,0,1-1.25-.31l-10.61-6.13a1.51,1.51,0,0,1-.81-1.31,1.48,1.48,0,0,1,.82-1.3,2.43,2.43,0,0,1,1.24-.31,2.52,2.52,0,0,1,1.27.31l9.35,5.4,6.32-3.65a2.44,2.44,0,0,1,1.25-.31,2.47,2.47,0,0,1,1.27.32,1.46,1.46,0,0,1,.81,1.3,1.48,1.48,0,0,1-.82,1.3l-7.57,4.38a2.54,2.54,0,0,1-1.25.31Z" style="fill: #407BFF; transform-origin: 308.415px 375.56px;" id="el5dgutih3qls" class="animable"></path><path d="M322.05,373.24a2.44,2.44,0,0,1-1.25-.31l-8.34-4.82a2.83,2.83,0,0,1,0-5.23l3-1.75a7.67,7.67,0,0,1,7.06,0l8.34,4.81a1.48,1.48,0,0,1,.81,1.33,1.46,1.46,0,0,1-.82,1.28,2.44,2.44,0,0,1-1.24.32,2.52,2.52,0,0,1-1.27-.32l-3.29-1.9L321,369l2.29,1.32a1.44,1.44,0,0,1,0,2.6,2.41,2.41,0,0,1-1.24.32ZM317.51,367l4.06-2.35-1.53-.88a2.05,2.05,0,0,0-1-.23,2,2,0,0,0-1,.23L315,365.5Z" style="fill: #407BFF; transform-origin: 321.191px 366.755px;" id="elnrq2iax8a9c" class="animable"></path><path d="M335.68,365.37a2.48,2.48,0,0,1-1.24-.32,1.45,1.45,0,0,1,0-2.61l3.8-2.19-1.17-.68a3.85,3.85,0,0,1-.88.67l-3,1.75a7.67,7.67,0,0,1-7.06,0l-3.79-2.19a1.45,1.45,0,0,1,0-2.6,2.52,2.52,0,0,1,1.27-.32,2.46,2.46,0,0,1,1.26.32l3.79,2.18a2,2,0,0,0,1,.23,2.08,2.08,0,0,0,1-.23l3-1.76-3.8-2.19a1.49,1.49,0,0,1-.81-1.28,1.51,1.51,0,0,1,.8-1.33,2.49,2.49,0,0,1,1.27-.31,2.45,2.45,0,0,1,1.26.31l8.33,4.81a2.82,2.82,0,0,1,0,5.23L337,365.05a2.45,2.45,0,0,1-1.25.32Z" style="fill: #407BFF; transform-origin: 332.003px 358.94px;" id="elc6upur563ze" class="animable"></path></g></g><path d="M275.07,373.37,270.53,376l3.78,2.18a.52.52,0,0,1,.32.45.53.53,0,0,1-.32.43,1.67,1.67,0,0,1-1.51,0l-10.61-6.13a.49.49,0,0,1-.31-.43.5.5,0,0,1,.31-.44l5.3-3.06a6.67,6.67,0,0,1,6.07,0l1.51.87a1.85,1.85,0,0,1,0,3.5Zm-3-3.5a3.37,3.37,0,0,0-3,0l-4.55,2.63,4.55,2.62,4.55-2.62a1,1,0,0,0,.62-.88,1,1,0,0,0-.62-.87Z" style="fill: #407BFF; transform-origin: 269.1px 373.755px;" id="elopniw71hw9" class="animable"></path><path d="M288.44,364.78a7.52,7.52,0,0,1,1.78.15,5,5,0,0,1,1.52.57l2.28,1.31a.53.53,0,0,1,.32.44c0,.17-.11.31-.32.43a1.61,1.61,0,0,1-.76.19,1.43,1.43,0,0,1-.76-.19l-2.27-1.31a3,3,0,0,0-1.52-.36,3,3,0,0,0-1.51.36L282.65,369l3.79,2.18c.21.13.32.27.31.45s-.11.31-.32.43a1.49,1.49,0,0,1-.75.18,1.55,1.55,0,0,1-.76-.18l-10.61-6.13a.51.51,0,0,1-.31-.43.51.51,0,0,1,.31-.44l5.31-3.06a6.65,6.65,0,0,1,6.06,0l1.52.87a2.84,2.84,0,0,1,1,.88A1.58,1.58,0,0,1,288.44,364.78Zm-4.27-1.91a3.39,3.39,0,0,0-3,0l-4.54,2.63,4.54,2.62,4.55-2.62a1,1,0,0,0,.63-.88,1,1,0,0,0-.63-.87Z" style="fill: #407BFF; transform-origin: 284.17px 366.755px;" id="eli99j1bop8m9" class="animable"></path><path d="M295.53,354.56l-6.44,3.72a.25.25,0,0,0-.15.22.27.27,0,0,0,.15.22l3,1.75a.94.94,0,0,0,.76,0l4.92-2.85a1.5,1.5,0,0,1,.76-.18,1.54,1.54,0,0,1,.77.19c.21.12.31.26.3.43a.51.51,0,0,1-.31.44l-4.92,2.84a.23.23,0,0,0,0,.44l3,1.75a.74.74,0,0,0,.38.09.7.7,0,0,0,.37-.09l6.45-3.72a1.44,1.44,0,0,1,.75-.18,1.54,1.54,0,0,1,.77.18.51.51,0,0,1,.31.44.52.52,0,0,1-.32.43l-7.58,4.38a1.67,1.67,0,0,1-1.51,0l-10.61-6.13a.49.49,0,0,1-.31-.43.5.5,0,0,1,.31-.44l7.58-4.38a1.74,1.74,0,0,1,1.52,0,.5.5,0,0,1,.31.44A.53.53,0,0,1,295.53,354.56Z" style="fill: #407BFF; transform-origin: 296.235px 359.373px;" id="el7e5c22gmdhf" class="animable"></path><path d="M310.25,348.43a.53.53,0,0,1-.32.44,1.69,1.69,0,0,1-1.52,0,3,3,0,0,0-1.51-.36,3,3,0,0,0-1.52.36l-3,1.74a.93.93,0,0,0,0,1.75l.76.44a3.29,3.29,0,0,0,3,0l3-1.74a6.74,6.74,0,0,1,6.06,0l.76.44a2.06,2.06,0,0,1,1.26,1.75A2.08,2.08,0,0,1,316,355l-3,1.75a6.74,6.74,0,0,1-6.06,0,.55.55,0,0,1-.32-.44.5.5,0,0,1,.31-.43,1.65,1.65,0,0,1,1.52,0,3.39,3.39,0,0,0,3,0l3-1.75a.93.93,0,0,0,0-1.75l-.76-.44a3.37,3.37,0,0,0-3,0l-3,1.75a5.91,5.91,0,0,1-3,.73,6.05,6.05,0,0,1-3-.73l-.76-.44a1.85,1.85,0,0,1,0-3.5l3-1.74a6.65,6.65,0,0,1,6.06,0A.53.53,0,0,1,310.25,348.43Z" style="fill: #407BFF; transform-origin: 308.45px 352.375px;" id="el86m7d0wc83" class="animable"></path><path d="M322.37,341.43a.51.51,0,0,1-.31.44,1.5,1.5,0,0,1-.76.18,1.43,1.43,0,0,1-.76-.18,3,3,0,0,0-1.52-.36,3,3,0,0,0-1.51.36l-3,1.74a1.05,1.05,0,0,0-.63.88,1,1,0,0,0,.63.87l.76.44a3,3,0,0,0,1.51.37,3,3,0,0,0,1.52-.37l3-1.74a6.74,6.74,0,0,1,6.06,0l.76.44a2.06,2.06,0,0,1,1.25,1.75,2.09,2.09,0,0,1-1.25,1.75l-3,1.75a6.74,6.74,0,0,1-6.06,0,.53.53,0,0,1-.31-.44.5.5,0,0,1,.31-.43,1.41,1.41,0,0,1,.76-.19,1.5,1.5,0,0,1,.76.18,3.37,3.37,0,0,0,3,0l3-1.75a1,1,0,0,0,.63-.87,1,1,0,0,0-.63-.88l-.76-.44a3,3,0,0,0-1.51-.36,3,3,0,0,0-1.52.36l-3,1.75a5.87,5.87,0,0,1-3,.73,6.12,6.12,0,0,1-3-.73l-.76-.44a1.85,1.85,0,0,1,0-3.5l3-1.74a6.65,6.65,0,0,1,6.06,0A.51.51,0,0,1,322.37,341.43Z" style="fill: #407BFF; transform-origin: 320.575px 345.37px;" id="elzw0irgu2veg" class="animable"></path><path d="M299.32,380.37,294.77,383l3.79,2.18a.52.52,0,0,1,.32.45.53.53,0,0,1-.32.43,1.67,1.67,0,0,1-1.51,0l-10.61-6.13a.49.49,0,0,1-.31-.43.5.5,0,0,1,.31-.44l5.3-3.06a6.65,6.65,0,0,1,6.06,0l1.52.87a1.85,1.85,0,0,1,0,3.5Zm-3-3.5a3.37,3.37,0,0,0-3,0l-4.55,2.63,4.55,2.62,4.54-2.62a1,1,0,0,0,.63-.88,1,1,0,0,0-.63-.87Z" style="fill: #407BFF; transform-origin: 293.35px 380.755px;" id="els54kxdjsv6a" class="animable"></path><path d="M318.26,374.68l-7.57,4.38a1.49,1.49,0,0,1-.75.18,1.54,1.54,0,0,1-.77-.18l-10.61-6.13a.51.51,0,0,1-.31-.43.52.52,0,0,1,.32-.44,1.31,1.31,0,0,1,.75-.18,1.53,1.53,0,0,1,.76.18l9.47,5.47a.85.85,0,0,0,.76,0l6.44-3.72a1.53,1.53,0,0,1,.76-.18,1.5,1.5,0,0,1,.76.18.51.51,0,0,1,.31.44C318.58,374.42,318.48,374.56,318.26,374.68Z" style="fill: #407BFF; transform-origin: 308.415px 375.559px;" id="eli9fibtda7r" class="animable"></path><path d="M330.7,367.25a.53.53,0,0,1-.32.44,1.49,1.49,0,0,1-.75.18,1.45,1.45,0,0,1-.76-.19l-3.41-2a.71.71,0,0,0-.38-.09.7.7,0,0,0-.37.09l-5.31,3.06a.25.25,0,0,0-.15.22.27.27,0,0,0,.15.22l3.41,2a.54.54,0,0,1,.32.45.53.53,0,0,1-.32.43,1.44,1.44,0,0,1-.75.18,1.5,1.5,0,0,1-.76-.18L313,367.25a2.07,2.07,0,0,1-1.25-1.75,2,2,0,0,1,1.25-1.75l3-1.75a6.65,6.65,0,0,1,6.06,0l8.34,4.81A.5.5,0,0,1,330.7,367.25Zm-10.16-4.38a3,3,0,0,0-1.52-.36,3,3,0,0,0-1.51.36l-3,1.75a1,1,0,0,0-.63.88,1,1,0,0,0,.63.87l2.65,1.53a.74.74,0,0,0,.38.09.76.76,0,0,0,.38-.09l5.3-3.06a.25.25,0,0,0,.15-.22.27.27,0,0,0-.15-.22Z" style="fill: #407BFF; transform-origin: 321.225px 366.755px;" id="elp5f4oaeopca" class="animable"></path><path d="M340.24,358.5a2.06,2.06,0,0,1,1.26,1.75,2.08,2.08,0,0,1-1.26,1.75l-3.79,2.18a1.43,1.43,0,0,1-.76.19,1.54,1.54,0,0,1-.75-.19.52.52,0,0,1-.32-.43.51.51,0,0,1,.32-.44l3.78-2.19a1,1,0,0,0,.63-.87,1,1,0,0,0-.63-.88l-1.92-1.11a2.57,2.57,0,0,1-1.11,1.11l-3,1.75a6.65,6.65,0,0,1-6.06,0l-3.79-2.19a.51.51,0,0,1-.31-.43.5.5,0,0,1,.31-.44,1.69,1.69,0,0,1,1.52,0l3.79,2.19a3,3,0,0,0,1.51.36,3,3,0,0,0,1.52-.36l3-1.75a1,1,0,0,0,.63-.88,1,1,0,0,0-.63-.87l-3.79-2.19a.5.5,0,0,1-.31-.43.47.47,0,0,1,.3-.44,1.74,1.74,0,0,1,1.52,0l0,0Z" style="fill: #407BFF; transform-origin: 332.015px 358.943px;" id="elm9o0crshotd" class="animable"></path></g></g></g><g id="freepik--Hand--inject-382" class="animable animator-hidden" style="transform-origin: 165.528px 158.032px;"><g id="freepik--hand--inject-382" class="animable" style="transform-origin: 165.528px 158.032px;"><path d="M72.94,83c0-20.31,14.26-45,31.85-55.16,8.8-5.08,16.76-5.56,22.52-2.24l46.68,27c0,20.31-27.44,67.87-45,78l-46.69-27C76.51,100.3,72.94,93.16,72.94,83Z" style="fill: #407BFF; transform-origin: 123.465px 77.0435px;" id="eltslv9db9krr" class="animable"></path><path d="M119.66,110c0-20.31,14.25-45,31.84-55.17,8.78-5.06,16.73-5.55,22.49-2.25S183.35,63,183.35,73.2c0,20.31-14.26,45-31.85,55.17-8.8,5.08-16.77,5.55-22.54,2.21S119.66,120.12,119.66,110Z" style="fill: #407BFF; transform-origin: 151.505px 91.5991px;" id="ellv7ugsyfw4" class="animable"></path><g id="eltjhw9j65snq"><path d="M119.66,110c0-20.31,14.25-45,31.84-55.17,8.78-5.06,16.73-5.55,22.49-2.25S183.35,63,183.35,73.2c0,20.31-14.26,45-31.85,55.17-8.8,5.08-16.77,5.55-22.54,2.21S119.66,120.12,119.66,110Z" style="opacity: 0.15; transform-origin: 151.505px 91.5991px;" class="animable" id="el85wm4km784q"></path></g><g id="elg2u4qydpzi"><path d="M121,98.54A51.37,51.37,0,0,0,119.66,110c0,10.14,3.55,17.27,9.3,20.6s13.74,2.87,22.54-2.21a52,52,0,0,0,9.23-6.91Z" style="opacity: 0.15; transform-origin: 140.195px 115.634px;" class="animable" id="elpxvtf2htpd"></path></g><path d="M256,156.23c-1.35,7.76-2.15,12.09-5.94,15-.72,9.28-4.25,15.88-6.6,17.93-.4,14.38-7.58,19-7.58,19s1.21,41,2.79,51.19c2.7,17.54,5.14,22,3.93,27.53-1.18,5.39-10.16,7.65-17.44,3.7-7.8-4.22-10.69-18.23-13.62-31.23-3.28-14.54-6-29.1-6-29.1-6.88-1.87-17.82-1.5-23.81-3.1s-7.73-3.39-12.62-10.14-18.42-20.86-22.4-27.33-5-14.25-5.18-29c-.13-10.22-1.26-17.87-1.56-28.07,0-.75-.05-1.51-.06-2.3,0-2.17,0-4.45,0-6.9l-20.26-11.71c0-.54,0-1.1,0-1.66,0-10.66,3.94-22.53,10.22-32.88,5.68-9.35,13.29-17.45,21.63-22.28a37.83,37.83,0,0,1,5.07-2.46c7.2,4.35,16.5,9.77,23.49,13.28.7.35,1.73.84,2.79,1.35,1.66.8,3.43,1.65,4.24,2.08,8.26,4.38,10.15,10.78,15.9,16.22,4.58,4.33,44.45,39.58,50.86,44.64S258.1,144.18,256,156.23Z" style="fill: rgb(255, 168, 167); transform-origin: 188.883px 172.499px;" id="el7mlhwjlef94" class="animable"></path><g id="elfozypjenay"><path d="M243.46,189.11c2.35-2.05,5.88-8.65,6.6-17.93,3.8-2.86,4.59-7.19,5.94-15,.69-3.95,1.38-7.58,1.78-10.87-.17,1-1.71,10-3.13,10.87s-2.5-1.91-2.5-1.91-1.82,12.5-4,14-3-1.09-3-1.09c-1.08,8.77-2.08,13.11-4.68,14.11s-4.85-2.69-5.93-7.36c-.39,5.89,1.3,34.14,1.3,34.14S243.06,203.49,243.46,189.11Z" style="fill: rgb(242, 143, 143); opacity: 0.3; transform-origin: 246.131px 176.69px;" class="animable" id="elyo2zg6pt9tn"></path></g><g id="elcr07cdtro6"><path d="M149.17,94.4a41,41,0,0,0-5.43,9.9c-4.87,12.87-3.8,19-3.8,19l-20.26-11.71c0-.54,0-1.1,0-1.66,0-8.43,2.46-17.61,6.6-26.2Z" style="opacity: 0.05; transform-origin: 134.425px 103.515px;" class="animable" id="elrp9xgcol4w7"></path></g><path d="M239.37,268.42c-4.87-1.94-12.78,1.07-14,3s2.39,13.44,5,16.39c3.34,3.68,12.27,3.32,12.53-2.85S239.37,268.42,239.37,268.42Z" style="fill: rgb(255, 168, 167); transform-origin: 234.019px 278.986px;" id="elp7lak28r8v" class="animable"></path><g id="elr6mw4qls2qe"><path d="M239.37,268.42c-4.87-1.94-12.78,1.07-14,3s2.39,13.44,5,16.39c3.34,3.68,12.27,3.32,12.53-2.85S239.37,268.42,239.37,268.42Z" style="fill: rgb(255, 255, 255); opacity: 0.4; transform-origin: 234.019px 278.986px;" class="animable" id="eluh3turzr01"></path></g><path d="M234.24,271.38c4.68-1.1,5.13-3,5.13-3-4.87-1.94-12.78,1.07-14,3A20.89,20.89,0,0,0,234.24,271.38Z" style="fill: rgb(242, 143, 143); transform-origin: 232.37px 269.805px;" id="el931uwelguvd" class="animable"></path><path d="M139.94,123.34c0-9.44,3.8-19,3.8-19s-5.22,3.64-7,17.16Z" style="fill: rgb(242, 143, 143); transform-origin: 140.24px 113.84px;" id="elyoyxqyk061j" class="animable"></path><path d="M235.88,208.08c-1.17-10-2.22-19.39-2.66-27.36s-.29-8.92-.12-10.25,3.36-4.9,3.13,0-1,9.6-.6,17.22S235.88,208.08,235.88,208.08Z" style="fill: rgb(255, 168, 167); transform-origin: 234.586px 188.023px;" id="elail5e10doz" class="animable"></path><g id="elj9ewto9o2po"><path d="M235.88,208.08c-1.17-10-2.22-19.39-2.66-27.36s-.29-8.92-.12-10.25,3.36-4.9,3.13,0-1,9.6-.6,17.22S235.88,208.08,235.88,208.08Z" style="fill: rgb(242, 143, 143); opacity: 0.8; transform-origin: 234.586px 188.023px;" class="animable" id="elqvxyzy0i2ri"></path></g><g id="el929qmceecnf"><g style="opacity: 0.4; transform-origin: 226.94px 235.681px;" class="animable" id="ela8qemi9q0j8"><path d="M234.09,212.84a.93.93,0,0,0-.07-.33,1.68,1.68,0,0,0-.4-.48,9.36,9.36,0,0,0-5.65-2.32,16.44,16.44,0,0,0-4.8.26c-2.52.51-5.33,1.4-6.49,3.91a.64.64,0,0,0-.06.55c.15.28.57.2.87.08a24.21,24.21,0,0,1,7.83-1.62,32.44,32.44,0,0,1,3.94.15,20.89,20.89,0,0,0,4.17.33.83.83,0,0,0,.56-.25A.56.56,0,0,0,234.09,212.84Z" style="fill: rgb(242, 143, 143); transform-origin: 225.337px 212.13px;" id="el6589r6wfptm" class="animable"></path><path d="M231,219.69c-1,.34-2,.81-3.11,1.1a15.44,15.44,0,0,1-2.58.43,21.69,21.69,0,0,1-2.55,0c-.5,0-1,0-1.49,0a8.46,8.46,0,0,0-.88-.1c-.16,0-.32,0-.49,0s-.34.48-.18.63a7.16,7.16,0,0,0,4.25,2,14.89,14.89,0,0,0,2.91,0c1.88-.18,4.33-.7,5.67-2.14C233.3,220.7,231.83,219.42,231,219.69Z" style="fill: rgb(242, 143, 143); transform-origin: 226.206px 221.737px;" id="elprriif4kedl" class="animable"></path><path d="M237.09,257.69a4.3,4.3,0,0,0-2.74-1.41c-.25,0-.51-.06-.76-.08a16.31,16.31,0,0,0-1.85,0,15.44,15.44,0,0,0-3.69.65c-1.86.55-4,1.6-4.75,3.53,0,.1-.08.22-.12.33a1.54,1.54,0,0,0-.09.52.55.55,0,0,0,.24.44.85.85,0,0,0,.78-.1l3.14-1.56a11.54,11.54,0,0,1,1.9-.66,14.9,14.9,0,0,1,2-.52,10.8,10.8,0,0,1,2-.11,34.73,34.73,0,0,0,3.81.2C237.49,258.87,237.28,258,237.09,257.69Z" style="fill: rgb(242, 143, 143); transform-origin: 230.193px 258.948px;" id="elkz223go0l9k" class="animable"></path></g></g><g id="el8wxmjh959lg"><g style="opacity: 0.4; transform-origin: 178.444px 221.023px;" class="animable" id="elkd5bjkhde6"><path d="M181.14,214.73a.69.69,0,0,0-.49-.13,9.47,9.47,0,0,0-2.48.48,9.29,9.29,0,0,0-5.65,6.21.19.19,0,0,0,0,.07,19.71,19.71,0,0,0,2.38,2.43,2,2,0,0,0,.09-.33,9.49,9.49,0,0,1,2.66-5.1,38.17,38.17,0,0,1,3.2-2.74,1.23,1.23,0,0,0,.35-.37.44.44,0,0,0,0-.49Z" style="fill: rgb(242, 143, 143); transform-origin: 176.896px 219.193px;" id="elskmhg1u7li" class="animable"></path><path d="M180.63,226.76l1.08.31c.54.14,1.12.26,1.73.38a5.23,5.23,0,0,0,.59-1.56,17.82,17.82,0,0,0,.33-4.12,3.43,3.43,0,0,0-.7-2.13c-.08-.09-.18-.18-.3-.15s-.17.21-.18.35a12.63,12.63,0,0,1-2.19,6.3A3.85,3.85,0,0,0,180.63,226.76Z" style="fill: rgb(242, 143, 143); transform-origin: 182.501px 223.467px;" id="ely2e3203l73" class="animable"></path></g></g><g id="elpevxfddamv"><path d="M227.39,144.5c3.44-1.26,7.18,2.53,7.84,4.72a10.67,10.67,0,0,1-1.41,9.45c-.76.92-1.7-.57-1.88-3.46a11.53,11.53,0,0,0-2.89-7.66C226.88,145.31,226.43,144.85,227.39,144.5Z" style="fill: rgb(242, 143, 143); opacity: 0.4; transform-origin: 231.335px 151.595px;" class="animable" id="el11i4e71w4jt"></path></g><g id="el0mf70z1f04xc"><path d="M203.23,150.88c-3.6.68-4.86,5.85-4.31,8.07a10.65,10.65,0,0,0,6.06,7.39c1.12.4,1.17-1.36-.16-3.93a11.54,11.54,0,0,1-1.45-8C204.09,151.32,204.24,150.69,203.23,150.88Z" style="fill: rgb(242, 143, 143); opacity: 0.35; transform-origin: 202.308px 158.623px;" class="animable" id="elkbsuat08huo"></path></g><g id="elq2oji6uwnbm"><path d="M242.37,138.28c2.89-1.2,6.21,1.9,6.85,3.74a9,9,0,0,1-.86,8.1c-.62.81-1.47-.42-1.73-2.87a9.79,9.79,0,0,0-2.73-6.43C242,139,241.57,138.62,242.37,138.28Z" style="fill: rgb(242, 143, 143); opacity: 0.4; transform-origin: 245.898px 144.19px;" class="animable" id="elunnb3de6ts"></path></g><path d="M243.46,189.11c-.63-5.56-.29-15.55,0-21.15s3.77-7.23,3.95-5.81-1.45,3.93-2.22,9.43C244.47,176.7,243.8,182.36,243.46,189.11Z" style="fill: rgb(255, 168, 167); transform-origin: 245.264px 175.388px;" id="elz0g0vsiau2e" class="animable"></path><g id="el2quo5pwd00v"><path d="M243.46,189.11c-.63-5.56-.29-15.55,0-21.15s3.77-7.23,3.95-5.81-1.45,3.93-2.22,9.43C244.47,176.7,243.8,182.36,243.46,189.11Z" style="fill: rgb(242, 143, 143); opacity: 0.8; transform-origin: 245.264px 175.388px;" class="animable" id="el2bx3jcya2w5"></path></g><path d="M190.51,221.7a19.66,19.66,0,0,0-1.36,6.48c5.51.76,11.55,1.51,16.39,2,0-1.21-.69-6.71-.69-6.71C201.08,220.43,190.51,221.7,190.51,221.7Z" style="fill: rgb(255, 168, 167); transform-origin: 197.345px 225.808px;" id="elho7ioke2u7q" class="animable"></path><g id="elx4m16gfhd3"><path d="M190.51,221.7a19.66,19.66,0,0,0-1.36,6.48c5.51.76,11.55,1.51,16.39,2,0-1.21-.69-6.71-.69-6.71C201.08,220.43,190.51,221.7,190.51,221.7Z" style="fill: rgb(255, 255, 255); opacity: 0.3; transform-origin: 197.345px 225.808px;" class="animable" id="ely5sanns2zs"></path></g><g id="el6nmfv3sm8bs"><path d="M189.15,228.18l2.46.33a22.43,22.43,0,0,0-1.1-6.81A19.66,19.66,0,0,0,189.15,228.18Z" style="fill: rgb(242, 143, 143); opacity: 0.8; transform-origin: 190.38px 225.105px;" class="animable" id="eljzsx1ht8tko"></path></g><g id="elryx3n1hf4ij"><path d="M180.06,180.2c-.46-.55-.89-1.12-1.31-1.7-1-1.33-1.52-2.8-2.47-4.1q-1.65-2.27-3.09-4.68c-.32-.54-2.81-5.79-2.75-3.1.14,5.68,3.33,10.77,6.41,15.54.91,1.42,2.22,3,1.73,4.86-.44,1.61-2.18,2.45-3.79,2.9s-3.37.81-4.44,2.08a1.26,1.26,0,0,0-.27,1.48c.31.42.94.39,1.45.32a26.82,26.82,0,0,1,7.59-.13,12.11,12.11,0,0,1,6.76,3.2c1.79,1.8,3.14,4.57,2.62,7.06a8,8,0,0,1-1.83,3.33c-.43.53-1.62,1.7-1.18,2.22s2.41.46,3,.5c3.11.26,4.13.42,6.19,1.5a9.58,9.58,0,0,1,4.23,3.56c1.49,2.1,2.33,4.61,3.41,8.42a55.09,55.09,0,0,1,1.36,6.52l1.85.19c-.11-2.16-.44-4.61-.69-6.71-.33-2.89-1.32-5-1.6-7.76s-.79-5-1.13-7.62c-.42-3.24-.73-5.43-1.25-8-1.3-6.4-2-12.86-3.29-19.26-.23-1.18-1-4.68-2.8-4.38a2,2,0,0,0-1.32,1.05,6.06,6.06,0,0,0-.49,1.67l-1,5a4.16,4.16,0,0,1-.81,2.1,2.79,2.79,0,0,1-2.57.73,6.71,6.71,0,0,1-2.5-1.19A28.67,28.67,0,0,1,180.06,180.2Z" style="fill: rgb(242, 143, 143); opacity: 0.4; transform-origin: 187.74px 198.014px;" class="animable" id="el6qn9qxkhtn6"></path></g><path d="M205.54,230.17c-.07-1.6-.36-4.19-.69-6.71-1.13-8.74-3-20.17-4.47-29.33-2.07-12.7-2-23-4.29-23-2.46,0-2.57,5.56-1.43,12.05.7,4,1.49,9.25,2.82,15.67a27,27,0,0,1,.36,3.59,2.56,2.56,0,0,1-1.39,2.69,6.6,6.6,0,0,1-2.16.44c-3.19.29-6.5.77-9.18,2.53a2.28,2.28,0,0,0-.69.62.93.93,0,0,0-.11.88c.36.75,2.41.53,3.08.49,1.53-.1,3-.33,4.55-.48,3.45-.35,7.44.81,9.77,6.45C203.65,223.36,205.54,230.17,205.54,230.17Z" style="fill: rgb(255, 168, 167); transform-origin: 194.893px 200.65px;" id="el6ajticgr3lc" class="animable"></path><g id="elxwzb5vvoxde"><path d="M205.54,230.17c-.07-1.6-.36-4.19-.69-6.71-1.13-8.74-3-20.17-4.47-29.33-2.07-12.7-2-23-4.29-23-2.46,0-2.57,5.56-1.43,12.05.7,4,1.49,9.25,2.82,15.67a27,27,0,0,1,.36,3.59,2.56,2.56,0,0,1-1.39,2.69,6.6,6.6,0,0,1-2.16.44c-3.19.29-6.5.77-9.18,2.53a2.28,2.28,0,0,0-.69.62.93.93,0,0,0-.11.88c.36.75,2.41.53,3.08.49,1.53-.1,3-.33,4.55-.48,3.45-.35,7.44.81,9.77,6.45C203.65,223.36,205.54,230.17,205.54,230.17Z" style="fill: rgb(242, 143, 143); opacity: 0.9; transform-origin: 194.893px 200.65px;" class="animable" id="el0fa2gmmdcnz"></path></g></g></g><defs>     <filter id="active" height="200%">         <feMorphology in="SourceAlpha" result="DILATED" operator="dilate" radius="2"></feMorphology>                <feFlood flood-color="#32DFEC" flood-opacity="1" result="PINK"></feFlood>        <feComposite in="PINK" in2="DILATED" operator="in" result="OUTLINE"></feComposite>        <feMerge>            <feMergeNode in="OUTLINE"></feMergeNode>            <feMergeNode in="SourceGraphic"></feMergeNode>        </feMerge>    </filter>    <filter id="hover" height="200%">        <feMorphology in="SourceAlpha" result="DILATED" operator="dilate" radius="2"></feMorphology>                <feFlood flood-color="#ff0000" flood-opacity="0.5" result="PINK"></feFlood>        <feComposite in="PINK" in2="DILATED" operator="in" result="OUTLINE"></feComposite>        <feMerge>            <feMergeNode in="OUTLINE"></feMergeNode>            <feMergeNode in="SourceGraphic"></feMergeNode>        </feMerge>            <feColorMatrix type="matrix" values="0   0   0   0   0                0   1   0   0   0                0   0   0   0   0                0   0   0   1   0 "></feColorMatrix>    </filter></defs></svg>