<!DOCTYPE svg PUBLIC "-//W3C//DTD SVG 20010904//EN" "http://www.w3.org/TR/2001/REC-SVG-20010904/DTD/svg10.dtd">
<svg version="1.0" xmlns="http://www.w3.org/2000/svg" width="1200px" height="304px" viewBox="0 0 12000 3040" preserveAspectRatio="xMidYMid meet">
<g id="layer101" fill="#83b81a" stroke="none">
 <path d="M7001 2919 c-439 -39 -759 -174 -933 -392 -23 -30 -40 -44 -42 -35 -2 7 -14 56 -26 110 -28 128 -60 177 -143 218 -114 56 -254 73 -719 91 -309 12 -611 7 -773 -11 -227 -26 -449 -90 -592 -172 -155 -88 -294 -250 -349 -406 -27 -78 -54 -221 -55 -296 l-1 -51 -14 44 c-7 24 -53 172 -101 329 -47 156 -96 298 -107 315 -51 75 -142 118 -332 156 -254 50 -543 77 -1007 93 -1134 37 -1664 -131 -1727 -549 -20 -129 25 -325 105 -461 102 -174 313 -333 582 -436 233 -90 467 -141 988 -216 509 -74 995 -149 1033 -161 83 -27 130 -116 119 -227 -22 -216 -332 -304 -957 -273 -296 15 -771 48 -934 65 -212 22 -215 18 -145 -191 59 -178 87 -227 156 -271 126 -80 264 -97 928 -113 668 -17 963 6 1227 92 358 117 527 338 504 660 -3 48 -8 95 -11 105 -6 18 -5 18 7 0 337 -498 802 -760 1489 -840 269 -32 763 -29 915 4 70 15 152 66 186 115 23 32 32 64 48 165 10 69 22 141 26 161 7 42 -15 94 -45 104 -11 3 -100 -1 -198 -10 -619 -54 -997 -19 -1289 121 -286 136 -471 374 -578 742 -69 238 -85 463 -41 586 45 125 195 206 457 248 99 16 523 17 986 4 311 -9 313 -9 307 -30 -35 -119 -47 -217 -42 -371 4 -182 30 -314 98 -510 252 -734 753 -1156 1539 -1299 335 -61 786 -69 1160 -20 489 63 769 239 811 509 6 38 9 86 6 108 l-5 39 45 -68 c64 -95 198 -231 301 -304 271 -193 620 -292 1112 -315 149 -7 650 11 735 26 75 13 142 50 178 96 38 51 36 102 -13 247 -44 132 -58 157 -97 183 -25 17 -62 18 -503 15 -517 -4 -596 1 -736 52 -123 45 -217 129 -260 232 -9 22 -135 453 -280 958 -145 506 -271 930 -280 944 -8 13 -34 32 -57 43 -39 17 -70 19 -377 19 -358 0 -372 -2 -398 -50 -13 -23 6 -91 227 -830 133 -443 244 -814 248 -825 3 -11 -12 3 -34 30 -188 238 -574 419 -1073 504 -63 10 -440 61 -837 112 l-723 93 0 61 c0 118 46 212 137 281 175 134 579 155 1671 88 295 -18 312 -16 312 36 0 47 -106 358 -135 395 -38 51 -136 94 -247 111 -51 7 -192 18 -313 24 -256 12 -977 11 -1114 -1z m-4991 -533 c239 -5 429 -22 447 -40 11 -11 255 -787 249 -794 -2 -1 -156 17 -342 42 -187 25 -508 68 -714 96 -393 53 -449 64 -539 110 -117 59 -205 171 -218 278 -17 150 98 240 371 288 92 16 361 32 471 27 33 -1 157 -5 275 -7z m5400 -1041 c590 -80 659 -91 814 -131 346 -87 526 -244 492 -429 -30 -158 -363 -246 -846 -224 -381 17 -611 91 -765 244 -80 79 -124 142 -188 270 -44 87 -107 255 -122 323 -7 33 -7 33 27 28 18 -4 283 -40 588 -81z"/>
 </g>

</svg>