<!DOCTYPE svg PUBLIC "-//W3C//DTD SVG 20010904//EN" "http://www.w3.org/TR/2001/REC-SVG-20010904/DTD/svg10.dtd">
<svg version="1.0" xmlns="http://www.w3.org/2000/svg" width="1200px" height="216px" viewBox="0 0 12000 2160" preserveAspectRatio="xMidYMid meet">
<g id="layer101" fill="#282423" stroke="none">
 <path d="M7718 2153 l-178 -3 0 -124 c0 -68 3 -151 6 -185 l7 -61 749 0 c825 0 800 2 835 -62 14 -26 18 -56 18 -143 0 -97 -3 -115 -23 -151 -48 -82 -17 -78 -637 -85 -476 -5 -558 -8 -610 -23 -196 -55 -318 -185 -360 -384 -37 -172 1 -513 75 -686 25 -60 102 -142 160 -171 94 -48 91 -47 887 -46 414 1 759 4 767 7 14 5 16 32 16 185 l0 178 -722 3 -723 3 -33 23 c-43 31 -70 86 -82 169 -22 153 -6 249 49 304 20 20 54 42 76 48 26 7 189 11 476 11 240 0 483 5 539 10 262 27 395 120 481 335 21 54 24 74 23 215 0 140 -3 164 -28 245 -64 210 -168 322 -342 371 -51 14 -135 17 -654 19 -327 1 -675 0 -772 -2z"/>
 <path d="M10295 2149 c-101 -12 -252 -64 -324 -111 -70 -45 -132 -121 -164 -200 -22 -52 -22 -62 -25 -683 -2 -546 -1 -641 13 -709 40 -198 149 -327 325 -386 82 -28 302 -39 725 -39 411 0 694 13 775 34 150 39 269 136 340 277 l40 80 0 680 0 681 -31 63 c-88 177 -233 280 -444 314 -73 12 -1131 11 -1230 -1z m1264 -397 c19 -9 44 -30 55 -45 21 -28 21 -38 21 -610 0 -664 4 -630 -83 -670 -46 -21 -55 -22 -652 -22 -333 0 -622 4 -642 8 -50 11 -96 51 -107 95 -6 22 -11 264 -11 600 -1 531 0 564 17 595 40 69 16 67 728 67 590 0 643 -1 674 -18z"/>
 <path d="M4388 2134 c-64 -20 -114 -79 -214 -256 -44 -79 -128 -226 -185 -327 -67 -118 -115 -191 -134 -205 -29 -21 -38 -21 -487 -24 l-458 -3 0 408 0 408 -177 -3 c-98 -2 -179 -5 -181 -6 -1 -2 1 -467 4 -1035 l7 -1031 174 0 173 0 0 440 0 440 423 2 c505 3 510 3 540 -17 14 -9 46 -62 78 -128 29 -61 117 -240 196 -397 l141 -286 50 -27 c48 -26 55 -27 211 -27 129 0 161 3 161 14 0 7 -111 236 -247 507 l-248 494 0 75 0 75 111 195 c262 459 396 712 382 721 -22 15 -268 9 -320 -7z"/>
 <path d="M5188 2143 l-157 -4 -7 -47 c-4 -26 -4 -405 -1 -842 7 -872 6 -853 69 -972 62 -116 186 -207 334 -245 63 -16 128 -18 704 -17 698 0 716 2 844 62 119 56 192 143 243 287 l28 80 3 853 3 852 -181 0 -180 0 0 -403 0 -404 -317 -6 c-174 -4 -511 -7 -750 -7 l-433 0 -2 408 c-3 399 -3 407 -23 407 -11 1 -91 -1 -177 -2z m1700 -1420 c-3 -234 -8 -258 -58 -295 -14 -10 -52 -23 -85 -28 -82 -14 -1169 -13 -1217 0 -48 14 -94 53 -117 99 -23 46 -34 183 -25 330 l7 111 749 0 749 0 -3 -217z"/>
 <path d="M1869 2133 c-1 -5 -1 -191 1 -415 l2 -408 -756 0 -756 0 0 410 0 410 -180 0 -181 0 3 -842 c4 -926 1 -883 65 -1016 39 -80 136 -176 215 -211 126 -56 118 -56 828 -56 595 0 661 2 720 18 202 55 319 172 370 373 19 74 20 113 20 911 l0 833 -175 0 c-96 0 -176 -3 -176 -7z m-9 -1408 c0 -227 -5 -252 -58 -297 -17 -14 -54 -31 -82 -37 -33 -7 -245 -11 -613 -11 -586 0 -629 3 -692 44 -45 29 -48 50 -53 284 l-5 222 752 0 751 0 0 -205z"/>
 </g>

</svg>