<!DOCTYPE svg PUBLIC "-//W3C//DTD SVG 20010904//EN" "http://www.w3.org/TR/2001/REC-SVG-20010904/DTD/svg10.dtd">
<svg version="1.0" xmlns="http://www.w3.org/2000/svg" width="1200px" height="260px" viewBox="0 0 12000 2600" preserveAspectRatio="xMidYMid meet">
<g id="layer101" fill="#010101" stroke="none">
<path d="M4210 2561 c-139 -30 -229 -66 -330 -134 -128 -85 -243 -239 -296 -392 -59 -175 -59 -455 1 -631 99 -291 346 -514 643 -580 103 -23 273 -28 375 -12 l87 15 0 -414 0 -413 160 0 160 0 0 1229 0 1229 -72 30 c-161 66 -306 92 -502 91 -95 0 -169 -6 -226 -18z m435 -272 l40 -14 0 -585 0 -584 -45 -14 c-70 -22 -281 -21 -354 2 -254 77 -406 277 -423 556 -9 156 19 283 91 404 75 125 196 211 344 241 83 18 290 14 347 -6z"/>
<path d="M5423 2566 c-90 -29 -145 -83 -181 -178 -15 -39 -17 -153 -20 -1215 l-2 -1173 160 0 159 0 3 1098 c3 988 5 1101 19 1133 22 48 61 63 148 57 l69 -5 18 114 c20 130 25 119 -66 155 -69 27 -242 35 -307 14z"/>
<path d="M6410 2565 c-333 -75 -548 -325 -605 -705 -57 -372 62 -737 297 -915 128 -97 253 -138 418 -137 178 2 316 55 440 169 163 151 250 382 250 667 l0 126 -540 0 -540 0 0 43 c0 56 35 180 68 242 64 119 202 218 340 245 137 27 327 -2 464 -71 32 -16 62 -29 67 -29 5 0 28 46 52 101 l43 101 -24 20 c-54 43 -171 95 -295 130 -95 26 -342 34 -435 13z m460 -1093 c0 -52 -25 -146 -57 -211 -102 -211 -369 -262 -543 -105 -81 73 -140 203 -140 308 l0 46 370 0 370 0 0 -38z"/>
<path d="M0 1275 l0 -1275 160 0 160 0 0 715 c0 393 3 715 8 715 4 0 138 -130 297 -290 l290 -290 200 0 200 0 -105 103 c-58 56 -219 212 -358 346 -139 134 -252 248 -252 253 0 5 152 194 337 421 423 515 463 564 463 571 0 3 -87 6 -193 6 l-194 0 -98 -122 c-54 -68 -209 -260 -344 -428 l-246 -305 -3 428 -2 427 -160 0 -160 0 0 -1275z"/>
<path d="M1420 1700 l0 -850 160 0 160 0 0 850 0 850 -160 0 -160 0 0 -850z"/>
<path d="M2000 1700 l0 -850 138 0 138 0 17 86 c9 48 18 89 21 91 2 2 42 -21 90 -52 231 -151 438 -204 625 -160 187 44 319 189 368 405 15 66 17 147 18 700 l0 625 -162 3 -162 2 -3 -607 -4 -608 -23 -64 c-48 -130 -130 -178 -284 -169 -125 8 -215 50 -389 181 l-68 51 0 608 0 608 -160 0 -160 0 0 -850z"/>
<path d="M1534 520 c-99 -14 -168 -98 -169 -205 0 -79 36 -143 103 -182 127 -75 298 4 318 147 20 145 -102 261 -252 240z"/>
</g>
<g id="layer102" fill="#f7911f" stroke="none">
<path d="M11240 2573 c-317 -53 -536 -263 -627 -599 -25 -90 -27 -116 -27 -289 -1 -206 9 -274 61 -405 70 -177 193 -322 338 -397 92 -47 137 -61 241 -72 267 -30 523 98 651 327 78 140 123 331 123 525 l0 107 -540 0 -540 0 0 48 c0 114 55 243 142 337 171 184 458 207 760 60 21 -10 39 -17 41 -14 2 2 22 49 46 104 l42 100 -23 19 c-64 51 -228 116 -361 141 -73 14 -265 19 -327 8z m420 -1095 c0 -98 -63 -248 -133 -318 -168 -166 -452 -107 -561 116 -26 53 -55 164 -56 212 l0 22 375 0 375 0 0 -32z"/>
<path d="M8097 2543 c-4 -3 -7 -327 -7 -720 l0 -713 -110 0 -110 0 0 -130 0 -130 109 0 108 0 6 -207 c6 -220 17 -281 64 -380 32 -69 111 -155 178 -193 112 -64 286 -86 433 -55 99 20 145 44 137 70 -3 11 -17 66 -32 123 -24 96 -27 103 -47 97 -129 -41 -225 -46 -293 -16 -49 23 -87 76 -102 141 -6 25 -11 129 -11 233 l0 187 221 0 c208 0 220 1 215 18 -4 10 -26 68 -50 128 l-44 109 -171 3 -171 2 0 720 0 720 -158 0 c-87 0 -162 -3 -165 -7z"/>
<path d="M9067 2543 c-4 -3 -7 -386 -7 -850 l0 -843 165 0 165 0 0 850 0 850 -158 0 c-87 0 -162 -3 -165 -7z"/>
<path d="M9667 2544 c-4 -4 -7 -387 -7 -851 l0 -844 137 3 138 3 20 87 20 87 75 -60 c99 -79 178 -123 270 -148 111 -31 208 -24 297 22 l31 17 -60 142 c-34 79 -62 145 -64 147 -2 2 -30 -4 -63 -14 -91 -27 -180 -19 -272 27 -41 20 -101 59 -134 85 l-60 49 -5 624 -5 625 -156 3 c-85 1 -158 -1 -162 -4z"/>
<path d="M9182 520 c-55 -8 -120 -55 -146 -105 -15 -29 -21 -58 -21 -107 0 -58 4 -72 30 -110 78 -111 236 -126 330 -33 43 44 59 85 59 152 0 50 -6 69 -27 102 -53 80 -130 114 -225 101z"/>
</g>


</svg>