<!DOCTYPE svg PUBLIC "-//W3C//DTD SVG 20010904//EN" "http://www.w3.org/TR/2001/REC-SVG-20010904/DTD/svg10.dtd">
<svg version="1.0" xmlns="http://www.w3.org/2000/svg" width="608px" height="124px" viewBox="0 0 6080 1240" preserveAspectRatio="xMidYMid meet">
<g id="layer101" fill="#db3337" stroke="none">
<path d="M4176 1224 c-9 -8 -16 -26 -16 -39 0 -58 -53 -55 960 -55 1013 0 960 -3 960 55 0 58 53 55 -960 55 -831 0 -930 -2 -944 -16z"/>
</g>
<g id="layer102" fill="#3dbb54" stroke="none">
<path d="M5110 1220 c24 -24 25 -38 4 -68 l-15 -22 475 0 c516 0 506 -1 506 55 0 56 10 55 -511 55 l-479 0 20 -20z"/>
</g>
<g id="layer103" fill="#757575" stroke="none">
<path d="M203 854 c-61 -22 -137 -95 -170 -162 -24 -50 -28 -69 -28 -147 0 -78 4 -97 28 -147 34 -70 110 -140 174 -162 89 -31 213 -16 265 31 17 15 18 14 18 -10 0 -27 0 -27 80 -27 l80 0 0 315 0 315 -80 0 c-79 0 -80 0 -80 -25 l0 -25 -41 27 c-34 23 -53 27 -122 30 -56 2 -95 -2 -124 -13z m203 -153 c68 -31 84 -61 84 -153 0 -52 -5 -89 -16 -109 -29 -58 -148 -88 -213 -55 -76 40 -117 133 -91 211 35 105 136 151 236 106z"/>
<path d="M1565 842 c-70 -33 -117 -83 -154 -162 -35 -73 -36 -200 -4 -272 30 -65 95 -133 160 -164 89 -44 223 -33 285 23 17 15 18 11 18 -105 l0 -122 80 0 80 0 0 410 0 410 -80 0 c-80 0 -80 0 -80 -27 0 -25 -1 -25 -19 -9 -31 28 -91 45 -161 46 -51 0 -78 -6 -125 -28z m195 -128 c18 -4 50 -24 71 -44 l39 -37 0 -87 c0 -105 -16 -135 -85 -162 -138 -52 -273 66 -235 205 26 96 108 145 210 125z"/>
<path d="M2634 849 c-74 -28 -137 -88 -175 -165 -27 -55 -32 -76 -32 -138 0 -124 67 -235 178 -294 45 -24 61 -27 150 -27 112 0 151 14 226 82 174 157 114 460 -107 543 -71 26 -171 26 -240 -1z m213 -165 c48 -36 66 -70 71 -131 3 -49 0 -64 -20 -93 -54 -79 -148 -104 -228 -59 -115 65 -103 246 20 298 38 16 127 7 157 -15z"/>
<path d="M3600 861 c-75 -23 -146 -85 -188 -166 -24 -45 -27 -61 -27 -150 0 -115 19 -165 86 -234 66 -69 110 -86 219 -86 82 0 100 3 133 23 l37 24 0 -116 0 -116 80 0 80 0 0 410 0 410 -80 0 c-73 0 -80 -2 -80 -20 0 -11 -1 -20 -2 -20 -2 0 -25 11 -52 25 -39 20 -64 25 -115 24 -36 0 -77 -4 -91 -8z m186 -160 c64 -29 74 -50 74 -161 0 -92 -1 -97 -27 -122 -83 -79 -217 -58 -270 41 -80 153 67 313 223 242z"/>
<path d="M4349 857 c-91 -34 -155 -95 -197 -186 -36 -79 -36 -184 0 -262 33 -73 89 -134 152 -167 44 -23 63 -27 136 -27 104 0 158 22 224 89 72 74 91 124 91 236 0 79 -4 103 -24 143 -31 63 -95 127 -155 157 -60 29 -173 37 -227 17z m177 -116 c110 -50 153 -186 94 -301 -75 -146 -283 -145 -358 3 -42 80 -28 191 31 256 54 58 156 77 233 42z"/>
<path d="M4830 667 c0 -229 9 -278 63 -349 45 -59 141 -108 211 -108 105 0 198 54 254 148 l27 47 3 233 3 232 -50 0 -51 0 0 -209 c0 -124 -4 -221 -11 -238 -36 -95 -156 -141 -247 -94 -90 46 -101 82 -102 339 l0 202 -50 0 -50 0 0 -203z"/>
<path d="M5669 857 c-118 -44 -195 -135 -218 -260 -26 -143 46 -287 181 -359 61 -32 194 -33 254 -1 97 52 152 143 161 268 l6 75 -246 0 -246 0 9 30 c45 156 222 199 339 82 l44 -45 44 22 c23 11 43 25 43 30 0 21 -97 114 -144 138 -62 31 -171 41 -227 20z m261 -402 c0 -22 -33 -76 -63 -102 -47 -41 -111 -52 -171 -29 -48 18 -100 67 -115 109 l-11 27 180 0 c99 0 180 -2 180 -5z"/>
<path d="M720 691 c0 -247 16 -308 102 -392 57 -56 117 -79 207 -79 87 0 151 30 214 99 69 77 77 115 77 348 l0 193 -80 0 -80 0 0 -185 c0 -209 -7 -241 -62 -275 -40 -24 -109 -26 -148 -4 -58 35 -65 60 -68 272 l-4 192 -79 0 -79 0 0 -169z"/>
<path d="M2112 633 c3 -251 6 -261 72 -331 44 -48 101 -74 173 -80 l63 -5 0 76 c0 75 0 77 -27 83 -57 12 -86 28 -104 58 -17 28 -19 53 -19 229 l0 197 -81 0 -80 0 3 -227z"/>
<path d="M3150 545 l0 -315 80 0 80 0 0 315 0 315 -80 0 -80 0 0 -315z"/>
<path d="M3182 173 c-18 -7 -42 -57 -42 -88 0 -16 12 -38 29 -56 37 -37 79 -38 120 -3 64 54 27 155 -56 153 -21 0 -44 -3 -51 -6z"/>
</g>
<g id="layer104" fill="#4883ec" stroke="none">
<path d="M4176 1224 c-9 -8 -16 -26 -16 -39 0 -52 15 -55 234 -55 221 0 239 4 239 55 0 51 -18 55 -239 55 -171 0 -205 -2 -218 -16z"/>
</g>
<g id="layer105" fill="#f3c20c" stroke="none">
<path d="M5110 1220 c24 -24 25 -38 4 -68 l-15 -22 234 0 c255 0 270 3 270 55 0 52 -15 55 -275 55 l-238 0 20 -20z"/>
</g>


</svg>