<!DOCTYPE svg PUBLIC "-//W3C//DTD SVG 20010904//EN" "http://www.w3.org/TR/2001/REC-SVG-20010904/DTD/svg10.dtd">
<svg version="1.0" xmlns="http://www.w3.org/2000/svg" width="50px" height="50px" viewBox="0 0 9770 12000" preserveAspectRatio="xMidYMid meet">
<g id="layer101" fill="#dadada" stroke="none">
 <path d="M2985 11990 c-102 -11 -256 -55 -362 -105 -434 -203 -818 -604 -1404 -1470 -186 -274 -428 -714 -561 -1020 -131 -300 -200 -480 -288 -745 -465 -1398 -492 -2758 -76 -3786 234 -579 599 -1051 1081 -1396 611 -438 1393 -627 2045 -493 215 44 401 104 775 252 354 140 486 184 629 209 213 37 337 8 891 -209 719 -281 1063 -355 1529 -327 826 49 1521 374 2021 945 61 69 185 234 185 245 0 4 -37 33 -82 64 -460 312 -844 782 -1032 1263 -239 612 -233 1325 16 1956 227 576 758 1126 1341 1392 43 19 77 36 77 39 0 2 -23 70 -51 151 -187 541 -476 1114 -798 1580 -30 44 -75 109 -100 145 -554 802 -960 1157 -1456 1272 -144 33 -407 37 -578 8 -163 -28 -342 -86 -597 -195 -478 -203 -643 -244 -1021 -252 -195 -4 -247 -2 -375 16 -276 40 -381 74 -929 301 -217 90 -418 143 -610 159 -132 12 -166 12 -270 1z"/>
 <path d="M4898 2774 c-14 -3 -29 -12 -32 -21 -4 -8 -9 -74 -12 -147 -26 -547 224 -1196 651 -1694 359 -419 914 -751 1451 -867 138 -30 306 -47 316 -32 12 19 21 235 13 334 -33 457 -157 842 -403 1248 -372 615 -998 1060 -1632 1159 -101 16 -307 27 -352 20z"/>
 </g>

</svg>