<!DOCTYPE svg PUBLIC "-//W3C//DTD SVG 20010904//EN" "http://www.w3.org/TR/2001/REC-SVG-20010904/DTD/svg10.dtd">
<svg version="1.0" xmlns="http://www.w3.org/2000/svg" width="600px" height="300px" viewBox="0 0 6000 3000" preserveAspectRatio="xMidYMid meet">
<g id="layer101" fill="#010101" stroke="none">
 <path d="M50 2075 c0 -2 66 -104 148 -227 81 -123 201 -305 267 -405 109 -167 122 -183 145 -178 14 2 96 7 183 11 135 6 157 9 152 22 -3 8 -116 187 -252 398 l-246 384 -198 0 c-110 0 -199 -2 -199 -5z"/>
 <path d="M1090 1685 l0 -395 58 6 c31 3 363 25 737 49 374 25 695 49 713 54 44 13 112 53 139 83 12 12 33 43 47 68 l26 45 0 -168 0 -169 158 7 c86 4 160 9 165 12 4 2 7 103 7 223 l0 218 31 26 31 26 269 0 c222 0 275 -3 299 -15 17 -9 31 -17 32 -18 1 -1 4 -96 7 -212 l6 -210 145 3 c80 2 153 6 163 8 15 5 17 24 17 220 l0 214 534 0 c319 0 545 -4 560 -10 34 -13 45 -56 20 -81 -17 -16 -61 -21 -420 -44 -437 -27 -471 -33 -559 -96 -53 -38 -112 -120 -121 -168 l-7 -34 129 6 c71 4 323 16 559 27 237 11 453 25 481 30 58 12 141 65 178 113 53 69 70 125 70 227 0 77 -4 104 -22 144 -34 75 -84 129 -154 167 l-63 34 -597 3 -598 3 0 -118 0 -118 -24 51 c-29 63 -81 116 -149 152 l-52 27 -411 3 c-402 3 -412 2 -470 -19 -89 -33 -194 -144 -194 -204 0 -28 -15 -15 -33 30 -27 64 -89 130 -155 162 l-57 28 -747 3 -748 2 0 -395z m1418 59 c26 -18 29 -56 6 -78 -8 -9 -16 -16 -17 -16 -1 0 -179 -11 -396 -25 -427 -27 -456 -32 -546 -91 -52 -34 -86 -73 -117 -134 -17 -35 -17 -33 -18 156 0 105 3 194 7 197 3 4 243 7 532 7 460 0 529 -2 549 -16z"/>
 <path d="M600 1245 c0 -3 45 -75 101 -160 l101 -155 309 0 309 0 0 113 1 112 20 -41 c30 -63 81 -116 140 -149 l54 -30 568 -3 568 -3 -3 158 -3 158 -1082 3 c-596 1 -1083 0 -1083 -3z"/>
 <path d="M2810 1090 l0 -160 165 0 165 0 0 160 0 160 -165 0 -165 0 0 -160z"/>
 <path d="M3817 1243 c-4 -3 -7 -75 -7 -160 l0 -153 165 0 165 0 0 133 1 132 18 -53 c24 -68 83 -137 151 -176 l55 -31 603 -3 603 -3 -3 158 -3 158 -871 3 c-479 1 -874 -1 -877 -5z"/>
 <path d="M5735 1202 c-76 -36 -105 -119 -65 -189 27 -50 66 -73 120 -73 81 0 140 57 140 135 0 103 -102 170 -195 127z m138 -52 c55 -62 28 -157 -52 -181 -94 -28 -172 72 -126 161 35 67 127 77 178 20z"/>
 <path d="M5736 1153 c-3 -3 -6 -39 -6 -80 l0 -73 44 0 c66 0 94 34 59 72 -15 17 -15 20 5 48 15 20 18 31 10 36 -6 4 -19 -3 -30 -17 -32 -42 -39 -49 -48 -49 -6 0 -10 13 -10 29 0 30 -12 46 -24 34z m73 -92 c19 -12 4 -31 -25 -31 -17 0 -24 5 -24 20 0 21 24 27 49 11z"/>
 </g>

</svg>