<!DOCTYPE svg PUBLIC "-//W3C//DTD SVG 20010904//EN" "http://www.w3.org/TR/2001/REC-SVG-20010904/DTD/svg10.dtd">
<svg version="1.0" xmlns="http://www.w3.org/2000/svg" width="1200px" height="184px" viewBox="0 0 12000 1840" preserveAspectRatio="xMidYMid meet">
<g id="layer101" fill="#022f87" stroke="none">
 <path d="M2563 1830 c-169 -31 -264 -112 -308 -264 -37 -127 -2 -258 93 -353 90 -87 204 -138 452 -198 230 -56 283 -73 323 -106 95 -78 57 -203 -72 -239 -53 -14 -182 -12 -291 5 -76 13 -260 62 -334 91 -11 4 -11 -5 -1 -53 7 -32 16 -88 20 -125 l6 -66 47 -11 c176 -40 279 -53 452 -58 141 -4 206 -2 272 10 205 36 315 131 334 288 3 30 -1 158 -10 284 -13 187 -35 657 -36 753 l0 22 -185 0 -185 0 0 -32 c0 -18 4 -80 10 -138 9 -98 30 -503 26 -507 -1 -1 -28 11 -61 27 -33 17 -116 46 -185 65 -238 67 -332 135 -332 238 0 150 168 203 419 131 l22 -6 -19 58 c-11 33 -27 84 -35 115 -13 48 -20 58 -43 63 -50 11 -327 15 -379 6z"/>
 <path d="M4215 1829 c-141 -21 -265 -85 -349 -181 -59 -68 -89 -126 -122 -233 -23 -79 -26 -108 -27 -235 -1 -119 3 -160 22 -230 66 -254 211 -414 432 -477 93 -26 460 -24 569 3 l75 19 6 65 c22 226 22 233 2 225 -48 -19 -216 -55 -283 -61 -80 -6 -183 11 -242 42 -50 26 -128 105 -154 156 -68 135 -70 348 -5 477 35 68 111 122 206 147 97 26 284 12 403 -30 l42 -15 -1 32 c0 18 -11 84 -22 147 l-22 114 -44 13 c-102 29 -356 41 -486 22z"/>
 <path d="M8960 1830 c-127 -17 -235 -66 -318 -144 -131 -123 -192 -285 -192 -511 0 -354 161 -610 440 -697 68 -21 93 -23 280 -23 165 0 221 4 286 19 45 10 86 21 91 25 9 6 29 291 20 291 -2 0 -29 -9 -59 -19 -65 -22 -224 -51 -283 -51 -52 0 -147 25 -203 53 -24 11 -61 41 -83 65 -38 41 -89 132 -89 160 0 9 79 12 361 12 l361 0 -7 118 c-4 64 -9 120 -12 125 -2 4 -166 7 -364 7 l-359 0 6 28 c35 143 105 218 240 258 76 22 245 15 362 -16 46 -12 86 -20 88 -17 4 4 -17 137 -42 264 -3 17 -15 24 -57 32 -137 29 -340 38 -467 21z"/>
 <path d="M5 1748 c25 -291 26 -313 55 -1028 6 -140 10 -355 10 -477 l0 -223 494 0 c548 0 589 4 698 62 69 37 118 89 155 168 36 75 44 229 18 326 -34 125 -127 231 -250 284 l-50 22 55 17 c68 21 102 42 163 100 83 78 120 176 120 311 0 228 -130 399 -353 464 -85 25 -298 36 -728 36 l-393 0 6 -62z m908 -228 c115 -44 171 -126 171 -255 0 -106 -37 -166 -134 -216 -43 -23 -56 -24 -287 -27 l-243 -4 -1 79 c0 43 -4 159 -9 258 -4 99 -5 184 -2 189 3 5 101 7 226 3 196 -4 228 -7 279 -27z m-23 -785 c67 -21 143 -93 159 -152 15 -53 14 -147 -3 -186 -20 -49 -77 -93 -136 -106 -28 -6 -142 -11 -254 -11 l-203 0 -6 137 c-4 75 -7 183 -7 241 l0 105 198 -6 c146 -3 211 -9 252 -22z"/>
 <path d="M1670 1788 c0 -13 7 -117 15 -233 20 -286 50 -928 61 -1307 l7 -228 194 0 195 0 -5 43 c-17 125 -68 1183 -80 1652 l-2 90 -192 3 -193 2 0 -22z"/>
 <path d="M4960 1793 c0 -10 7 -108 15 -218 24 -333 55 -1120 55 -1396 l0 -159 190 0 c105 0 190 4 190 8 0 5 -6 109 -14 233 -32 494 -56 1085 -56 1356 l0 193 -190 0 c-174 0 -190 -1 -190 -17z"/>
 <path d="M5799 1693 c-41 -65 -99 -154 -130 -198 -218 -312 -289 -418 -289 -431 0 -7 64 -91 143 -186 78 -95 180 -224 228 -287 l85 -113 207 -2 c114 0 207 3 207 7 0 5 -71 90 -157 189 -216 247 -333 385 -333 393 0 14 162 245 387 552 73 99 133 184 133 187 0 3 -92 6 -204 6 l-204 0 -73 -117z"/>
 <path d="M6795 1798 c-3 -7 -34 -98 -69 -203 -75 -220 -141 -408 -336 -955 -28 -80 -52 -149 -53 -153 -1 -5 83 -8 187 -8 146 0 191 3 197 13 6 11 95 296 134 428 31 104 155 506 161 520 7 18 1 33 100 -220 42 -107 95 -244 119 -305 24 -60 69 -175 100 -255 30 -80 59 -153 63 -163 7 -17 23 -19 200 -20 106 -1 192 1 192 5 0 6 -26 65 -83 188 -79 171 -112 246 -249 555 -164 373 -174 396 -221 505 l-32 75 -203 3 c-157 2 -204 0 -207 -10z"/>
 <path d="M7870 1808 c0 -2 9 -118 20 -258 11 -140 25 -426 30 -635 6 -209 12 -393 13 -409 l2 -28 193 -2 194 -1 -7 105 c-3 58 -11 161 -16 230 -8 100 -28 763 -29 958 l0 42 -200 0 c-110 0 -200 -1 -200 -2z"/>
 <path d="M10107 1803 c-2 -5 -39 -111 -80 -238 -42 -126 -111 -329 -152 -450 -42 -121 -85 -247 -96 -280 -11 -33 -42 -121 -69 -195 -27 -74 -50 -141 -52 -148 -4 -20 342 -19 353 0 6 11 120 375 174 558 83 277 121 388 127 375 5 -7 33 -85 64 -172 72 -204 187 -532 229 -653 18 -52 36 -102 39 -110 5 -13 35 -15 188 -13 137 1 183 5 189 15 4 7 25 83 48 168 75 290 100 385 136 520 19 74 40 155 46 180 6 25 13 52 16 60 2 8 19 -23 37 -70 18 -47 49 -125 68 -175 189 -486 195 -503 239 -620 l29 -80 175 0 c110 0 175 4 175 10 0 6 -110 262 -244 570 -134 308 -261 603 -283 655 l-40 95 -189 0 -189 0 -114 -457 c-63 -252 -118 -458 -122 -458 -8 0 -8 2 -82 210 -31 85 -100 279 -155 430 l-99 275 -181 3 c-99 1 -183 -1 -185 -5z"/>
 <path d="M7942 133 l3 -127 192 0 193 -1 0 36 c0 20 -3 77 -6 127 l-7 92 -189 0 -189 0 3 -127z"/>
 </g>

</svg>