<!DOCTYPE svg PUBLIC "-//W3C//DTD SVG 20010904//EN" "http://www.w3.org/TR/2001/REC-SVG-20010904/DTD/svg10.dtd">
<svg version="1.0" xmlns="http://www.w3.org/2000/svg" width="1200px" height="210px" viewBox="0 0 12000 2100" preserveAspectRatio="xMidYMid meet">
<g id="layer101" fill="#000000" stroke="none">
 <path d="M10873 2058 c13 -24 74 -129 136 -235 l111 -192 -80 -492 c-44 -271 -80 -497 -81 -503 -1 -6 -13 43 -28 109 l-26 120 -75 6 c-111 8 -169 47 -208 139 -11 25 -50 188 -88 363 l-68 317 -128 0 c-96 0 -128 -3 -128 -12 0 -27 139 -655 155 -703 61 -179 181 -292 362 -341 40 -11 124 -17 278 -21 l220 -6 44 334 c24 184 46 339 50 346 3 7 95 -142 203 -330 l197 -342 141 -3 c80 -1 140 1 138 6 -1 5 -198 341 -436 746 l-434 736 -140 0 -140 0 25 -42z"/>
 <path d="M3655 1696 c-93 -30 -161 -90 -183 -165 -17 -56 -14 -174 7 -271 9 -47 60 -280 111 -517 l94 -433 131 0 131 0 -108 498 c-116 532 -124 577 -114 616 9 36 54 56 126 56 33 0 60 3 60 7 0 3 -10 52 -22 109 -18 86 -25 103 -42 108 -37 10 -150 5 -191 -8z"/>
 <path d="M4203 1689 c-154 -49 -251 -197 -224 -343 34 -185 170 -266 546 -325 157 -24 203 -39 229 -74 18 -25 18 -27 2 -52 -27 -42 -79 -58 -166 -53 -82 5 -164 40 -200 85 -17 22 -24 23 -164 23 -80 0 -146 -3 -146 -7 0 -24 71 -126 121 -175 123 -121 321 -177 520 -149 146 21 238 78 279 173 36 82 31 147 -30 423 -48 214 -54 253 -54 358 l0 117 -133 0 -133 0 0 -50 0 -49 -57 40 c-110 77 -260 99 -390 58z m304 -235 c69 -24 129 -68 157 -117 28 -48 52 -124 43 -133 -4 -4 -72 3 -153 15 -220 33 -304 72 -304 141 0 42 15 67 53 90 40 25 137 27 204 4z"/>
 <path d="M5473 1695 c-221 -48 -362 -237 -363 -486 0 -262 166 -497 405 -572 92 -29 269 -30 360 -3 182 55 302 184 313 338 l4 58 -141 0 c-112 0 -141 -3 -141 -13 0 -8 -14 -33 -31 -56 -88 -122 -294 -122 -403 -1 -135 150 -117 388 36 464 64 32 152 35 213 7 39 -17 115 -91 115 -111 0 -6 57 -10 151 -10 l150 0 -6 23 c-19 69 -82 174 -135 227 -125 125 -331 178 -527 135z"/>
 <path d="M8865 1700 c-242 -52 -384 -239 -385 -505 -1 -358 302 -624 656 -577 305 41 472 291 407 612 l-5 30 -399 0 -399 0 6 28 c13 50 22 70 56 107 47 54 98 75 186 75 84 0 124 -14 180 -64 l39 -36 147 0 146 0 -31 62 c-37 73 -135 175 -199 208 -90 46 -152 62 -260 65 -58 2 -123 0 -145 -5z m415 -689 c0 -36 -35 -89 -79 -118 -129 -87 -320 -36 -399 106 l-23 41 250 0 251 0 0 -29z"/>
 <path d="M2535 1674 c-32 -8 -78 -26 -101 -39 -57 -34 -119 -106 -138 -162 -31 -91 -23 -155 89 -670 58 -266 105 -486 105 -489 0 -2 136 -4 303 -4 239 0 315 3 362 15 131 34 213 96 258 194 33 70 30 177 -6 256 -34 74 -106 144 -181 176 -31 13 -55 26 -55 29 0 3 21 19 47 35 60 39 98 94 118 175 42 168 -50 342 -230 430 -48 24 -113 46 -159 55 -101 19 -331 18 -412 -1z m405 -266 c81 -37 120 -90 120 -163 0 -52 -22 -87 -72 -115 -41 -24 -53 -25 -218 -28 l-175 -3 -33 158 c-18 87 -33 162 -32 166 0 5 84 7 188 5 143 -3 195 -8 222 -20z m126 -595 c77 -41 107 -131 63 -187 -41 -52 -70 -60 -250 -64 l-166 -4 -6 28 c-3 16 -17 80 -31 142 l-24 114 186 -4 c170 -3 191 -5 228 -25z"/>
 <path d="M6184 1667 c3 -13 46 -213 96 -443 49 -231 114 -529 143 -664 l53 -245 133 -3 133 -3 -5 23 c-6 22 -131 604 -143 661 -3 15 -3 27 0 27 3 0 107 -92 232 -205 l226 -205 179 0 c98 0 179 2 179 4 0 2 -119 104 -265 226 -146 123 -265 226 -265 229 0 3 70 144 156 314 l155 307 -146 0 -146 0 -110 -227 c-60 -125 -112 -229 -114 -231 -2 -3 -39 24 -82 60 l-78 64 -35 165 -36 164 -133 3 -133 3 6 -24z"/>
 <path d="M7562 1680 c-158 -33 -263 -145 -278 -296 -5 -47 2 -97 35 -249 23 -104 72 -332 110 -505 l68 -315 293 -3 c167 -1 317 2 348 8 184 34 302 155 302 310 0 37 -8 91 -17 120 -24 75 -106 161 -190 201 l-64 31 31 16 c44 24 98 80 124 127 17 33 21 57 21 140 0 90 -3 106 -29 160 -54 110 -172 200 -316 241 -65 19 -371 28 -438 14z m400 -283 c96 -47 135 -145 86 -217 -43 -64 -80 -75 -275 -78 -95 -2 -173 -1 -173 2 0 9 -60 289 -66 309 -6 18 4 18 183 15 182 -3 190 -4 245 -31z m75 -572 c93 -28 142 -110 106 -183 -31 -63 -71 -76 -259 -80 -151 -4 -162 -3 -168 14 -5 19 -56 252 -56 260 0 2 73 4 163 4 117 0 178 -4 214 -15z"/>
 <path d="M9592 1648 c5 -24 38 -176 73 -338 35 -162 73 -320 84 -351 63 -168 200 -294 357 -329 48 -11 251 -16 261 -6 3 2 -7 56 -21 120 -14 63 -26 117 -26 118 0 2 -37 3 -83 3 -94 1 -145 21 -192 77 -46 54 -60 101 -131 431 l-69 317 -131 0 -132 0 10 -42z"/>
 <path d="M606 1384 c4 -16 22 -94 39 -174 l31 -145 158 -3 c91 -1 174 2 197 8 56 15 108 66 116 112 14 89 -28 159 -119 198 -47 21 -73 24 -241 28 l-188 5 7 -29z"/>
 <path d="M1343 1179 c4 -13 21 -93 39 -177 l32 -154 180 4 c199 3 224 10 270 71 46 62 18 176 -53 224 -55 37 -97 44 -290 50 l-184 6 6 -24z"/>
 <path d="M3 849 c3 -13 20 -93 38 -176 l32 -153 161 0 c183 0 227 9 272 54 55 55 54 149 -2 215 -46 55 -115 72 -323 78 l-184 6 6 -24z"/>
 <path d="M710 854 c0 -18 54 -276 66 -317 5 -17 19 -18 182 -15 198 3 238 14 273 72 22 37 25 103 5 150 -18 42 -77 91 -130 106 -22 6 -121 14 -218 17 -170 6 -178 5 -178 -13z"/>
 <path d="M1466 543 c13 -60 29 -136 36 -170 l11 -63 171 0 c187 0 225 9 275 63 54 59 28 184 -48 234 -55 37 -96 43 -287 43 l-181 0 23 -107z"/>
 <path d="M117 239 c13 -63 30 -141 37 -174 l12 -60 179 0 c172 0 182 1 222 24 91 52 99 176 17 253 -53 49 -102 60 -305 65 l-187 6 25 -114z"/>
 <path d="M803 329 c3 -13 20 -93 38 -177 l32 -154 176 4 c152 3 181 6 215 23 58 29 80 65 80 128 0 86 -51 150 -143 178 -20 6 -119 13 -220 16 l-184 6 6 -24z"/>
 </g>

</svg>