<!DOCTYPE svg PUBLIC "-//W3C//DTD SVG 20010904//EN" "http://www.w3.org/TR/2001/REC-SVG-20010904/DTD/svg10.dtd">
<svg version="1.0" xmlns="http://www.w3.org/2000/svg" width="1200px" height="227px" viewBox="0 0 12000 2270" preserveAspectRatio="xMidYMid meet">
<g id="layer101" fill="#ff6b00" stroke="none">
 <path d="M5610 2245 c-204 -31 -372 -99 -503 -204 -142 -113 -195 -223 -217 -456 -6 -64 -10 -411 -10 -837 l0 -728 249 0 250 0 4 737 c4 815 3 802 69 925 48 91 129 147 258 179 85 21 358 18 435 -5 162 -49 239 -128 282 -288 15 -56 17 -151 20 -806 l4 -742 252 2 252 3 3 615 c5 1037 -12 1180 -160 1336 -51 54 -162 136 -234 172 -61 31 -158 62 -264 84 -128 27 -547 34 -690 13z"/>
 <path d="M896 2239 c-176 -19 -296 -59 -420 -140 -246 -162 -378 -390 -417 -723 -17 -146 -6 -496 19 -611 40 -182 129 -359 234 -466 120 -122 289 -215 454 -252 95 -21 120 -22 669 -22 l570 0 0 190 0 190 -480 5 -480 6 -82 27 c-196 66 -296 185 -333 399 -30 165 -21 511 16 655 45 174 159 283 359 339 51 15 131 18 530 23 l470 6 0 190 0 190 -515 1 c-283 1 -551 -2 -594 -7z"/>
 <path d="M2380 1135 l0 -1115 255 0 255 0 0 450 0 450 550 0 550 0 2 -447 3 -448 253 -3 252 -2 0 1115 0 1115 -252 -2 -253 -3 -3 -462 -2 -463 -550 0 -550 0 0 465 0 465 -255 0 -255 0 0 -1115z"/>
 <path d="M8117 2218 c-8 -18 -37 -98 -65 -178 -138 -389 -278 -783 -337 -945 -187 -523 -375 -1057 -375 -1067 0 -4 120 -8 268 -8 l267 0 104 323 c57 177 143 444 191 592 49 149 125 384 170 524 45 139 83 251 85 250 1 -2 37 -132 80 -289 42 -157 117 -431 165 -610 49 -179 116 -430 151 -558 l62 -232 295 2 295 3 34 120 c19 66 67 244 107 395 40 151 103 383 139 515 36 132 89 328 118 435 28 107 55 201 58 208 6 10 177 -509 498 -1511 l54 -167 270 0 270 0 -6 23 c-4 12 -41 116 -82 232 -41 116 -112 316 -158 445 -46 129 -129 363 -185 520 -56 157 -139 391 -185 520 -80 225 -155 435 -170 473 -7 16 -31 17 -314 17 l-307 0 -58 -222 c-32 -123 -75 -286 -96 -363 -21 -77 -62 -228 -90 -335 -100 -385 -183 -685 -190 -693 -3 -4 -37 106 -74 245 -37 139 -112 420 -166 623 -54 204 -121 453 -147 555 l-49 185 -307 3 -307 2 -13 -32z"/>
 <path d="M11400 1135 l0 -1115 265 0 265 0 0 1115 0 1115 -265 0 -265 0 0 -1115z"/>
 </g>

</svg>