<!DOCTYPE svg PUBLIC "-//W3C//DTD SVG 20010904//EN" "http://www.w3.org/TR/2001/REC-SVG-20010904/DTD/svg10.dtd">
<svg version="1.0" xmlns="http://www.w3.org/2000/svg" width="400px" height="300px" viewBox="0 0 4000 3000" preserveAspectRatio="xMidYMid meet">
<g id="layer101" fill="#1f1b1c" stroke="none">
<path d="M1768 1750 c-92 -28 -140 -95 -139 -195 1 -187 189 -308 351 -225 37 19 80 67 80 88 0 6 -16 16 -35 22 -33 11 -37 10 -65 -19 -54 -53 -138 -51 -193 7 -34 36 -47 72 -47 133 0 42 5 55 28 79 43 43 95 49 153 18 l47 -25 33 20 32 21 -36 31 c-57 49 -138 66 -209 45z"/>
<path d="M2196 1746 c-47 -18 -94 -61 -112 -103 -24 -56 -18 -143 14 -204 88 -168 327 -183 409 -25 35 67 10 201 -50 264 -63 68 -179 98 -261 68z m163 -94 c49 -36 71 -80 71 -142 0 -68 -22 -102 -76 -120 -69 -23 -151 16 -180 87 -19 45 -18 123 2 152 36 51 129 63 183 23z"/>
<path d="M2645 1738 c-2 -7 -18 -96 -35 -198 -17 -102 -34 -195 -37 -208 -5 -22 -3 -23 43 -20 l49 3 25 165 26 164 98 -167 98 -167 49 0 c27 0 49 2 49 5 0 2 -59 101 -131 220 l-131 215 -49 0 c-31 0 -51 -5 -54 -12z"/>
<path d="M2992 1733 c3 -10 24 -109 48 -220 l44 -203 43 0 c24 0 43 3 43 7 0 4 -21 103 -47 220 l-47 213 -44 0 c-37 0 -44 -3 -40 -17z"/>
<path d="M3160 1745 c0 -3 59 -103 131 -221 l132 -215 51 3 51 3 31 180 c17 99 35 197 39 218 l7 37 -51 0 c-47 0 -51 -2 -51 -24 0 -53 -6 -56 -104 -56 l-92 0 -23 40 c-21 38 -24 40 -72 40 -27 0 -49 -2 -49 -5z m317 -192 c-3 -21 -9 -62 -13 -91 l-7 -53 -34 58 c-19 32 -44 73 -55 91 l-20 32 67 0 68 0 -6 -37z"/>
</g>
<g id="layer102" fill="#31347a" stroke="none">
<path d="M780 1929 c-73 -14 -145 -56 -199 -114 -145 -159 -128 -409 38 -576 166 -166 410 -183 573 -39 49 42 102 134 113 193 l7 37 -65 0 c-63 0 -65 -1 -77 -30 -24 -57 -66 -105 -121 -135 -71 -39 -167 -41 -246 -6 -66 29 -143 110 -169 176 -25 65 -25 190 -1 262 26 73 87 154 151 198 31 21 56 40 56 42 0 4 -2 3 -60 -8z"/>
<path d="M1063 1740 c26 -23 61 -62 78 -86 29 -43 31 -44 84 -44 67 0 71 13 18 71 -44 49 -116 87 -181 96 l-47 6 48 -43z"/>
</g>
<g id="layer103" fill="#4e759c" stroke="none">
<path d="M920 1924 c-198 -53 -322 -266 -266 -459 24 -82 109 -166 189 -190 32 -9 67 -15 79 -13 19 3 17 6 -19 31 -86 59 -140 173 -130 276 16 185 205 290 381 212 54 -24 126 -88 152 -136 18 -34 20 -35 82 -35 l64 0 -7 27 c-21 85 -128 203 -227 252 -104 51 -198 62 -298 35z"/>
<path d="M773 1894 l-28 -25 33 22 c17 13 32 24 32 26 0 8 -11 1 -37 -23z"/>
<path d="M678 1894 c-39 -21 -35 -28 5 -8 37 19 44 24 31 24 -5 -1 -21 -8 -36 -16z"/>
<path d="M590 1825 c-24 -25 -42 -45 -39 -45 3 0 25 20 49 45 24 25 42 45 39 45 -3 0 -25 -20 -49 -45z"/>
<path d="M703 1833 c-31 -40 -53 -76 -36 -58 20 21 74 95 70 95 -3 0 -18 -17 -34 -37z"/>
<path d="M1024 1771 c5 -8 56 -3 56 5 0 2 -14 4 -31 4 -16 0 -28 -4 -25 -9z"/>
<path d="M525 1739 c-9 -17 -15 -33 -13 -35 3 -2 12 12 21 31 21 43 13 47 -8 4z"/>
<path d="M1085 1720 c21 -22 41 -40 44 -40 3 0 -13 18 -34 40 -21 22 -41 40 -44 40 -3 0 13 -18 34 -40z"/>
<path d="M1813 1753 c15 -2 37 -2 50 0 12 2 0 4 -28 4 -27 0 -38 -2 -22 -4z"/>
<path d="M2253 1753 c15 -2 37 -2 50 0 12 2 0 4 -28 4 -27 0 -38 -2 -22 -4z"/>
<path d="M2643 1735 c-3 -9 -3 -19 1 -22 3 -4 6 2 6 11 0 15 8 17 54 14 30 -1 52 0 49 5 -2 4 -27 7 -54 7 -35 0 -51 -4 -56 -15z"/>
<path d="M2990 1733 c0 -14 2 -15 9 -4 6 9 21 12 45 9 20 -2 36 0 36 4 0 4 -20 8 -45 8 -36 0 -45 -3 -45 -17z"/>
<path d="M3160 1743 c0 -5 24 -8 54 -8 30 0 52 3 49 8 -2 4 -26 7 -54 7 -27 0 -49 -3 -49 -7z"/>
<path d="M3501 1728 c1 -17 2 -19 6 -5 3 12 15 17 43 17 28 0 40 -5 43 -17 4 -14 5 -12 6 5 1 20 -3 22 -49 22 -46 0 -50 -2 -49 -22z"/>
<path d="M1197 1714 c18 -13 44 -39 58 -57 15 -18 22 -23 16 -11 -11 22 -86 94 -99 94 -4 0 7 -12 25 -26z"/>
<path d="M2420 1707 c0 -2 15 -16 33 -33 l32 -29 -29 33 c-28 30 -36 37 -36 29z"/>
<path d="M3490 1682 c0 -8 -31 -13 -97 -14 l-98 -2 94 -3 c87 -4 126 5 108 24 -4 3 -7 1 -7 -5z"/>
<path d="M1198 1613 c18 -2 45 -2 60 0 15 2 0 4 -33 4 -33 0 -45 -2 -27 -4z"/>
<path d="M483 1555 c0 -33 2 -45 4 -27 2 18 2 45 0 60 -2 15 -4 0 -4 -33z"/>
<path d="M603 1560 c0 -25 2 -35 4 -22 2 12 2 32 0 45 -2 12 -4 2 -4 -23z"/>
<path d="M1713 1555 c0 -27 2 -38 4 -22 2 15 2 37 0 50 -2 12 -4 0 -4 -28z"/>
<path d="M3417 1593 c47 -3 63 -8 67 -21 4 -13 4 -12 3 3 -2 18 -10 20 -67 21 l-65 0 62 -3z"/>
<path d="M2153 1555 c0 -22 2 -30 4 -17 2 12 2 30 0 40 -3 9 -5 -1 -4 -23z"/>
<path d="M2433 1505 c0 -27 2 -38 4 -22 2 15 2 37 0 50 -2 12 -4 0 -4 -28z"/>
<path d="M621 1452 c-1 -14 27 -72 35 -72 2 0 -2 12 -9 28 -8 15 -17 34 -20 42 -4 10 -6 11 -6 2z"/>
<path d="M1237 1423 c48 -3 63 -8 66 -21 3 -12 5 -11 6 6 1 21 -2 22 -66 20 l-68 -2 62 -3z"/>
<path d="M1345 1418 c-2 -7 -9 -31 -16 -53 -6 -22 -21 -58 -31 -79 -26 -51 -111 -141 -148 -156 -32 -13 -42 -35 -12 -26 9 2 33 8 52 11 55 11 147 64 186 108 38 42 80 122 90 175 l7 32 -62 0 c-41 0 -63 -4 -66 -12z"/>
<path d="M1670 1407 c0 -2 15 -16 33 -33 l32 -29 -29 33 c-28 30 -36 37 -36 29z"/>
<path d="M1147 1357 l-17 -32 20 24 c17 20 26 41 18 41 -2 0 -11 -15 -21 -33z"/>
<path d="M700 1328 c41 -45 50 -53 50 -45 0 2 -21 23 -47 47 l-48 45 45 -47z"/>
<path d="M2660 1337 c0 -13 -9 -17 -39 -17 -22 0 -42 5 -44 13 -3 7 -6 5 -6 -5 -1 -15 8 -18 44 -18 32 0 47 5 52 15 3 9 3 19 -1 22 -3 4 -6 -1 -6 -10z"/>
<path d="M3160 1335 c0 -19 -66 -21 -73 -2 -3 7 -6 5 -6 -5 -1 -15 8 -18 44 -18 38 0 45 3 45 20 0 11 -2 20 -5 20 -3 0 -5 -7 -5 -15z"/>
<path d="M3520 1336 c0 -15 -8 -17 -54 -14 -30 1 -52 0 -49 -4 2 -5 27 -8 54 -8 35 0 51 4 56 15 3 9 3 19 -1 22 -3 4 -6 -2 -6 -11z"/>
<path d="M2907 1318 c2 -5 26 -8 54 -8 27 0 49 3 49 8 0 4 -24 7 -54 7 -30 0 -52 -3 -49 -7z"/>
<path d="M1858 1303 c12 -2 30 -2 40 0 9 3 -1 5 -23 4 -22 0 -30 -2 -17 -4z"/>
<path d="M2298 1303 c12 -2 30 -2 40 0 9 3 -1 5 -23 4 -22 0 -30 -2 -17 -4z"/>
<path d="M1045 1264 c-22 -13 -35 -24 -30 -24 12 0 75 38 75 45 0 6 2 7 -45 -21z"/>
<path d="M615 1240 c21 -22 41 -40 44 -40 3 0 -13 18 -34 40 -21 22 -41 40 -44 40 -3 0 13 -18 34 -40z"/>
<path d="M760 1275 c0 -10 83 -45 105 -44 11 0 2 6 -20 13 -22 7 -50 18 -62 25 -13 6 -23 9 -23 6z"/>
<path d="M1199 1213 l-34 -38 38 34 c34 33 42 41 34 41 -2 0 -19 -17 -38 -37z"/>
<path d="M908 1103 c18 -2 45 -2 60 0 15 2 0 4 -33 4 -33 0 -45 -2 -27 -4z"/>
</g>


</svg>