<!DOCTYPE svg PUBLIC "-//W3C//DTD SVG 20010904//EN" "http://www.w3.org/TR/2001/REC-SVG-20010904/DTD/svg10.dtd">
<svg version="1.0" xmlns="http://www.w3.org/2000/svg" width="512px" height="157px" viewBox="0 0 5120 1570" preserveAspectRatio="xMidYMid meet">
<g id="layer101" fill="#0083ca" stroke="none">
 <path d="M1837 1300 c-219 -149 -400 -270 -402 -270 -2 0 -9 17 -16 38 -50 156 -174 294 -327 364 -124 56 -164 61 -542 62 l-345 1 -3 -669 -2 -668 352 5 c394 5 425 9 558 75 128 63 248 196 300 332 7 19 14 36 16 38 1 2 181 -112 400 -254 220 -141 405 -259 412 -262 13 -5 302 184 302 197 0 4 -142 98 -315 210 l-316 203 48 31 c27 17 51 30 55 29 4 -1 146 -90 315 -198 169 -108 313 -198 319 -201 16 -6 287 178 277 188 -5 5 -147 100 -317 212 l-308 204 52 30 53 31 121 -77 c67 -43 212 -135 324 -206 l202 -129 0 -228 0 -228 240 0 240 0 0 455 0 455 210 0 210 0 0 215 0 215 -450 0 -450 0 0 -219 0 -220 -394 255 c-217 140 -401 254 -408 254 -7 0 -192 -122 -411 -270z m-953 -258 c83 -37 133 -136 123 -244 -6 -73 -40 -134 -95 -173 -41 -28 -51 -30 -148 -33 l-104 -4 0 243 0 242 90 -6 c56 -3 106 -13 134 -25z"/>
 <path d="M4065 1488 c-3 -7 -4 -308 -3 -668 l3 -655 243 -3 242 -2 0 455 0 455 210 0 210 0 -2 213 -3 212 -448 3 c-353 2 -449 0 -452 -10z"/>
 </g>

</svg>