<!DOCTYPE svg PUBLIC "-//W3C//DTD SVG 20010904//EN" "http://www.w3.org/TR/2001/REC-SVG-20010904/DTD/svg10.dtd">
<svg version="1.0" xmlns="http://www.w3.org/2000/svg" width="1200px" height="504px" viewBox="0 0 12000 5040" preserveAspectRatio="xMidYMid meet">
<g id="layer101" fill="#000000" stroke="none">
 <path d="M10330 4963 c-83 -41 -191 -178 -231 -294 -43 -123 -37 -339 17 -576 35 -157 135 -451 225 -660 l78 -183 -29 -63 c-52 -115 -64 -179 -63 -327 1 -146 12 -205 72 -371 40 -109 138 -285 221 -397 85 -115 266 -297 305 -306 47 -12 58 12 52 112 -4 73 -10 95 -52 180 -25 53 -78 152 -116 219 -139 243 -193 395 -187 525 l3 61 58 -87 c303 -456 626 -774 842 -831 74 -19 108 -19 171 0 69 20 124 71 167 153 56 106 71 182 70 352 -1 175 -26 290 -98 436 -112 231 -367 489 -571 580 -112 49 -282 72 -386 51 -36 -8 -37 -7 -58 40 -30 68 -147 399 -181 514 -57 190 -135 558 -164 774 -15 109 -60 139 -145 98z m830 -1884 c36 -11 107 -41 159 -65 211 -102 380 -346 398 -573 10 -132 -28 -180 -102 -130 -109 74 -446 522 -554 737 l-32 64 33 -7 c18 -3 62 -15 98 -26z"/>
 <path d="M2082 3994 c-77 -40 -117 -124 -149 -315 l-16 -96 -114 -56 c-356 -178 -685 -441 -912 -732 -74 -96 -95 -145 -95 -225 0 -155 125 -279 410 -411 131 -61 425 -155 587 -188 81 -17 149 -31 151 -31 2 0 7 -48 10 -107 4 -60 16 -189 27 -288 32 -286 69 -425 122 -460 23 -15 28 -15 55 -1 39 20 132 148 153 211 28 79 69 425 69 576 l0 27 218 4 c191 5 243 10 427 42 260 45 362 73 490 136 121 59 184 106 247 184 102 127 109 274 20 412 -65 100 -188 174 -288 174 -25 0 -80 -12 -122 -26 -158 -52 -161 -75 -17 -151 134 -72 162 -111 115 -161 -93 -100 -460 -176 -904 -189 l-209 -6 7 434 c3 239 9 482 13 541 l6 106 76 11 c42 6 108 16 146 22 39 5 162 13 275 16 300 8 535 -25 825 -118 147 -47 203 -71 318 -137 294 -169 438 -399 440 -697 0 -126 -16 -211 -65 -340 -176 -469 -784 -984 -1593 -1351 -669 -303 -1404 -455 -2007 -416 -238 16 -488 67 -488 99 0 5 44 21 97 36 54 15 107 36 117 47 18 18 18 20 3 44 -39 58 -275 74 -374 24 -88 -44 -107 -107 -59 -195 40 -73 127 -185 162 -208 36 -24 338 -108 469 -130 299 -50 679 -50 1020 1 511 75 1087 257 1535 484 489 249 899 552 1196 886 147 165 230 286 323 471 72 142 112 261 135 392 20 117 20 188 1 316 -40 264 -122 445 -284 625 -243 272 -654 461 -1166 537 -168 24 -579 24 -755 0 -112 -16 -268 -46 -326 -62 -19 -6 -21 -2 -27 62 -9 103 -20 126 -79 158 -65 36 -166 44 -216 19z m-168 -826 c19 -292 25 -442 26 -630 l0 -208 -30 0 c-56 0 -313 30 -430 51 -133 23 -353 79 -431 109 -116 46 -141 112 -71 192 108 124 300 278 486 387 109 65 397 200 427 201 14 0 17 -17 23 -102z"/>
 <path d="M9198 3621 c-105 -42 -216 -157 -253 -261 -39 -110 -25 -276 39 -463 l34 -98 -19 -60 c-19 -60 -25 -142 -13 -174 8 -21 56 -45 107 -53 l42 -7 61 -125 61 -125 -61 -16 c-101 -25 -140 -53 -200 -144 -25 -39 -33 -79 -18 -101 13 -20 48 -33 138 -53 253 -56 526 -90 791 -98 247 -7 272 -2 351 75 56 55 121 158 129 205 9 58 -16 76 -142 97 -104 17 -343 41 -556 56 l-97 6 -26 88 c-14 48 -26 92 -26 98 0 8 46 9 158 5 86 -3 192 -3 235 2 110 10 117 19 117 138 0 101 -11 130 -56 147 -14 6 -149 17 -301 25 -152 8 -279 18 -282 20 -14 14 -89 291 -81 299 6 6 83 -5 197 -28 237 -46 371 -66 450 -66 59 0 66 3 104 38 49 43 69 85 69 143 0 38 -5 47 -64 103 -119 114 -377 254 -576 312 -117 35 -249 41 -312 15z"/>
 <path d="M5223 3546 c-101 -47 -108 -92 -107 -651 0 -504 16 -764 54 -906 16 -59 67 -109 112 -109 44 0 65 16 111 83 80 116 82 128 113 797 17 369 14 652 -7 728 -9 34 -19 47 -50 62 -56 29 -158 27 -226 -4z"/>
 <path d="M6377 3519 c-151 -16 -274 -62 -412 -154 -190 -126 -265 -267 -224 -420 16 -60 128 -165 200 -188 163 -53 400 -45 670 23 110 28 220 86 234 124 13 39 -10 75 -70 108 -63 35 -137 50 -239 50 -113 1 -184 -16 -310 -74 -87 -41 -122 -52 -177 -56 -67 -5 -68 -4 -98 28 -78 86 -30 160 125 192 88 18 368 15 489 -6 240 -42 429 -135 465 -230 16 -43 -13 -94 -70 -123 -122 -62 -370 -100 -800 -123 -202 -11 -353 -35 -418 -67 -81 -40 -107 -134 -78 -282 10 -47 26 -106 37 -131 59 -132 276 -242 626 -317 123 -26 140 -28 413 -28 297 0 395 9 516 46 35 11 77 31 95 46 38 32 36 63 -8 138 -44 77 -82 91 -278 105 -494 34 -946 95 -1033 137 -45 22 -53 49 -19 62 37 14 256 41 427 52 398 25 493 41 635 108 189 89 256 234 234 511 -9 120 -25 172 -70 235 -41 57 -83 85 -199 134 -129 54 -263 87 -401 100 -126 12 -149 12 -262 0z"/>
 <path d="M7525 3506 c-41 -18 -92 -77 -105 -123 -52 -183 -25 -675 55 -1013 71 -296 139 -410 245 -410 43 0 77 20 131 77 108 112 239 299 454 647 115 186 148 227 166 208 44 -43 -45 -523 -190 -1022 -49 -169 -39 -270 27 -270 36 0 124 60 195 133 152 157 262 392 312 664 39 207 28 545 -24 740 -60 229 -237 341 -402 255 -102 -53 -250 -262 -429 -602 -89 -170 -130 -240 -141 -240 -17 0 -21 46 -49 580 -14 275 -31 334 -104 370 -48 23 -97 25 -141 6z"/>
 <path d="M4913 1660 c-39 -23 -75 -77 -99 -146 -14 -41 -16 -61 -8 -100 9 -48 8 -50 -32 -100 -63 -78 -79 -130 -79 -254 0 -100 2 -108 37 -180 73 -150 203 -296 343 -385 197 -126 447 -195 659 -182 155 10 236 45 298 129 8 10 42 23 84 32 93 19 142 45 191 100 96 109 84 271 -32 467 -57 94 -200 245 -310 327 -103 77 -291 166 -405 193 -134 31 -278 30 -380 -3 l-76 -24 -33 54 c-32 52 -80 92 -111 92 -8 0 -29 -9 -47 -20z m755 -416 c156 -39 295 -130 373 -245 55 -81 69 -119 69 -183 0 -44 -5 -61 -24 -83 -23 -26 -29 -28 -98 -27 -92 1 -162 29 -296 117 -122 81 -257 200 -346 308 -39 46 -76 92 -85 102 -20 24 -11 29 67 38 99 10 235 0 340 -27z m-663 -202 c59 -85 181 -218 273 -297 45 -38 78 -71 72 -73 -16 -6 -120 28 -174 55 -129 66 -262 273 -230 357 9 25 16 20 59 -42z"/>
 </g>

</svg>