<!DOCTYPE svg PUBLIC "-//W3C//DTD SVG 20010904//EN" "http://www.w3.org/TR/2001/REC-SVG-20010904/DTD/svg10.dtd">
<svg version="1.0" xmlns="http://www.w3.org/2000/svg" width="1100px" height="232px" viewBox="0 0 11000 2320" preserveAspectRatio="xMidYMid meet">
<g id="layer101" fill="#018cd7" stroke="none">
<path d="M417 1874 c-4 -4 -7 -211 -7 -461 l0 -453 225 0 225 0 0 264 c0 213 3 266 14 275 10 9 117 11 392 9 361 -3 381 -4 418 -24 22 -11 49 -33 60 -48 20 -26 21 -40 21 -305 0 -306 0 -309 -62 -351 l-36 -25 -331 -5 -331 -5 0 -180 0 -180 395 0 c388 0 396 0 457 23 91 34 143 65 214 131 70 63 113 133 135 215 17 64 20 662 3 734 -38 167 -176 301 -379 368 -51 17 -109 19 -730 22 -372 2 -679 0 -683 -4z"/>
<path d="M2834 1870 c-72 -11 -120 -27 -193 -66 -84 -46 -143 -97 -190 -164 -71 -102 -72 -110 -69 -531 l3 -374 29 -60 c55 -113 197 -228 337 -273 48 -15 106 -17 524 -17 454 0 525 4 577 32 4 2 -24 34 -61 71 -71 70 -103 121 -131 211 l-17 54 -336 -2 c-207 -1 -350 2 -374 8 -22 6 -52 25 -68 41 l-30 31 -3 287 c-3 324 -2 330 74 368 36 18 64 19 374 19 482 0 450 28 450 -390 0 -316 6 -363 57 -457 54 -100 166 -188 309 -245 l69 -28 475 0 c370 0 484 3 515 13 189 64 315 174 364 320 20 57 21 84 21 409 0 382 -3 404 -60 493 -65 101 -170 180 -303 228 l-72 27 -409 3 c-415 4 -530 -3 -602 -33 l-37 -15 42 -33 c76 -60 150 -176 169 -264 6 -26 13 -36 23 -33 32 11 625 11 676 0 55 -12 108 -53 118 -92 3 -13 5 -148 3 -301 l-3 -279 -32 -28 c-18 -16 -49 -34 -70 -39 -42 -12 -628 -15 -683 -5 -18 4 -50 24 -71 44 l-39 37 0 271 c0 152 -5 294 -11 324 -23 114 -58 185 -130 263 -66 70 -138 116 -241 153 l-73 27 -425 1 c-234 1 -448 -1 -476 -6z"/>
<path d="M6190 1874 c-151 -23 -257 -72 -352 -165 -48 -47 -78 -86 -101 -135 l-32 -69 -3 -343 c-4 -367 0 -408 44 -499 33 -66 150 -179 224 -215 138 -67 76 -63 843 -66 l697 -3 0 186 0 185 -617 0 c-588 0 -620 1 -660 20 -81 36 -83 46 -83 356 0 265 1 272 23 305 12 19 40 43 62 54 38 19 63 20 418 23 278 2 383 0 393 -9 10 -8 14 -38 14 -115 l0 -104 -227 -2 -228 -3 0 -145 0 -145 450 0 450 0 0 445 0 445 -645 1 c-355 1 -656 0 -670 -2z"/>
<path d="M7665 1868 c-3 -7 -4 -209 -3 -448 l3 -435 748 -3 748 -2 -3 147 -3 148 -518 3 -518 2 3 113 3 112 518 3 517 2 0 185 0 185 -745 0 c-587 0 -747 -3 -750 -12z"/>
<path d="M9305 1868 c-3 -7 -4 -209 -3 -448 l3 -435 748 -3 748 -2 -3 147 -3 148 -520 5 -520 5 -1 100 c-1 56 3 106 8 113 8 9 125 12 524 12 l514 0 -2 183 -3 182 -743 3 c-589 2 -744 0 -747 -10z"/>
<path d="M7665 728 c-3 -13 -4 -95 -3 -183 l3 -160 748 -3 747 -2 0 185 0 185 -745 0 -745 0 -5 -22z"/>
</g>
<g id="layer102" fill="#f08507" stroke="none">
<path d="M410 590 l0 -159 -127 -3 -128 -3 0 -110 0 -110 135 0 135 0 5 85 5 85 213 3 212 2 0 185 0 185 -225 0 -225 0 0 -160z"/>
<path d="M9307 743 c-4 -3 -7 -87 -7 -185 l0 -178 750 0 750 0 -2 183 -3 182 -741 3 c-407 1 -744 -1 -747 -5z"/>
</g>
<g id="layer103" fill="#65bbe7" stroke="none">
<path d="M415 1868 c-3 -7 -4 -215 -3 -463 l3 -450 3 457 2 458 648 3 647 2 -648 3 c-511 1 -649 -1 -652 -10z"/>
<path d="M3072 1873 c108 -2 288 -2 400 0 112 1 23 2 -197 2 -220 0 -311 -1 -203 -2z"/>
<path d="M4438 1873 c111 -2 293 -2 405 0 111 1 20 2 -203 2 -223 0 -314 -1 -202 -2z"/>
<path d="M6852 1873 l648 -3 3 -440 2 -440 0 442 0 443 -650 0 -650 0 647 -2z"/>
<path d="M7665 1868 c-3 -7 -4 -209 -3 -448 l3 -435 748 0 747 0 -745 2 -745 3 0 440 0 440 748 3 747 2 -748 3 c-591 1 -749 -1 -752 -10z"/>
<path d="M9305 1868 c-3 -7 -4 -209 -3 -448 l3 -435 3 443 2 442 740 0 740 0 3 -177 3 -178 -1 180 0 180 -743 3 c-589 2 -744 0 -747 -10z"/>
<path d="M3735 1860 c11 -5 29 -8 40 -8 16 0 15 2 -5 8 -34 11 -60 11 -35 0z"/>
<path d="M4140 1860 c-20 -6 -21 -8 -5 -8 11 0 29 3 40 8 25 11 -1 11 -35 0z"/>
<path d="M5105 1860 c11 -5 29 -8 40 -8 16 0 15 2 -5 8 -34 11 -60 11 -35 0z"/>
<path d="M2085 1700 c21 -22 41 -40 44 -40 3 0 -13 18 -34 40 -21 22 -41 40 -44 40 -3 0 13 -18 34 -40z"/>
<path d="M2920 1500 c-11 -8 -7 -9 15 -4 37 8 45 14 19 14 -10 0 -26 -5 -34 -10z"/>
<path d="M6250 1500 c-11 -8 -7 -9 15 -4 37 8 45 14 19 14 -10 0 -26 -5 -34 -10z"/>
<path d="M8112 1393 l3 -118 520 0 520 0 -518 2 -518 3 3 115 c2 63 -1 115 -5 115 -4 0 -6 -53 -5 -117z"/>
<path d="M2208 1203 c1 -164 4 -325 5 -358 2 -33 4 91 4 275 1 184 -2 345 -5 358 -4 13 -6 -111 -4 -275z"/>
<path d="M5535 1130 c0 -201 1 -283 2 -183 2 101 2 265 0 365 -1 101 -2 19 -2 -182z"/>
<path d="M5704 1125 c0 -187 2 -262 3 -167 2 95 2 248 0 340 -1 92 -3 14 -3 -173z"/>
<path d="M2824 1130 c0 -151 2 -213 3 -137 2 75 2 199 0 275 -1 75 -3 13 -3 -138z"/>
<path d="M4184 1125 c0 -154 2 -216 3 -137 2 79 2 205 0 280 -1 75 -3 11 -3 -143z"/>
<path d="M5092 1133 c-1 -149 -5 -280 -8 -290 -5 -16 -4 -16 5 -1 8 11 10 105 8 290 l-2 273 -3 -272z"/>
<path d="M3734 1100 c0 -162 2 -229 3 -147 2 81 2 213 0 295 -1 81 -3 14 -3 -148z"/>
<path d="M9749 1288 c13 -17 48 -18 530 -16 l516 3 -514 2 c-391 3 -518 6 -530 16 -14 11 -14 10 -2 -5z"/>
<path d="M6607 1273 c-10 -9 -9 -281 1 -286 4 -3 6 60 4 139 l-3 144 223 3 223 2 -221 3 c-121 1 -224 -1 -227 -5z"/>
<path d="M10790 1120 l0 -130 -732 -3 -733 -2 738 -3 737 -2 0 135 c0 74 -2 135 -5 135 -3 0 -5 -58 -5 -130z"/>
<path d="M6838 983 c111 -2 293 -2 405 0 111 1 20 2 -203 2 -223 0 -314 -1 -202 -2z"/>
<path d="M2381 770 c0 -8 4 -24 9 -35 5 -13 9 -14 9 -5 0 8 -4 24 -9 35 -5 13 -9 14 -9 5z"/>
<path d="M3617 754 c12 -3 24 -13 27 -22 3 -12 4 -11 3 3 -2 14 -10 21 -27 22 -21 1 -21 1 -3 -3z"/>
<path d="M7504 565 c0 -104 2 -146 3 -92 2 54 2 139 0 190 -1 51 -3 7 -3 -98z"/>
<path d="M8043 743 c208 -2 546 -2 750 0 205 1 35 2 -378 2 -412 0 -580 -1 -372 -2z"/>
<path d="M1004 565 c0 -99 2 -138 3 -87 2 51 2 132 0 180 -1 48 -3 6 -3 -93z"/>
<path d="M7664 560 c0 -96 2 -136 3 -87 2 48 2 126 0 175 -1 48 -3 8 -3 -88z"/>
<path d="M2500 558 c41 -45 50 -53 50 -45 0 2 -21 23 -47 47 l-48 45 45 -47z"/>
<path d="M5410 555 c-24 -25 -42 -45 -39 -45 3 0 25 20 49 45 24 25 42 45 39 45 -3 0 -25 -20 -49 -45z"/>
<path d="M3838 438 c11 -14 10 -17 -5 -21 -16 -4 -16 -5 -1 -6 25 -2 30 15 10 30 -15 13 -16 12 -4 -3z"/>
<path d="M1800 400 c-21 -7 -21 -8 -5 -9 11 0 27 4 35 9 18 11 5 11 -30 0z"/>
<path d="M6085 400 c19 -8 73 -14 64 -6 -2 2 -22 6 -44 9 -28 5 -34 4 -20 -3z"/>
<path d="M1698 383 c12 -2 32 -2 45 0 12 2 2 4 -23 4 -25 0 -35 -2 -22 -4z"/>
<path d="M2853 383 c9 -2 25 -2 35 0 9 3 1 5 -18 5 -19 0 -27 -2 -17 -5z"/>
<path d="M3673 383 c9 -2 25 -2 35 0 9 3 1 5 -18 5 -19 0 -27 -2 -17 -5z"/>
<path d="M4228 383 c12 -2 30 -2 40 0 9 3 -1 5 -23 4 -22 0 -30 -2 -17 -4z"/>
<path d="M5018 383 c12 -2 32 -2 45 0 12 2 2 4 -23 4 -25 0 -35 -2 -22 -4z"/>
</g>


</svg>