<!DOCTYPE svg PUBLIC "-//W3C//DTD SVG 20010904//EN" "http://www.w3.org/TR/2001/REC-SVG-20010904/DTD/svg10.dtd">
<svg version="1.0" xmlns="http://www.w3.org/2000/svg" width="500px" height="150px" viewBox="0 0 5000 1500" preserveAspectRatio="xMidYMid meet">
<g id="layer101" fill="#010101" stroke="none">
 <path d="M0 760 l0 -370 358 0 c265 0 361 3 370 12 7 7 12 33 12 58 l0 47 -54 12 c-109 24 -183 109 -193 221 -12 132 76 245 206 266 41 6 41 7 41 49 0 81 31 75 -376 75 l-364 0 0 -370z"/>
 <path d="M2065 1049 c4 -12 15 -40 25 -62 10 -23 17 -44 15 -47 -2 -4 -91 -211 -132 -307 l-13 -33 52 0 53 0 34 88 c19 48 41 103 49 121 l14 35 19 -55 c11 -29 31 -84 45 -121 l26 -68 44 0 c24 0 44 4 44 8 0 4 -42 109 -94 232 l-93 225 -48 3 c-44 3 -46 2 -40 -19z"/>
 <path d="M1638 930 c-43 -13 -84 -47 -102 -84 -20 -42 -21 -118 -1 -155 38 -75 141 -114 228 -88 l47 15 0 -79 0 -79 45 0 45 0 -2 238 -3 237 -39 3 c-23 2 -42 -2 -46 -9 -6 -9 -16 -9 -40 0 -37 13 -92 13 -132 1z m139 -95 c16 -18 23 -39 23 -70 0 -110 -151 -132 -191 -27 -14 37 -2 78 34 108 26 22 38 25 71 21 27 -4 49 -15 63 -32z"/>
 <path d="M2910 925 c-48 -22 -70 -52 -70 -101 0 -77 65 -119 177 -112 49 3 73 1 73 -6 -1 -50 -100 -73 -177 -41 -46 20 -45 21 -41 -22 3 -33 7 -38 38 -46 19 -5 70 -7 112 -5 131 6 156 43 157 236 l1 103 -57 0 c-32 -1 -85 1 -118 4 -42 4 -71 0 -95 -10z m134 -55 c14 -5 30 -18 36 -30 16 -30 -26 -70 -74 -70 -67 0 -104 28 -91 70 11 34 78 50 129 30z"/>
 <path d="M3277 933 c-4 -3 -7 -111 -7 -240 l0 -233 45 0 45 0 0 79 0 79 48 -15 c86 -26 189 13 227 88 20 37 19 113 -2 156 -33 70 -139 109 -228 84 -26 -7 -41 -7 -43 -1 -4 11 -75 14 -85 3z m259 -94 c93 -88 -37 -226 -135 -143 -26 21 -31 33 -31 68 0 46 20 82 54 97 31 13 86 3 112 -22z"/>
 <path d="M3815 926 c-90 -40 -130 -148 -86 -234 34 -67 95 -102 178 -102 85 1 172 59 189 126 11 43 -2 120 -24 152 -46 63 -178 93 -257 58z m154 -82 c38 -32 49 -80 27 -122 -20 -38 -44 -52 -91 -52 -97 0 -133 138 -47 184 40 22 77 19 111 -10z"/>
 <path d="M4260 918 c-61 -32 -83 -66 -88 -137 -6 -81 22 -131 92 -166 87 -43 186 -29 248 36 40 42 56 101 43 159 -9 40 -60 99 -102 116 -51 22 -142 18 -193 -8z m177 -83 c16 -18 23 -39 23 -70 0 -36 -5 -47 -31 -69 -56 -47 -137 -28 -159 39 -15 44 -4 80 33 111 26 22 38 25 71 21 27 -4 49 -15 63 -32z"/>
 <path d="M4930 931 c-55 -3 -56 -4 -125 -82 -38 -42 -72 -78 -75 -78 -3 -1 -4 35 -2 79 l4 80 -51 0 -51 0 0 -236 0 -235 48 3 47 3 0 133 c0 72 2 132 5 132 3 -1 37 -30 75 -65 68 -63 71 -65 125 -65 l55 0 -80 74 -80 74 80 83 c44 46 84 86 89 90 14 11 -6 14 -64 10z"/>
 <path d="M2400 765 l0 -165 45 0 c33 0 45 4 45 15 0 11 8 11 43 -5 55 -26 132 -26 174 0 53 32 63 64 63 200 l0 120 -50 0 -50 0 0 -113 c0 -136 -10 -157 -71 -157 -44 0 -99 24 -100 43 0 6 0 60 1 120 l1 107 -50 0 -51 0 0 -165z"/>
 <path d="M1058 864 c-77 -41 -75 -162 2 -208 104 -61 222 55 166 163 -30 58 -107 78 -168 45z"/>
 <path d="M693 835 c-50 -35 -46 -123 7 -150 43 -22 68 -19 101 14 46 46 38 110 -18 139 -30 16 -64 15 -90 -3z"/>
 </g>

</svg>