<!DOCTYPE svg PUBLIC "-//W3C//DTD SVG 20010904//EN" "http://www.w3.org/TR/2001/REC-SVG-20010904/DTD/svg10.dtd">
<svg version="1.0" xmlns="http://www.w3.org/2000/svg" width="1200px" height="167px" viewBox="0 0 12000 1670" preserveAspectRatio="xMidYMid meet">
<g id="layer101" fill="#000000" stroke="none">
 <path d="M1600 835 l0 -835 830 0 830 0 0 835 0 835 -830 0 -830 0 0 -835z m1067 721 c101 -33 239 -122 311 -201 314 -343 252 -881 -131 -1144 -225 -154 -549 -162 -790 -20 -86 50 -217 180 -266 262 -79 134 -120 323 -101 470 30 246 160 443 382 580 98 61 220 87 383 83 107 -3 144 -8 212 -30z"/>
 <path d="M5520 1629 c-170 -33 -318 -193 -345 -372 -7 -45 -6 -46 21 -53 16 -3 45 -10 64 -15 61 -16 79 -12 85 19 28 137 77 206 173 243 80 29 224 24 296 -12 73 -35 91 -66 91 -149 0 -59 -3 -72 -25 -96 -35 -38 -166 -96 -299 -133 -113 -31 -229 -82 -286 -126 -17 -12 -44 -47 -60 -76 -60 -109 -30 -260 68 -344 175 -150 480 -135 637 31 52 55 116 174 107 197 -5 12 -109 47 -141 47 -8 0 -25 -21 -36 -47 -26 -58 -60 -96 -120 -131 -40 -24 -55 -27 -140 -27 -86 0 -99 3 -143 28 -35 21 -54 41 -68 70 -23 52 -23 70 -2 114 22 46 111 89 290 139 173 49 256 89 320 157 64 68 89 139 79 231 -15 150 -122 262 -288 301 -68 16 -206 18 -278 4z"/>
 <path d="M6570 1629 c-82 -14 -192 -70 -246 -126 -62 -63 -116 -176 -118 -245 l-1 -52 60 -12 c102 -22 99 -23 118 59 21 91 57 141 127 181 52 29 60 31 165 31 99 0 116 -3 168 -27 50 -23 61 -34 79 -74 24 -55 21 -122 -9 -163 -27 -38 -149 -94 -293 -136 -286 -82 -390 -171 -390 -335 0 -144 106 -260 277 -305 158 -41 362 12 462 121 42 45 97 143 102 184 4 22 -2 26 -74 46 l-78 22 -10 -27 c-17 -48 -33 -73 -71 -111 -61 -61 -100 -75 -203 -75 -77 0 -96 3 -135 25 -86 48 -114 132 -67 201 27 41 101 74 292 129 169 50 233 78 289 130 94 87 123 218 75 344 -60 163 -281 254 -519 215z"/>
 <path d="M7681 1630 c-232 -34 -401 -217 -442 -482 -14 -91 -6 -264 16 -338 42 -140 162 -288 278 -344 172 -82 371 -69 508 34 132 99 219 292 219 487 l0 83 -425 0 -425 0 0 39 c0 61 36 161 78 216 96 127 248 165 419 105 64 -22 120 -71 159 -138 l25 -43 32 19 c75 44 107 68 107 80 0 26 -71 120 -125 166 -70 60 -163 103 -250 116 -78 11 -97 11 -174 0z m395 -752 c-9 -68 -54 -164 -100 -216 -20 -22 -60 -50 -88 -62 -70 -30 -200 -25 -267 9 -103 54 -180 160 -196 274 l-7 47 332 0 333 0 -7 -52z"/>
 <path d="M9197 1614 c-4 -4 -7 -182 -7 -395 0 -357 -2 -392 -20 -451 -35 -114 -114 -168 -249 -170 -91 -1 -149 20 -206 77 -71 71 -69 64 -75 520 l-5 410 -90 0 -90 0 -3 -572 -2 -573 90 0 90 0 0 45 0 45 43 -33 c95 -73 229 -108 341 -89 136 22 262 115 322 237 l29 60 0 445 0 445 -80 3 c-45 1 -84 0 -88 -4z"/>
 <path d="M9822 1601 c-73 -25 -122 -67 -157 -136 l-30 -59 -3 -393 -3 -393 -79 0 -80 0 0 -80 0 -80 85 0 85 0 0 -145 0 -145 85 0 85 0 0 140 0 140 140 0 140 0 0 80 0 80 -140 0 -140 0 0 368 c0 329 2 371 18 402 23 46 53 60 135 60 l67 0 0 90 0 90 -77 0 c-49 -1 -98 -8 -131 -19z"/>
 <path d="M10968 1610 c-116 -20 -229 -101 -268 -193 -29 -67 -32 -170 -6 -246 36 -105 167 -198 331 -236 150 -34 270 -70 299 -90 40 -27 56 -59 56 -117 0 -88 -80 -148 -210 -156 -63 -4 -85 -1 -128 18 -65 28 -129 98 -145 157 -13 50 -16 50 -107 24 -77 -22 -78 -28 -30 -128 108 -221 384 -295 635 -171 80 39 107 67 145 149 38 82 36 51 32 582 l-2 387 -80 0 -80 0 0 -61 0 -61 -50 46 c-58 51 -131 82 -228 96 -76 11 -98 11 -164 0z m273 -169 c70 -27 113 -63 138 -114 19 -39 21 -61 21 -205 l0 -162 -37 24 c-21 14 -106 47 -189 74 -227 75 -282 109 -304 186 -23 83 6 158 73 193 70 36 208 38 298 4z"/>
 <path d="M655 1595 c-523 -98 -788 -687 -516 -1144 111 -187 310 -324 526 -362 92 -16 242 -6 330 21 131 41 222 96 321 195 77 76 98 105 137 185 105 212 116 422 36 631 -97 251 -328 436 -596 478 -90 14 -149 13 -238 -4z"/>
 <path d="M10297 1603 c-4 -3 -7 -262 -7 -575 l0 -568 90 0 90 0 0 575 0 575 -83 0 c-46 0 -87 -3 -90 -7z"/>
 <path d="M4160 840 l0 -760 455 0 455 0 0 85 0 85 -365 0 -365 0 0 245 0 245 335 0 335 0 0 80 0 80 -335 0 -335 0 0 265 0 265 363 2 362 3 0 80 0 80 -452 3 -453 2 0 -760z"/>
 <path d="M11792 808 l3 -793 85 0 85 0 3 793 2 792 -90 0 -90 0 2 -792z"/>
 <path d="M10274 217 c-3 -8 -4 -54 -2 -103 l3 -89 103 -3 102 -3 0 106 0 105 -100 0 c-75 0 -102 -3 -106 -13z"/>
 </g>

</svg>