<!DOCTYPE svg PUBLIC "-//W3C//DTD SVG 20010904//EN" "http://www.w3.org/TR/2001/REC-SVG-20010904/DTD/svg10.dtd">
<svg version="1.0" xmlns="http://www.w3.org/2000/svg" width="1200px" height="173px" viewBox="0 0 12000 1730" preserveAspectRatio="xMidYMid meet">
<g id="layer101" fill="#0165b0" stroke="none">
 <path d="M47 1683 c-3 -5 -2 -213 1 -463 l7 -455 34 -69 c45 -93 135 -182 231 -229 l73 -37 499 0 499 0 -3 138 -3 137 -447 3 -448 2 0 140 0 140 410 0 410 0 0 115 0 115 -410 0 -410 0 -2 233 -3 232 -217 3 c-119 1 -219 -1 -221 -5z"/>
 <path d="M1831 1659 c-81 -41 -205 -163 -243 -239 l-28 -55 0 -298 c0 -333 0 -331 72 -424 45 -59 139 -138 208 -174 l45 -24 449 -3 c509 -3 501 -4 606 74 64 49 140 142 174 214 20 43 21 61 21 340 l0 295 -30 59 c-36 71 -140 178 -221 226 l-58 35 -466 3 -466 3 -63 -32z m884 -311 c3 -40 3 -197 -1 -350 l-7 -278 -358 0 -359 0 0 344 0 345 33 4 c17 2 179 5 358 5 l326 2 8 -72z"/>
 <path d="M3232 1681 c2 -5 122 -144 268 -310 146 -165 264 -307 264 -314 -1 -8 -113 -150 -250 -316 -137 -166 -250 -306 -252 -311 -2 -6 90 -10 245 -9 l248 0 135 164 135 165 55 -58 c30 -31 100 -106 155 -165 l100 -108 259 3 258 3 -276 315 c-152 173 -275 318 -274 322 2 4 120 143 263 309 143 166 262 306 263 311 2 4 -107 8 -242 8 l-245 0 -157 -174 -156 -175 -145 175 -144 174 -255 0 c-148 0 -254 -4 -252 -9z"/>
 <path d="M5290 1667 c-124 -51 -285 -187 -328 -278 -21 -43 -22 -58 -22 -327 0 -280 0 -283 24 -331 49 -96 186 -220 302 -274 48 -22 56 -22 518 -25 258 -2 474 -1 480 1 8 3 10 50 8 151 l-3 146 -455 0 -454 0 0 345 0 345 455 0 455 0 0 135 0 135 -462 0 c-458 0 -464 -1 -518 -23z"/>
 <path d="M6775 1678 c-88 -32 -236 -168 -285 -264 l-25 -49 0 -305 0 -305 27 -47 c60 -101 203 -225 297 -257 23 -7 171 -11 475 -11 l441 0 64 30 c83 40 196 152 237 235 l29 60 3 299 3 299 -27 56 c-37 77 -160 197 -243 239 l-64 32 -451 -1 c-291 0 -462 -4 -481 -11z m845 -608 l0 -350 -360 0 -360 0 0 344 0 345 28 4 c15 2 177 5 360 6 l332 1 0 -350z"/>
 <path d="M8228 1683 c-2 -5 -2 -288 0 -631 l3 -623 622 3 622 3 63 34 c78 43 189 157 228 237 l29 59 3 463 3 462 -213 -2 -213 -3 -3 -482 -2 -483 -350 0 -350 0 0 485 0 485 -219 0 c-121 0 -221 -3 -223 -7z"/>
 <path d="M9973 1263 c4 -236 7 -519 7 -631 l0 -202 618 2 617 3 60 29 c84 41 192 151 236 241 l34 70 3 457 3 458 -216 0 -215 0 0 -485 0 -485 -350 0 -350 0 0 485 0 485 -227 0 -226 0 6 -427z"/>
 <path d="M11670 457 c-48 -15 -113 -83 -128 -133 -19 -63 -15 -105 16 -165 87 -173 334 -148 388 39 48 165 -108 312 -276 259z m150 -49 c141 -71 121 -277 -30 -318 -165 -44 -289 149 -177 277 58 66 130 80 207 41z"/>
 <path d="M11650 261 l0 -121 54 0 c69 0 103 13 118 45 13 30 -4 71 -33 80 -16 5 -14 11 16 51 40 52 43 64 15 64 -13 0 -31 -17 -51 -50 -23 -37 -37 -50 -54 -50 -21 0 -24 5 -27 47 -2 36 -7 49 -20 51 -16 3 -18 -8 -18 -117z m125 -51 c0 -22 -5 -25 -42 -28 -42 -3 -43 -2 -43 28 0 30 1 31 43 28 37 -3 42 -6 42 -28z"/>
 </g>

</svg>