<!DOCTYPE svg PUBLIC "-//W3C//DTD SVG 20010904//EN" "http://www.w3.org/TR/2001/REC-SVG-20010904/DTD/svg10.dtd">
<svg version="1.0" xmlns="http://www.w3.org/2000/svg" width="700px" height="255px" viewBox="0 0 7000 2550" preserveAspectRatio="xMidYMid meet">
<g id="layer101" fill="#030202" stroke="none">
<path d="M3301 2143 c0 -4 4 -17 8 -28 5 -13 0 -45 -15 -89 -28 -82 -29 -86 -9 -86 9 0 21 21 31 58 l17 57 17 -55 c11 -37 22 -56 34 -58 20 -4 22 -13 -23 120 -18 54 -33 84 -44 86 -10 2 -17 0 -16 -5z"/>
<path d="M2160 1986 c0 -108 1 -116 19 -116 25 0 27 4 56 97 13 43 24 76 25 73 0 -3 13 -41 28 -85 22 -65 31 -81 50 -83 22 -3 22 -2 22 112 0 96 -3 116 -15 116 -12 0 -15 -17 -16 -87 l-1 -88 -27 85 c-17 55 -32 85 -41 85 -10 0 -25 -29 -42 -80 l-26 -80 -4 79 c-2 52 -7 81 -15 84 -10 3 -13 -24 -13 -112z"/>
<path d="M2452 2088 c-16 -16 -15 -61 0 -76 7 -7 22 -12 33 -12 27 0 35 -8 28 -26 -7 -19 -32 -18 -39 1 -7 18 -34 20 -34 2 0 -22 23 -37 57 -37 41 0 55 29 51 104 l-3 50 -41 3 c-22 1 -46 -3 -52 -9z m58 -44 c0 -33 -33 -30 -38 4 -3 17 2 22 17 22 16 0 21 -6 21 -26z"/>
<path d="M2635 2084 c-20 -21 -21 -117 0 -134 8 -7 26 -10 39 -8 22 5 25 1 28 -30 2 -20 9 -37 16 -40 9 -3 12 24 12 110 l0 114 -40 1 c-24 1 -46 -4 -55 -13z m63 -59 c3 -47 -9 -70 -32 -62 -11 5 -16 19 -16 50 0 48 6 59 30 55 10 -2 16 -16 18 -43z"/>
<path d="M2826 2087 c-9 -7 -20 -32 -23 -55 -8 -58 15 -92 62 -92 38 0 55 20 55 64 0 24 -3 26 -44 26 -39 0 -44 2 -39 20 7 25 31 26 49 3 10 -14 15 -15 25 -6 10 10 9 17 -6 33 -21 23 -53 26 -79 7z m64 -91 c0 -2 -3 -11 -6 -20 -8 -22 -31 -20 -44 4 -10 18 -8 20 20 20 16 0 30 -2 30 -4z"/>
<path d="M3100 1983 c0 -87 3 -114 13 -111 6 3 13 20 15 40 3 31 6 35 28 30 38 -7 54 14 54 72 0 68 -10 80 -65 82 l-45 2 0 -115z m78 34 c2 -37 -1 -49 -13 -54 -22 -8 -35 13 -35 58 0 40 7 51 30 47 10 -2 16 -17 18 -51z"/>
<path d="M3566 2084 c-20 -19 -21 -64 -2 -64 8 0 17 12 20 26 5 17 12 24 24 22 14 -3 18 -19 22 -98 4 -76 8 -95 20 -95 23 0 27 168 5 201 -18 28 -65 32 -89 8z"/>
<path d="M3738 2095 c-6 -6 51 -190 65 -212 20 -32 37 -9 71 95 41 123 41 122 20 122 -8 0 -20 -13 -25 -30 -10 -26 -16 -30 -49 -30 -33 0 -39 4 -49 30 -9 28 -21 37 -33 25z m100 -125 c-6 -22 -14 -40 -18 -40 -4 0 -12 18 -18 40 -10 40 -10 40 18 40 28 0 28 0 18 -40z"/>
<path d="M3985 2088 c-3 -8 -4 -59 -3 -114 l3 -99 47 1 c57 0 78 16 78 59 0 38 -26 65 -63 65 -24 0 -26 4 -29 47 -3 45 -22 69 -33 41z m91 -140 c4 -15 1 -25 -12 -35 -31 -22 -44 -16 -44 22 0 30 3 35 24 35 17 0 27 -7 32 -22z"/>
<path d="M4164 2065 c4 -20 19 -71 34 -113 39 -111 54 -106 98 28 39 121 39 120 18 120 -8 0 -20 -13 -25 -30 -10 -26 -16 -30 -48 -30 -32 0 -38 4 -48 30 -16 43 -37 39 -29 -5z m106 -57 c0 -2 -7 -23 -14 -48 -8 -27 -16 -39 -19 -30 -28 82 -28 80 4 80 16 0 29 -1 29 -2z"/>
<path d="M4404 2087 c-2 -7 -3 -58 -2 -113 3 -85 5 -99 21 -102 13 -3 27 16 58 82 22 47 41 86 42 86 1 0 2 -37 2 -82 0 -67 3 -83 15 -83 12 0 15 19 15 110 0 103 -1 110 -20 110 -15 0 -30 -21 -62 -85 l-42 -85 0 88 c-1 52 -5 87 -11 87 -6 0 -13 -6 -16 -13z"/>
<path d="M2160 1061 l0 -381 220 0 220 0 0 55 0 55 -170 0 -170 0 0 105 0 105 170 0 170 0 0 55 0 55 -167 2 -168 3 -2 160 -1 160 -51 3 -51 3 0 -380z"/>
<path d="M2820 1061 l0 -381 129 0 c181 0 236 23 285 122 29 57 32 100 14 161 -12 39 -71 109 -110 132 -16 9 -8 27 72 175 50 90 90 166 90 168 0 1 -28 2 -62 0 l-63 -3 -88 -162 c-88 -161 -89 -163 -123 -163 l-34 0 -2 163 -3 162 -52 3 -53 3 0 -380z m267 -66 c31 -7 63 -61 63 -103 0 -25 -9 -43 -34 -68 -33 -33 -37 -34 -110 -34 l-76 0 0 108 0 107 67 -2 c36 -1 77 -4 90 -8z"/>
<path d="M3480 1060 l0 -380 220 0 220 0 0 55 0 55 -170 0 -170 0 0 105 0 105 170 0 170 0 0 55 0 55 -167 2 -168 3 -3 108 -3 107 171 0 170 0 0 55 0 55 -220 0 -220 0 0 -380z"/>
<path d="M4140 1060 l0 -380 221 2 222 3 0 50 0 50 -167 3 -166 2 0 105 0 105 163 0 c90 0 166 2 168 4 2 2 2 27 1 55 l-4 51 -164 0 -164 0 0 110 0 110 166 2 167 3 0 50 0 50 -222 3 -221 2 0 -380z"/>
<path d="M4970 1115 l0 -325 -85 0 -85 0 0 -55 0 -55 225 0 225 0 0 55 0 55 -85 0 -85 0 0 325 0 325 -55 0 -55 0 0 -325z"/>
<path d="M5460 1060 l0 -380 225 0 225 0 0 55 0 55 -170 0 -170 0 0 105 0 105 168 2 167 3 3 53 3 52 -170 0 -171 0 0 110 0 110 170 0 170 0 0 55 0 55 -225 0 -225 0 0 -380z"/>
<path d="M6127 1433 c-4 -3 -7 -174 -7 -380 l0 -373 55 0 55 0 0 325 0 325 170 0 170 0 0 55 0 55 -218 0 c-120 0 -222 -3 -225 -7z"/>
</g>
<g id="layer102" fill="#e60012" stroke="none">
<path d="M855 1539 c-53 -13 -125 -40 -125 -48 0 -4 30 -36 66 -71 59 -58 150 -183 196 -268 l17 -32 181 0 180 0 0 -65 0 -65 -156 0 c-147 0 -155 -1 -149 -19 3 -10 14 -56 23 -102 l19 -84 178 0 178 0 19 55 c28 79 34 208 14 294 -45 192 -201 351 -393 401 -63 16 -185 18 -248 4z"/>
<path d="M559 1358 c-186 -234 -162 -548 56 -746 105 -96 212 -136 360 -136 78 0 115 6 165 23 66 23 180 93 214 130 l19 21 -195 0 -195 0 -6 88 c-11 162 -83 351 -187 491 -52 71 -161 181 -179 181 -6 0 -29 -24 -52 -52z"/>
</g>


</svg>