<!DOCTYPE svg PUBLIC "-//W3C//DTD SVG 20010904//EN" "http://www.w3.org/TR/2001/REC-SVG-20010904/DTD/svg10.dtd">
<svg version="1.0" xmlns="http://www.w3.org/2000/svg" width="1200px" height="564px" viewBox="0 0 12000 5640" preserveAspectRatio="xMidYMid meet">
<g id="layer101" fill="#e60012" stroke="none">
 <path d="M4113 5529 c141 -140 226 -300 268 -506 18 -88 19 -151 17 -1465 l-3 -1373 -22 -40 c-29 -54 -80 -101 -128 -119 -36 -13 1 -15 385 -15 l425 0 -45 20 c-58 26 -86 53 -118 114 l-27 50 -5 1355 c-6 1525 1 1387 -86 1567 -36 75 -61 110 -135 187 -92 97 -158 145 -287 210 -81 41 -224 90 -291 101 l-43 7 95 -93z"/>
 <path d="M2780 4664 c-144 -27 -199 -41 -287 -75 -255 -100 -427 -282 -496 -527 -21 -75 -21 -96 -27 -982 -5 -840 -6 -907 -23 -937 -27 -51 -83 -101 -127 -114 -22 -7 -40 -16 -40 -21 0 -11 837 -11 844 1 3 4 -12 13 -34 20 -54 16 -94 52 -124 113 l-26 52 0 891 c0 981 -3 935 62 1057 37 70 135 166 206 202 194 98 417 63 571 -91 73 -73 122 -160 141 -249 7 -33 10 -346 8 -934 -3 -852 -4 -886 -22 -924 -28 -55 -77 -101 -128 -118 -39 -13 -7 -15 377 -21 382 -6 492 -1 407 18 -54 11 -108 59 -138 122 l-29 58 -5 905 c-5 828 -7 910 -23 965 -70 235 -236 412 -478 509 -153 62 -233 77 -419 81 -91 2 -176 2 -190 -1z"/>
 <path d="M8390 4664 c-108 -13 -180 -26 -221 -40 l-46 -14 -66 -208 c-37 -114 -70 -221 -73 -239 l-6 -31 55 53 c101 98 301 176 526 206 73 10 102 9 189 -5 164 -28 249 -63 340 -141 124 -108 174 -280 116 -405 -44 -96 -91 -129 -455 -324 -184 -98 -369 -203 -412 -234 -152 -109 -268 -256 -318 -402 -17 -51 -22 -88 -22 -170 0 -130 18 -205 80 -330 105 -215 322 -359 608 -405 218 -35 678 -6 742 46 10 9 13 58 13 210 l0 200 -57 -58 c-100 -101 -220 -143 -408 -143 -138 0 -225 19 -316 66 -83 44 -140 104 -171 183 -18 45 -22 76 -23 161 0 98 2 108 30 159 45 82 118 135 366 266 460 242 542 295 646 409 56 62 105 141 141 228 34 83 42 241 18 351 -45 201 -192 384 -385 482 -84 42 -236 90 -348 111 -85 15 -461 28 -543 18z"/>
 <path d="M10670 4664 c-222 -34 -388 -99 -526 -208 -121 -94 -202 -212 -255 -371 l-24 -70 -5 -905 -5 -905 -24 -53 c-28 -62 -75 -106 -131 -123 -21 -7 -37 -16 -34 -20 7 -12 844 -12 844 -1 0 5 -18 14 -39 21 -49 14 -122 93 -139 149 -9 29 -12 267 -12 914 0 954 -1 932 58 1042 15 28 56 80 92 117 226 230 584 188 771 -91 16 -24 40 -76 52 -114 l22 -71 0 -885 0 -885 -23 -51 c-29 -65 -65 -99 -128 -124 l-49 -19 225 -1 c124 0 316 -3 428 -7 138 -4 202 -3 202 4 0 6 -12 14 -27 18 -48 11 -99 54 -129 108 l-29 52 -5 910 -5 910 -24 70 c-74 222 -207 378 -406 475 -112 55 -234 93 -349 109 -73 10 -270 13 -326 5z"/>
 <path d="M52 4588 c47 -12 113 -69 141 -122 l22 -41 0 -1120 0 -1120 -28 -51 c-32 -57 -69 -89 -125 -108 -30 -11 108 -14 801 -19 460 -4 843 -4 852 -1 13 5 15 39 15 230 0 203 -8 271 -23 197 -10 -50 -50 -97 -106 -125 l-55 -28 -433 0 -433 0 0 395 0 395 420 0 420 0 0 233 c-1 206 -2 228 -14 195 -19 -52 -40 -83 -78 -111 -60 -44 -84 -47 -425 -47 l-324 0 3 533 3 532 26 56 c29 60 75 103 136 125 33 11 -22 13 -397 13 -302 -1 -424 -4 -398 -11z"/>
 <path d="M5232 4584 c56 -17 128 -92 146 -152 9 -29 12 -318 12 -1139 l0 -1099 -25 -50 c-32 -64 -60 -90 -121 -114 l-49 -19 430 0 430 0 -49 19 c-60 24 -99 60 -129 119 l-22 46 0 1105 c0 1104 0 1105 21 1151 27 58 85 114 138 133 37 13 1 14 -394 15 -393 0 -430 -2 -388 -15z"/>
 <path d="M6657 4579 c34 -13 65 -35 88 -62 68 -79 65 -28 65 -1189 l0 -1049 -267 3 -268 3 -51 27 c-56 29 -96 64 -138 121 -16 21 -31 35 -33 33 -7 -6 127 -437 140 -453 7 -10 202 -13 913 -13 496 0 905 4 908 8 3 4 -24 101 -59 214 -35 113 -65 214 -67 224 -5 27 -28 29 -28 3 0 -42 -39 -106 -83 -135 l-42 -29 -232 -3 -233 -3 0 1049 c0 1161 -3 1110 65 1189 23 27 54 49 88 62 l52 20 -435 0 -435 0 52 -20z"/>
 <path d="M4430 1814 c-226 -59 -413 -257 -450 -475 -43 -254 94 -509 335 -624 95 -45 163 -59 275 -58 75 0 111 6 174 27 129 44 195 94 366 280 216 235 281 274 471 283 167 9 279 -31 395 -140 197 -184 211 -489 32 -693 -45 -51 -144 -118 -213 -144 -75 -27 -225 -38 -308 -21 -174 37 -336 179 -429 377 -16 35 -32 64 -34 64 -2 0 -4 -84 -4 -186 l0 -185 53 -56 c94 -100 233 -185 358 -219 87 -24 280 -24 369 -1 248 66 443 248 526 492 25 71 28 94 28 210 0 113 -3 140 -26 207 -14 42 -42 106 -63 143 -73 131 -236 274 -369 324 -136 51 -304 64 -444 35 -189 -39 -281 -101 -492 -330 -92 -99 -178 -183 -204 -198 -274 -161 -614 59 -575 371 20 158 163 291 335 313 177 23 355 -66 460 -230 22 -33 42 -60 47 -60 4 0 7 67 7 149 l0 149 -61 55 c-70 64 -176 120 -269 141 -81 19 -217 19 -290 0z"/>
 </g>

</svg>