<!DOCTYPE svg PUBLIC "-//W3C//DTD SVG 20010904//EN" "http://www.w3.org/TR/2001/REC-SVG-20010904/DTD/svg10.dtd">
<svg version="1.0" xmlns="http://www.w3.org/2000/svg" width="380px" height="132px" viewBox="0 0 3800 1320" preserveAspectRatio="xMidYMid meet">
<g id="layer101" fill="#34a853" stroke="none">
<path d="M3012 488 l3 -453 70 0 70 0 3 453 2 452 -75 0 -75 0 2 -452z"/>
</g>
<g id="layer102" fill="#ea4335" stroke="none">
<path d="M1193 942 c-67 -24 -118 -64 -154 -121 -40 -62 -52 -113 -47 -197 11 -172 149 -292 324 -282 118 8 214 71 265 176 33 68 33 198 0 262 -75 145 -241 215 -388 162z m186 -133 c46 -28 67 -56 82 -106 23 -85 -15 -184 -84 -216 -51 -25 -127 -22 -168 6 -118 79 -99 281 31 330 36 13 106 6 139 -14z"/>
<path d="M3423 942 c-93 -33 -168 -111 -193 -202 -16 -59 -12 -154 10 -214 71 -188 314 -247 456 -110 38 38 104 149 93 158 -2 2 -94 40 -204 86 -110 45 -202 83 -203 85 -2 2 12 20 31 41 31 34 40 38 94 42 66 5 105 -10 146 -54 l24 -26 51 34 c29 18 52 36 52 40 0 4 -14 23 -31 42 -71 81 -218 116 -326 78z m72 -363 c69 -29 125 -55 125 -60 0 -15 -52 -48 -85 -55 -44 -8 -115 24 -144 65 -22 30 -40 101 -27 101 4 0 63 -23 131 -51z"/>
</g>
<g id="layer103" fill="#4285f4" stroke="none">
<path d="M2547 1226 c-63 -17 -124 -63 -166 -122 l-33 -49 63 -29 c42 -18 65 -24 67 -17 2 7 16 26 30 43 68 80 201 76 253 -8 12 -21 23 -59 27 -96 l5 -62 -31 26 c-44 37 -95 51 -162 45 -246 -22 -360 -341 -186 -521 59 -61 117 -88 196 -93 58 -5 71 -2 123 25 53 29 57 29 57 11 0 -17 7 -19 66 -19 l65 0 -3 333 c-3 322 -4 333 -26 383 -13 28 -38 65 -55 82 -68 65 -194 95 -290 68z m173 -419 c53 -35 75 -81 75 -157 0 -76 -22 -122 -75 -157 -46 -32 -124 -32 -171 0 -88 58 -104 209 -31 291 44 49 146 61 202 23z"/>
<path d="M383 946 c-84 -21 -162 -65 -227 -130 -125 -125 -173 -288 -131 -449 84 -321 454 -469 732 -291 29 19 56 41 60 50 4 10 -9 30 -36 57 l-41 42 -27 -18 c-16 -10 -52 -30 -81 -44 -69 -32 -173 -36 -252 -7 -71 25 -151 99 -187 172 -25 50 -28 68 -28 152 0 112 18 161 86 235 66 72 126 98 235 103 83 4 97 2 153 -23 89 -40 139 -100 161 -192 l8 -33 -160 0 -159 0 3 -67 3 -68 222 -3 221 -2 7 47 c8 63 -10 175 -40 241 -30 65 -110 150 -173 185 -99 54 -234 71 -349 43z"/>
</g>
<g id="layer104" fill="#fbbc05" stroke="none">
<path d="M1874 946 c-182 -59 -266 -264 -180 -439 89 -183 350 -223 496 -77 64 64 85 118 85 220 0 70 -4 94 -24 134 -31 63 -84 116 -146 146 -59 28 -170 36 -231 16z m193 -144 c75 -53 95 -178 41 -260 -32 -48 -81 -72 -146 -72 -63 0 -109 30 -140 90 -46 89 -12 212 69 254 47 23 135 17 176 -12z"/>
</g>


</svg>