<!DOCTYPE svg PUBLIC "-//W3C//DTD SVG 20010904//EN" "http://www.w3.org/TR/2001/REC-SVG-20010904/DTD/svg10.dtd">
<svg version="1.0" xmlns="http://www.w3.org/2000/svg" width="1024px" height="1024px" viewBox="0 0 10240 10240" preserveAspectRatio="xMidYMid meet">
<g id="layer101" fill="#0096d6" stroke="none">
 <path d="M4972 10213 c13 -46 1032 -2840 1041 -2850 7 -10 172 -13 764 -13 844 0 812 2 954 -71 149 -77 270 -203 323 -336 56 -137 1151 -3154 1168 -3218 28 -100 34 -252 14 -345 -55 -262 -260 -437 -561 -480 -56 -7 -381 -10 -1100 -8 l-1019 3 -452 1240 c-1351 3715 -2166 5950 -2170 5954 -6 7 -207 -48 -374 -101 -532 -171 -1072 -450 -1509 -781 -201 -152 -337 -271 -542 -476 -331 -331 -550 -611 -787 -1006 -99 -166 -281 -531 -347 -700 -177 -448 -289 -900 -342 -1385 -25 -234 -25 -806 0 -1040 114 -1040 512 -1977 1178 -2775 193 -231 528 -551 784 -750 352 -274 811 -536 1230 -703 161 -64 502 -178 510 -170 3 3 -579 1611 -1294 3574 l-1299 3569 536 3 c294 1 537 1 539 -2 2 -2 313 -853 692 -1892 l688 -1889 411 -3 412 -2 -10 22 c-13 30 -1370 3758 -1370 3764 0 2 242 4 538 4 l537 0 649 -1784 c357 -981 658 -1817 668 -1858 26 -98 28 -268 4 -358 -57 -212 -221 -367 -453 -432 -74 -21 -104 -22 -609 -28 l-531 -5 523 -1435 522 -1435 294 1 c204 0 343 6 458 18 1026 108 1958 502 2760 1166 161 133 507 479 640 640 782 944 1190 2070 1190 3280 0 1000 -284 1957 -828 2790 -205 314 -388 538 -671 821 -283 283 -507 466 -821 671 -822 537 -1791 828 -2759 828 -170 0 -183 -1 -179 -17z"/>
 <path d="M6264 6668 c3 -13 259 -718 569 -1568 l564 -1545 406 -3 c323 -2 407 0 406 10 0 7 -255 713 -567 1568 l-568 1555 -408 3 -408 2 6 -22z"/>
 </g>

</svg>