<!DOCTYPE svg PUBLIC "-//W3C//DTD SVG 20010904//EN" "http://www.w3.org/TR/2001/REC-SVG-20010904/DTD/svg10.dtd">
<svg version="1.0" xmlns="http://www.w3.org/2000/svg" width="800px" height="267px" viewBox="0 0 8000 2670" preserveAspectRatio="xMidYMid meet">
<g id="layer101" fill="#8cc751" stroke="none">
 <path d="M0 1330 l0 -1330 210 0 210 0 0 373 0 373 68 -33 c131 -64 149 -66 658 -70 391 -4 475 -2 554 11 107 19 244 68 325 117 160 96 287 265 347 461 22 72 22 81 26 751 l3 677 -211 0 -210 0 0 -618 c0 -526 -2 -627 -16 -677 -39 -151 -154 -262 -304 -294 -77 -17 -604 -25 -783 -13 -131 9 -154 14 -212 40 -115 54 -199 154 -231 276 -11 40 -14 177 -14 669 l0 617 -210 0 -210 0 0 -1330z"/>
 <path d="M3817 2654 c-4 -4 -7 -360 -7 -791 l0 -783 -490 0 -490 0 0 -205 0 -205 1195 0 1195 0 0 205 0 205 -490 0 -490 0 -2 788 -3 787 -206 3 c-113 1 -208 -1 -212 -4z"/>
 <path d="M6234 2645 c-153 -33 -291 -110 -404 -224 -69 -70 -94 -104 -133 -181 -85 -170 -124 -396 -112 -660 8 -175 21 -266 52 -365 90 -285 283 -472 566 -547 81 -22 95 -22 940 -25 l857 -4 0 210 0 210 -828 3 -827 3 -67 33 c-122 60 -216 180 -255 323 -24 90 -24 415 1 508 32 124 100 213 203 264 104 52 97 52 966 52 l807 -1 0 208 0 208 -852 -1 c-671 0 -866 -3 -914 -14z"/>
 </g>

</svg>