<!DOCTYPE svg PUBLIC "-//W3C//DTD SVG 20010904//EN" "http://www.w3.org/TR/2001/REC-SVG-20010904/DTD/svg10.dtd">
<svg version="1.0" xmlns="http://www.w3.org/2000/svg" width="1200px" height="630px" viewBox="0 0 12000 6300" preserveAspectRatio="xMidYMid meet">
<g id="layer101" fill="#211512" stroke="none">
<path d="M6083 3920 c-90 -24 -151 -59 -202 -116 -62 -70 -64 -85 -68 -521 l-4 -393 120 0 119 0 4 363 3 363 25 49 c37 71 95 99 204 100 108 0 150 -10 191 -46 61 -54 65 -86 65 -481 l0 -348 121 0 120 0 -3 403 -3 402 -28 57 c-42 86 -126 144 -249 173 -94 22 -323 19 -415 -5z"/>
<path d="M4640 3410 l0 -520 120 0 120 0 0 210 0 210 255 0 255 0 0 -210 0 -210 120 0 120 0 0 520 0 520 -120 0 -120 0 0 -215 0 -215 -255 0 -255 0 0 215 0 215 -120 0 -120 0 0 -520z"/>
<path d="M6822 3921 c2 -5 107 -239 233 -520 l230 -511 131 0 132 0 232 513 c128 281 235 516 237 520 3 4 -57 6 -133 5 l-138 -3 -47 -115 -48 -115 -239 -3 -238 -2 -48 120 -48 120 -130 0 c-71 0 -128 -4 -126 -9z m671 -608 c-41 -98 -78 -181 -81 -185 -6 -5 -110 239 -148 345 -6 16 6 17 149 17 l155 0 -75 -177z"/>
<path d="M8217 3888 c-58 -169 -349 -984 -353 -990 -3 -4 55 -8 128 -8 l134 0 124 390 124 389 77 -282 c41 -155 89 -330 105 -390 l29 -108 144 3 145 3 120 387 120 388 116 -388 115 -387 127 -3 126 -3 -144 438 c-79 241 -156 475 -171 521 l-27 82 -149 -2 -149 -3 -110 -360 c-60 -198 -113 -363 -117 -368 -4 -4 -33 90 -65 210 -31 120 -76 287 -98 371 l-41 152 -148 0 -147 0 -15 -42z"/>
<path d="M9965 3916 c-97 -24 -196 -93 -251 -176 -47 -71 -66 -146 -71 -285 -12 -316 92 -488 332 -550 46 -12 119 -15 322 -15 l263 0 0 95 0 95 -237 0 c-230 0 -240 1 -290 24 -59 28 -96 76 -112 146 -6 25 -11 48 -11 53 0 4 146 7 325 7 l325 0 0 95 0 95 -326 0 -327 0 7 53 c10 74 42 127 96 157 44 25 49 25 298 28 l252 3 0 95 0 94 -272 -1 c-177 0 -291 -5 -323 -13z"/>
<path d="M10750 3410 l0 -520 125 0 125 0 0 520 0 520 -125 0 -125 0 0 -520z"/>
</g>
<g id="layer102" fill="#bc2930" stroke="none">
<path d="M1549 4302 c-65 -27 -129 -73 -183 -133 -47 -53 -102 -136 -94 -144 2 -2 219 -12 482 -21 337 -12 480 -14 488 -6 7 7 -9 25 -56 59 -101 73 -272 179 -355 221 -65 32 -85 37 -155 40 -60 1 -93 -3 -127 -16z"/>
<path d="M3299 4297 c-68 -29 -198 -106 -336 -199 -117 -79 -133 -95 -109 -104 16 -6 958 24 965 31 10 10 -59 107 -118 166 -92 92 -153 122 -261 126 -72 3 -94 0 -141 -20z"/>
<path d="M1458 3920 c-214 -37 -391 -198 -453 -414 -14 -46 -16 -85 -13 -175 5 -116 12 -151 30 -151 20 0 621 338 909 511 212 127 331 208 326 222 -4 14 -721 20 -799 7z"/>
</g>
<g id="layer103" fill="#eb3429" stroke="none">
<path d="M3299 4297 c-68 -29 -198 -106 -336 -199 -117 -79 -133 -95 -109 -104 9 -4 220 1 469 10 249 9 462 16 475 16 12 0 22 4 22 8 0 21 -88 138 -138 183 -85 77 -141 102 -242 106 -72 3 -94 0 -141 -20z"/>
<path d="M1880 4163 c-41 -25 -106 -66 -144 -91 l-70 -46 30 -12 c37 -15 539 -30 548 -16 3 5 -2 16 -12 24 -35 31 -217 151 -229 151 -7 0 -14 6 -17 13 -3 8 -12 11 -22 7 -12 -4 -15 -3 -10 5 10 16 11 17 -74 -35z"/>
<path d="M1512 3923 c14 -3 -5 -27 -80 -101 -116 -115 -199 -216 -288 -349 -83 -123 -154 -265 -136 -271 6 -2 10 -8 6 -13 -3 -5 2 -9 10 -9 9 0 16 4 16 10 0 5 3 9 8 8 10 -4 180 88 477 257 464 264 740 436 732 458 -3 9 -101 12 -383 13 -208 1 -371 0 -362 -3z"/>
<path d="M2833 3915 c-3 -9 -4 -17 -2 -18 155 -110 789 -482 1150 -676 l97 -51 11 44 c16 64 14 222 -4 290 -45 172 -186 329 -346 386 -99 34 -176 40 -542 40 -313 0 -358 -2 -364 -15z"/>
<path d="M2125 3714 c-453 -243 -756 -455 -845 -594 -87 -136 -93 -316 -14 -473 60 -118 195 -286 212 -262 4 6 55 74 113 152 234 312 453 667 634 1025 63 124 115 231 115 237 0 24 -42 7 -215 -85z"/>
<path d="M2755 3800 c-14 -23 258 -532 433 -810 140 -222 416 -609 434 -610 4 0 27 21 50 46 217 235 267 496 133 698 -70 106 -242 241 -520 409 -155 94 -494 277 -512 277 -7 0 -14 -4 -18 -10z"/>
<path d="M2410 3689 c-109 -151 -348 -560 -436 -745 -110 -232 -148 -375 -142 -533 3 -97 6 -113 37 -176 42 -85 124 -170 201 -207 63 -30 194 -61 236 -56 25 3 33 12 61 78 93 217 134 521 134 985 -1 251 -5 358 -27 618 -8 91 -19 97 -64 36z"/>
<path d="M2620 3703 c0 -16 -5 -73 -10 -128 -6 -55 -14 -205 -20 -333 -20 -506 28 -939 132 -1187 39 -94 46 -96 162 -71 159 36 272 119 336 250 30 60 35 81 38 164 3 53 -1 127 -8 166 -39 220 -220 588 -496 1009 -102 156 -134 186 -134 130z"/>
</g>
<g id="layer104" fill="#f37a5d" stroke="none">
<path d="M2033 3993 c15 -2 39 -2 55 0 15 2 2 4 -28 4 -30 0 -43 -2 -27 -4z"/>
<path d="M2953 3993 c20 -2 54 -2 75 0 20 2 3 4 -38 4 -41 0 -58 -2 -37 -4z"/>
<path d="M1688 3923 c106 -2 277 -2 380 0 103 1 16 2 -193 2 -209 0 -293 -1 -187 -2z"/>
<path d="M3023 3923 c103 -2 271 -2 375 0 103 1 18 2 -188 2 -206 0 -291 -1 -187 -2z"/>
<path d="M2583 3015 c0 -44 2 -61 4 -37 2 23 2 59 0 80 -2 20 -4 1 -4 -43z"/>
<path d="M3049 3063 c6 -12 15 -33 20 -46 l10 -25 -112 1 c-121 0 -193 -14 -311 -61 l-68 -27 5 -145 c11 -271 60 -540 129 -705 39 -94 46 -96 162 -71 160 36 272 119 336 250 31 62 35 80 38 168 5 108 -6 179 -45 303 -27 86 -145 351 -164 369 -9 8 -9 6 0 -11z"/>
<path d="M3161 3033 c82 -135 402 -595 455 -652 7 -7 89 77 124 125 44 62 30 54 -20 -11 -23 -30 -46 -55 -50 -55 -4 0 -10 14 -14 32 -12 59 -84 192 -141 261 -61 73 -147 142 -235 187 -44 23 -63 41 -94 89 -41 66 -62 85 -25 24z"/>
<path d="M2490 2850 c0 -10 -22 -41 -50 -69 -90 -90 -165 -225 -195 -353 -28 -121 -15 -317 30 -431 7 -16 3 -17 -36 -13 -36 4 -38 4 -14 -3 17 -5 47 -9 68 -10 38 -1 39 0 69 67 40 89 92 297 112 451 18 140 32 381 23 381 -4 0 -7 -9 -7 -20z"/>
</g>
<g id="layer105" fill="#f5a47d" stroke="none">
<path d="M3023 3923 c104 -2 270 -2 370 0 100 1 16 2 -188 2 -203 0 -285 -1 -182 -2z"/>
<path d="M2865 2770 c-104 -22 -264 -108 -265 -142 0 -9 7 -70 15 -135 20 -153 65 -337 107 -438 39 -94 46 -96 162 -71 160 36 272 119 337 251 33 68 34 72 34 200 0 106 -4 145 -23 210 -17 59 -28 81 -40 82 -9 1 -43 11 -75 23 -65 23 -191 34 -252 20z"/>
</g>
<g id="layer106" fill="#f8c4a5" stroke="none">
<path d="M3018 3923 c101 -2 263 -2 360 0 97 1 15 2 -183 2 -198 0 -278 -1 -177 -2z"/>
<path d="M2849 2672 c-72 -19 -146 -63 -198 -116 -34 -35 -34 -35 -28 -108 11 -122 63 -318 114 -425 22 -48 28 -53 57 -53 50 0 178 35 237 66 72 36 151 119 190 201 29 59 34 81 37 163 5 127 -7 172 -60 210 -95 69 -233 94 -349 62z"/>
</g>


</svg>