<!DOCTYPE svg PUBLIC "-//W3C//DTD SVG 20010904//EN" "http://www.w3.org/TR/2001/REC-SVG-20010904/DTD/svg10.dtd">
<svg version="1.0" xmlns="http://www.w3.org/2000/svg" width="1200px" height="302px" viewBox="0 0 12000 3020" preserveAspectRatio="xMidYMid meet">
<g id="layer101" fill="#231f20" stroke="none">
<path d="M2760 1505 l0 -835 140 0 140 0 0 835 0 835 -140 0 -140 0 0 -835z"/>
<path d="M3380 1920 c-162 -231 -301 -428 -307 -438 -11 -16 21 -66 260 -412 l272 -395 163 -3 c89 -1 162 0 162 3 0 4 -118 180 -262 392 -144 213 -261 391 -261 397 0 6 137 200 304 431 168 231 308 426 313 433 6 9 -31 12 -171 11 l-178 0 -295 -419z"/>
<path d="M4140 2215 l0 -125 375 0 375 0 0 -225 0 -224 -344 -3 c-386 -3 -363 1 -430 -82 l-31 -38 -3 -424 -3 -424 141 0 140 0 0 355 0 355 265 0 265 0 0 -355 0 -355 140 0 140 0 0 760 c0 625 -2 766 -14 793 -17 39 -71 92 -109 106 -18 7 -182 11 -468 11 l-439 0 0 -125z"/>
<path d="M5525 2324 c-47 -25 -76 -55 -96 -99 -17 -38 -19 -80 -19 -716 l0 -677 28 -53 c22 -43 38 -59 81 -81 l53 -28 417 0 416 0 52 24 c36 17 60 38 80 67 l28 43 3 690 2 691 -22 44 c-13 25 -40 59 -61 75 l-39 31 -446 2 c-393 2 -451 1 -477 -13z m765 -819 l0 -575 -295 0 -295 0 0 575 0 575 295 0 295 0 0 -575z"/>
<path d="M6925 2326 c-41 -18 -92 -77 -105 -123 -8 -26 -10 -247 -8 -720 l3 -681 30 -43 c17 -23 48 -52 70 -63 38 -20 56 -21 468 -24 l427 -3 0 131 0 130 -360 0 -360 0 0 575 0 575 358 2 357 3 3 128 3 127 -428 0 c-331 -1 -435 -4 -458 -14z"/>
<path d="M8118 2320 c-45 -24 -82 -72 -97 -125 -15 -56 -15 -1325 0 -1380 15 -52 82 -119 134 -134 26 -7 181 -11 453 -11 l412 0 0 130 0 130 -360 0 -360 0 0 215 0 215 350 0 350 0 0 130 0 130 -350 0 -350 0 0 230 0 230 360 0 360 0 0 130 0 130 -432 0 c-410 -1 -435 -2 -470 -20z"/>
<path d="M9260 1505 l0 -835 473 0 c294 0 486 4 509 10 48 14 94 53 118 101 19 36 20 60 20 367 l0 328 -29 46 c-40 64 -94 88 -194 88 -42 0 -77 2 -77 4 0 2 90 165 199 362 l200 359 -151 3 c-83 1 -155 -1 -159 -5 -8 -9 -539 -964 -539 -969 0 -2 106 -4 235 -4 l235 0 0 -215 0 -215 -280 0 -280 0 0 705 0 705 -140 0 -140 0 0 -835z"/>
<path d="M10709 2320 c-47 -25 -86 -71 -99 -118 -6 -22 -10 -167 -10 -357 0 -291 2 -324 19 -360 22 -48 50 -79 94 -102 28 -16 70 -18 375 -21 l342 -3 0 -214 0 -215 -395 0 -395 0 0 -130 0 -131 468 3 c424 3 470 5 499 21 44 23 72 54 94 102 18 38 19 80 19 793 l0 752 -487 0 c-461 -1 -490 -2 -524 -20z m721 -470 l0 -230 -270 0 -270 0 0 230 0 230 270 0 270 0 0 -230z"/>
</g>
<g id="layer102" fill="#e31a2f" stroke="none">
<path d="M1270 2495 l-235 -235 -377 0 -378 0 2 -752 3 -753 380 -2 379 -2 236 -236 235 -235 373 0 372 0 0 378 0 377 -235 235 -235 235 0 -373 0 -372 -372 0 -373 0 608 608 607 607 0 378 0 377 -378 0 -377 0 -235 -235z m520 -610 c0 -201 -3 -365 -8 -365 -4 0 -171 164 -372 365 l-365 365 373 0 372 0 0 -365z m-760 -382 l0 -738 -370 370 -370 370 367 367 c203 203 369 368 370 368 2 0 3 -332 3 -737z"/>
</g>


</svg>