<!DOCTYPE svg PUBLIC "-//W3C//DTD SVG 20010904//EN" "http://www.w3.org/TR/2001/REC-SVG-20010904/DTD/svg10.dtd">
<svg version="1.0" xmlns="http://www.w3.org/2000/svg" width="1200px" height="252px" viewBox="0 0 12000 2520" preserveAspectRatio="xMidYMid meet">
<g id="layer101" fill="#e60012" stroke="none">
 <path d="M2673 2480 c-435 -55 -755 -319 -855 -705 -19 -76 -23 -115 -23 -250 0 -136 4 -174 24 -250 114 -437 488 -715 961 -715 493 0 846 276 941 735 10 49 17 90 15 92 -3 3 -57 26 -491 205 -93 39 -251 104 -350 145 -99 41 -241 100 -315 130 -74 30 -137 57 -140 60 -18 17 139 104 230 129 86 23 271 23 360 0 79 -20 228 -91 292 -140 26 -20 49 -36 52 -36 5 0 294 218 320 241 26 23 -149 158 -299 230 -136 66 -212 92 -329 114 -100 20 -297 27 -393 15z m-232 -949 c79 -32 239 -98 354 -146 116 -48 246 -103 290 -121 44 -18 81 -37 83 -43 12 -37 -112 -170 -193 -207 -123 -57 -284 -54 -413 6 -168 78 -272 263 -272 482 0 48 1 88 3 88 2 0 68 -27 148 -59z"/>
 <path d="M6865 2481 c-153 -19 -314 -78 -446 -163 -179 -116 -331 -326 -391 -543 -30 -110 -33 -385 -5 -485 48 -171 123 -304 236 -423 125 -131 275 -219 461 -272 128 -36 342 -45 473 -21 450 85 764 420 806 858 35 372 -153 734 -476 917 -97 55 -203 96 -298 116 -92 19 -274 27 -360 16z m270 -456 c204 -54 340 -233 352 -465 7 -119 -7 -188 -58 -290 -145 -290 -534 -359 -768 -135 -70 67 -105 128 -131 231 -74 288 61 563 318 651 81 27 199 31 287 8z"/>
 <path d="M10786 2479 c-112 -15 -185 -37 -293 -89 -125 -59 -179 -95 -267 -179 -117 -112 -212 -269 -257 -423 -30 -105 -38 -343 -14 -459 71 -352 341 -633 707 -735 115 -32 326 -43 446 -24 225 36 416 134 568 292 80 83 117 135 164 228 79 157 105 286 97 482 -6 151 -24 225 -86 354 -53 112 -98 176 -184 263 -136 139 -316 237 -503 276 -97 20 -285 27 -378 14z m274 -450 c125 -29 257 -134 314 -251 104 -216 64 -471 -100 -634 -267 -265 -714 -142 -809 223 -25 94 -20 239 11 332 49 150 173 275 317 320 70 22 194 27 267 10z"/>
 <path d="M60 1245 l0 -1215 260 0 260 0 0 975 0 975 583 2 582 3 0 235 0 235 -842 3 -843 2 0 -1215z"/>
 <path d="M3920 1525 l0 -935 260 0 260 0 0 121 0 120 69 -63 c93 -83 175 -132 291 -170 90 -31 103 -32 245 -32 172 -1 231 12 360 74 183 89 314 251 372 460 16 59 18 121 18 710 l0 645 -255 0 -255 0 -5 -580 -5 -580 -27 -55 c-101 -205 -368 -295 -584 -196 -72 33 -157 116 -191 185 l-28 56 -5 585 -5 585 -257 3 -258 2 0 -935z"/>
 <path d="M8686 2452 c-5 -8 -37 -85 -236 -572 -37 -91 -107 -259 -155 -375 -130 -317 -324 -788 -356 -868 l-19 -47 296 2 296 3 62 170 c34 94 97 267 140 385 43 118 116 317 162 442 46 125 84 232 84 238 0 31 19 0 44 -72 16 -46 64 -180 108 -298 99 -271 215 -589 271 -745 l44 -120 296 -3 297 -2 -21 52 c-11 29 -47 116 -79 193 -32 77 -95 230 -140 340 -45 110 -108 263 -140 340 -32 77 -104 253 -160 390 -56 138 -127 309 -157 380 -29 72 -58 140 -63 153 l-10 22 -279 0 c-154 0 -282 -4 -285 -8z"/>
 </g>

</svg>