<!DOCTYPE svg PUBLIC "-//W3C//DTD SVG 20010904//EN" "http://www.w3.org/TR/2001/REC-SVG-20010904/DTD/svg10.dtd">
<svg version="1.0" xmlns="http://www.w3.org/2000/svg" width="1200px" height="237px" viewBox="0 0 12000 2370" preserveAspectRatio="xMidYMid meet">
<g id="layer101" fill="#003399" stroke="none">
 <path d="M3355 2091 c-93 -27 -144 -58 -215 -130 -72 -73 -112 -144 -135 -243 -22 -92 -22 -1023 0 -1116 40 -170 164 -307 328 -361 63 -21 72 -21 928 -19 l864 3 80 39 c138 67 232 183 270 333 14 54 16 135 13 595 l-3 533 -34 79 c-62 144 -205 265 -349 295 -36 8 -307 11 -870 10 -747 0 -822 -2 -877 -18z m1595 -926 l0 -475 -710 0 -710 0 0 468 c0 258 3 472 7 475 3 4 323 7 710 7 l703 0 0 -475z"/>
 <path d="M1743 2029 c-65 -80 -372 -463 -792 -986 l-266 -332 -3 690 -2 689 -290 0 -290 0 0 -930 0 -930 503 0 502 1 149 187 c82 103 327 409 545 681 l396 494 3 -682 2 -681 285 0 285 0 0 929 c0 734 -3 930 -12 933 -7 2 -225 5 -484 7 l-471 3 -60 -73z"/>
 <path d="M5700 1160 l0 -930 300 0 300 0 0 435 c0 239 2 435 5 435 5 0 391 -335 849 -737 l151 -133 395 0 c386 0 394 0 375 19 -18 16 -148 125 -765 635 -80 66 -173 142 -207 170 -34 28 -61 54 -60 57 2 6 81 73 483 405 586 484 684 566 684 570 0 2 -188 4 -417 3 l-418 0 -216 -197 c-118 -108 -359 -327 -535 -486 l-319 -290 -3 487 -2 487 -300 0 -300 0 0 -930z"/>
 <path d="M8330 1160 l0 -930 295 0 295 0 0 930 0 930 -295 0 -295 0 0 -930z"/>
 <path d="M9042 2082 c2 -4 79 -145 172 -312 198 -356 161 -290 366 -660 202 -364 197 -355 355 -643 l130 -236 381 -1 380 0 146 263 c80 144 287 516 460 827 173 311 329 592 348 625 18 33 44 79 57 103 l25 42 -346 0 -345 0 -57 -107 c-31 -60 -69 -130 -84 -158 l-26 -50 -578 0 -577 0 -65 145 c-36 80 -68 151 -71 158 -4 9 -82 12 -340 12 -184 0 -333 -4 -331 -8z m1766 -744 c-17 -26 -222 -381 -311 -538 -33 -58 -60 -106 -61 -107 -1 -1 -11 14 -21 35 -11 20 -54 100 -96 177 -41 77 -97 181 -123 230 -27 50 -64 117 -82 151 -19 33 -34 64 -34 67 0 4 167 7 371 7 l371 0 -14 -22z"/>
 </g>

</svg>