<!DOCTYPE svg PUBLIC "-//W3C//DTD SVG 20010904//EN" "http://www.w3.org/TR/2001/REC-SVG-20010904/DTD/svg10.dtd">
<svg version="1.0" xmlns="http://www.w3.org/2000/svg" width="1200px" height="412px" viewBox="0 0 12000 4120" preserveAspectRatio="xMidYMid meet">
<g id="layer101" fill="#f50514" stroke="none">
 <path d="M1125 2998 c-3 -7 -4 -434 -3 -948 l3 -935 538 -3 537 -2 0 110 0 110 -430 0 -430 0 0 730 0 730 730 0 730 0 0 -435 0 -435 105 0 105 0 0 545 0 545 -940 0 c-743 0 -942 -3 -945 -12z"/>
 <path d="M4014 2625 c-188 -41 -335 -188 -389 -391 -22 -81 -22 -251 0 -340 47 -188 174 -331 345 -386 91 -29 249 -29 341 1 171 54 294 193 344 386 19 77 19 250 0 334 -69 293 -342 461 -641 396z m267 -212 c96 -54 146 -154 156 -315 13 -197 -61 -357 -185 -405 -104 -40 -238 -14 -310 60 -89 93 -126 280 -87 445 18 77 36 112 82 163 62 68 117 90 219 85 58 -2 82 -9 125 -33z"/>
 <path d="M10289 2625 c-179 -36 -301 -152 -316 -301 l-6 -54 110 0 111 0 11 47 c15 57 62 107 116 122 51 14 179 14 229 0 82 -23 126 -106 93 -175 -23 -46 -73 -69 -254 -115 -85 -21 -178 -49 -207 -62 -73 -34 -129 -87 -156 -149 -19 -44 -22 -65 -18 -137 5 -104 26 -149 97 -213 86 -78 237 -115 394 -98 179 21 299 109 342 254 27 89 30 86 -94 86 l-109 0 -7 -30 c-17 -77 -100 -130 -205 -129 -108 0 -169 31 -190 95 -10 28 -8 40 7 71 24 49 60 65 245 112 86 21 184 51 217 66 71 32 142 102 162 161 19 57 17 169 -5 234 -27 76 -110 159 -191 189 -115 43 -244 52 -376 26z"/>
 <path d="M9208 2611 c-87 -22 -166 -76 -207 -139 -56 -88 -62 -143 -59 -579 l3 -388 113 -3 112 -3 0 393 c0 254 4 407 11 433 27 98 148 149 271 115 41 -12 91 -50 111 -84 9 -15 13 -134 17 -436 l5 -415 113 -3 113 -3 -3 438 c-3 423 -4 440 -24 484 -45 97 -129 165 -240 193 -83 21 -249 20 -336 -3z"/>
 <path d="M4865 2608 c-3 -7 -4 -258 -3 -558 l3 -545 112 -3 112 -3 172 288 c95 158 195 331 223 384 l51 96 0 -381 0 -381 110 0 110 0 0 555 0 555 -109 0 -109 0 -180 -290 c-99 -159 -201 -329 -226 -376 l-46 -86 0 376 0 376 -108 3 c-80 2 -109 -1 -112 -10z"/>
 <path d="M6010 2060 l0 -560 408 2 407 3 0 95 0 95 -292 3 -293 2 0 120 0 120 255 0 255 0 0 95 0 95 -255 0 -255 0 0 145 0 145 295 0 296 0 -3 98 -3 97 -407 3 -408 2 0 -560z"/>
 <path d="M7045 2608 c-3 -7 -4 -258 -3 -558 l3 -545 225 -3 c254 -3 379 8 446 37 91 40 153 111 184 210 55 174 -15 353 -168 428 -56 27 -62 28 -254 31 l-198 3 -2 202 -3 202 -113 3 c-84 2 -114 -1 -117 -10z m563 -601 c49 -27 72 -71 72 -142 0 -43 -6 -70 -20 -93 -32 -52 -75 -65 -237 -70 l-143 -5 0 168 0 167 148 -4 c115 -3 154 -8 180 -21z"/>
 <path d="M8085 2608 c-3 -7 -4 -258 -3 -558 l3 -545 110 0 110 0 3 458 2 457 260 0 261 0 -3 98 -3 97 -368 3 c-289 2 -369 0 -372 -10z"/>
 <path d="M1990 2225 l0 -295 -100 0 -100 0 0 -79 0 -78 58 -6 c32 -2 73 -12 91 -22 36 -18 70 -81 71 -127 l0 -28 95 0 95 0 0 465 0 465 -105 0 -105 0 0 -295z"/>
 <path d="M2800 1505 l0 -175 -175 0 -176 0 3 -107 3 -108 173 -3 172 -2 0 -170 0 -170 105 0 105 0 0 170 0 170 173 2 172 3 3 108 3 107 -176 0 -175 0 0 175 0 175 -105 0 -105 0 0 -175z"/>
 </g>

</svg>