<!DOCTYPE svg PUBLIC "-//W3C//DTD SVG 20010904//EN" "http://www.w3.org/TR/2001/REC-SVG-20010904/DTD/svg10.dtd">
<svg version="1.0" xmlns="http://www.w3.org/2000/svg" width="1200px" height="675px" viewBox="0 0 12000 6750" preserveAspectRatio="xMidYMid meet">
<g id="layer101" fill="#008a56" stroke="none">
 <path d="M3030 3475 l0 -955 245 0 245 0 0 459 0 459 51 45 c102 90 279 165 489 210 139 29 453 31 599 3 333 -62 579 -214 645 -396 24 -67 18 -167 -13 -233 -89 -184 -361 -328 -705 -373 -158 -21 -400 -14 -536 16 -52 11 -110 23 -127 27 l-33 6 0 -60 0 -60 58 -16 c232 -65 655 -88 942 -51 486 62 867 256 983 501 28 60 32 78 32 153 0 79 -3 92 -37 161 -117 238 -473 420 -954 490 -128 18 -178 20 -402 16 -304 -5 -433 -23 -651 -88 -84 -25 -234 -85 -287 -115 -24 -13 -45 -24 -48 -24 -3 0 -6 176 -6 390 l0 390 -245 0 -245 0 0 -955z"/>
 <path d="M5990 3475 l0 -955 245 0 245 0 0 458 0 458 33 31 c174 163 518 262 867 250 299 -11 529 -77 706 -203 123 -87 183 -180 192 -296 18 -257 -298 -475 -768 -529 -141 -16 -376 -6 -500 21 -52 11 -110 23 -127 27 l-33 6 0 -60 0 -60 59 -16 c236 -66 650 -88 944 -51 474 60 856 253 974 492 34 68 37 81 37 161 0 75 -4 94 -30 151 -34 73 -120 172 -202 232 -181 134 -498 241 -822 278 -142 16 -561 8 -693 -14 -220 -36 -449 -107 -580 -180 -25 -14 -48 -26 -51 -26 -3 0 -6 176 -6 390 l0 390 -245 0 -245 0 0 -955z"/>
 <path d="M1285 3864 c-393 -53 -713 -186 -883 -368 -71 -76 -109 -150 -125 -239 -47 -276 290 -555 803 -666 249 -53 624 -68 882 -35 389 50 714 185 885 368 109 116 150 239 120 362 -21 83 -51 136 -123 214 -167 180 -491 313 -889 364 -148 20 -526 20 -670 0z m470 -174 c381 -80 619 -258 633 -475 15 -230 -249 -435 -662 -512 -116 -22 -446 -24 -556 -4 -265 47 -450 131 -577 261 -92 94 -127 201 -99 309 54 213 330 381 716 437 136 19 414 11 545 -16z"/>
 <path d="M9951 3859 c-477 -71 -822 -251 -939 -488 -34 -69 -37 -82 -37 -161 0 -79 3 -92 37 -161 121 -246 494 -432 987 -494 189 -24 585 -17 756 14 602 108 974 398 909 708 -35 168 -172 307 -417 423 -175 82 -360 134 -594 165 -168 22 -537 19 -702 -6z m374 -149 c489 -56 828 -319 751 -584 -26 -89 -72 -155 -155 -219 -131 -102 -295 -168 -521 -209 -112 -20 -440 -17 -560 6 -260 48 -488 162 -585 294 -198 269 17 561 501 678 175 42 384 55 569 34z"/>
 </g>

</svg>