<!DOCTYPE svg PUBLIC "-//W3C//DTD SVG 20010904//EN" "http://www.w3.org/TR/2001/REC-SVG-20010904/DTD/svg10.dtd">
<svg version="1.0" xmlns="http://www.w3.org/2000/svg" width="1200px" height="330px" viewBox="0 0 12000 3300" preserveAspectRatio="xMidYMid meet">
<g id="layer101" fill="#4d4084" stroke="none">
<path d="M3790 1955 l0 -1065 -265 0 -265 0 0 -310 0 -310 885 0 885 0 0 310 0 310 -265 0 -265 0 0 1065 0 1065 -355 0 -355 0 0 -1065z"/>
</g>
<g id="layer102" fill="#91479a" stroke="none">
<path d="M5200 1645 l0 -1375 350 0 350 0 0 515 0 515 445 0 445 0 0 -515 0 -515 350 0 350 0 0 1375 0 1375 -350 0 -350 0 0 -550 0 -550 -445 0 -445 0 0 550 0 550 -350 0 -350 0 0 -1375z"/>
</g>
<g id="layer103" fill="#fc6719" stroke="none">
<path d="M7700 1645 l0 -1375 760 0 760 0 0 310 0 310 -420 0 -420 0 0 210 0 210 410 0 410 0 0 310 0 310 -410 0 -410 0 0 235 0 235 420 0 420 0 0 310 0 310 -760 0 -760 0 0 -1375z"/>
</g>
<g id="layer104" fill="#1fcfcb" stroke="none">
<path d="M1630 3050 c-298 -53 -559 -189 -776 -405 -214 -213 -340 -457 -389 -754 -14 -82 -16 -139 -12 -275 11 -335 95 -586 276 -827 217 -288 512 -474 868 -546 135 -27 463 -25 595 4 286 64 522 190 719 383 300 295 445 683 417 1121 -41 667 -538 1199 -1218 1304 -131 20 -349 18 -480 -5z m475 -630 c184 -57 343 -198 438 -387 132 -260 109 -623 -54 -867 -206 -309 -588 -412 -919 -250 -81 40 -109 60 -185 138 -104 104 -156 194 -201 341 -24 80 -27 106 -27 240 0 123 4 164 21 230 83 303 284 505 567 571 88 20 270 12 360 -16z"/>
</g>
<g id="layer105" fill="#fcce01" stroke="none">
<path d="M9430 1645 l0 -1375 533 0 c569 0 703 7 856 46 369 92 611 394 651 809 42 449 -208 844 -599 943 l-71 19 365 459 c200 252 364 462 365 467 0 4 -179 7 -397 7 l-398 -1 -315 -443 -315 -444 -3 444 -2 444 -335 0 -335 0 0 -1375z m1118 -24 c165 -57 240 -156 250 -330 10 -191 -73 -316 -248 -373 -54 -17 -98 -22 -257 -26 l-193 -4 0 382 0 382 193 -4 c164 -4 201 -8 255 -27z"/>
</g>


</svg>