<!DOCTYPE svg PUBLIC "-//W3C//DTD SVG 20010904//EN" "http://www.w3.org/TR/2001/REC-SVG-20010904/DTD/svg10.dtd">
<svg version="1.0" xmlns="http://www.w3.org/2000/svg" width="680px" height="189px" viewBox="0 0 6800 1890" preserveAspectRatio="xMidYMid meet">
<g id="layer101" fill="#005bac" stroke="none">
<path d="M3041 1305 l-103 -105 50 -57 c27 -32 61 -68 74 -81 l25 -22 159 175 c87 97 161 180 162 186 2 5 -51 9 -130 9 l-134 0 -103 -105z"/>
</g>
<g id="layer102" fill="#eb6100" stroke="none">
<path d="M398 1400 c-53 -16 -97 -51 -117 -94 -20 -40 -21 -60 -21 -311 0 -252 1 -271 21 -312 15 -30 35 -52 67 -71 l47 -27 340 -3 c248 -2 352 0 384 9 64 18 116 73 130 138 14 67 14 465 0 532 -14 62 -65 119 -125 137 -48 14 -680 16 -726 2z m591 -174 c45 -24 51 -52 51 -231 0 -179 -6 -207 -51 -231 -37 -18 -424 -20 -464 -2 -48 22 -55 52 -55 235 1 179 6 204 51 229 36 20 429 20 468 0z"/>
<path d="M1452 1384 c-37 -19 -59 -38 -77 -68 l-25 -43 0 -346 0 -347 105 0 105 0 0 290 c0 316 3 334 55 358 40 18 427 16 464 -2 48 -25 51 -44 51 -356 l0 -290 105 0 105 0 0 345 c0 325 -1 348 -20 385 -21 42 -57 71 -109 88 -23 8 -143 12 -371 12 l-336 0 -52 -26z"/>
<path d="M2440 995 l0 -415 110 0 110 0 2 247 3 248 220 -247 219 -248 149 0 c114 0 148 3 145 13 -3 6 -168 193 -369 414 l-364 401 -112 1 -113 1 0 -415z"/>
<path d="M3500 995 l0 -416 118 3 117 3 0 410 0 410 -117 3 -118 3 0 -416z"/>
<path d="M4150 1080 l0 -330 -160 0 -160 0 0 -85 0 -85 440 0 440 0 0 85 0 85 -160 0 -160 0 -2 328 -3 327 -117 3 -118 3 0 -331z"/>
<path d="M4889 1382 c-39 -20 -58 -38 -76 -71 -22 -43 -23 -51 -23 -314 0 -254 1 -273 21 -314 15 -30 35 -52 67 -71 l47 -27 368 -3 367 -3 0 86 0 85 -290 0 c-203 0 -297 4 -315 12 -34 15 -55 56 -55 108 l0 40 305 0 305 0 0 85 0 85 -305 0 -305 0 0 40 c0 52 21 93 55 108 18 8 112 12 315 12 l290 0 0 85 0 85 -359 0 -359 0 -53 -28z"/>
<path d="M5877 1395 c-50 -17 -85 -50 -108 -100 -17 -36 -19 -71 -19 -378 l0 -338 108 3 107 3 3 302 2 301 31 26 31 26 249 0 249 0 0 85 0 85 -307 0 c-235 -1 -317 -4 -346 -15z"/>
</g>


</svg>