<!DOCTYPE svg PUBLIC "-//W3C//DTD SVG 20010904//EN" "http://www.w3.org/TR/2001/REC-SVG-20010904/DTD/svg10.dtd">
<svg version="1.0" xmlns="http://www.w3.org/2000/svg" width="1200px" height="212px" viewBox="0 0 12000 2120" preserveAspectRatio="xMidYMid meet">
<g id="layer101" fill="#2c4285" stroke="none">
 <path d="M1880 1995 c-147 -33 -244 -108 -303 -233 -29 -61 -32 -75 -32 -167 0 -89 3 -106 28 -156 42 -86 122 -164 209 -203 96 -43 167 -62 313 -81 162 -20 264 -44 286 -66 21 -21 34 -78 25 -112 -10 -40 -79 -70 -160 -71 -102 0 -161 36 -175 106 -6 31 -10 33 -51 36 -25 2 -131 1 -237 -3 l-191 -7 19 -70 c27 -96 62 -162 120 -223 59 -62 119 -97 219 -124 159 -44 470 -52 604 -16 165 46 267 138 319 290 6 18 13 212 17 470 6 411 8 445 28 512 12 40 22 77 22 83 0 7 -81 9 -242 8 l-243 -3 -10 -57 -10 -56 -73 48 c-135 91 -330 130 -482 95z m432 -322 c18 -10 47 -38 65 -62 32 -41 33 -46 33 -138 0 -80 -2 -94 -15 -89 -8 3 -80 26 -159 52 -80 25 -152 54 -161 64 -23 25 -30 93 -15 130 7 17 24 40 39 51 23 19 35 21 103 16 50 -3 89 -12 110 -24z"/>
 <path d="M4768 2000 c-230 -39 -343 -176 -343 -415 0 -92 2 -104 30 -154 86 -157 226 -230 505 -267 245 -31 314 -57 326 -119 14 -77 -43 -131 -151 -142 -42 -4 -63 -1 -99 16 -47 23 -86 73 -86 110 0 21 -2 21 -235 21 -267 0 -246 9 -219 -94 48 -185 167 -295 381 -348 76 -19 115 -22 293 -23 223 0 273 8 388 63 74 35 123 85 160 164 51 107 54 142 62 598 7 394 9 430 29 495 11 38 21 71 21 72 0 2 -114 3 -254 3 l-254 0 -7 -42 c-13 -83 -11 -82 -61 -47 -138 95 -323 136 -486 109z m399 -311 c38 -14 81 -56 104 -101 25 -49 28 -214 4 -204 -8 3 -80 26 -159 52 -80 25 -152 54 -161 64 -42 47 -22 141 38 179 36 23 126 28 174 10z"/>
 <path d="M6360 1999 c-88 -9 -232 -49 -298 -83 -134 -68 -213 -182 -238 -342 l-6 -41 123 -6 c67 -4 175 -7 239 -7 l118 0 6 36 c11 57 67 111 129 124 82 17 167 -4 205 -49 14 -18 16 -75 2 -101 -14 -27 -92 -53 -283 -95 -97 -21 -205 -52 -255 -73 -189 -78 -280 -235 -242 -417 52 -251 317 -385 700 -355 317 25 502 155 544 383 l7 37 -229 0 -229 0 -24 -46 c-35 -68 -74 -86 -172 -82 -72 3 -81 6 -103 31 -49 57 -13 126 73 141 66 12 355 85 420 107 74 24 168 83 207 130 16 19 40 58 54 88 22 49 24 62 20 170 -5 140 -28 200 -108 285 -89 94 -221 147 -416 166 -112 11 -138 11 -244 -1z"/>
 <path d="M7733 2001 c-79 -13 -182 -47 -238 -80 -216 -125 -338 -383 -322 -681 7 -124 25 -195 78 -309 31 -67 54 -98 112 -155 83 -82 157 -124 282 -162 78 -23 108 -27 225 -27 118 0 146 3 225 27 125 38 178 69 266 156 88 86 136 171 171 302 31 116 31 335 -1 453 -64 243 -218 393 -466 455 -90 23 -254 33 -332 21z m216 -387 c128 -51 182 -341 99 -537 -39 -90 -135 -140 -224 -115 -58 16 -128 90 -148 158 -40 133 -29 288 27 400 26 54 40 69 77 88 52 26 114 28 169 6z"/>
 <path d="M11158 1985 c-90 -17 -181 -52 -248 -95 -71 -46 -173 -157 -209 -229 -70 -138 -96 -333 -67 -499 65 -371 308 -566 706 -565 283 1 476 103 574 305 36 73 66 172 66 215 l0 23 -231 0 -230 0 -10 -29 c-37 -106 -82 -141 -181 -141 -131 0 -189 61 -210 225 -21 166 25 350 103 405 48 35 130 38 188 8 55 -28 80 -61 96 -125 l12 -48 233 -3 c129 -1 237 1 241 5 4 5 -1 42 -12 83 -47 185 -155 324 -310 398 -46 22 -111 48 -144 57 -86 23 -272 28 -367 10z"/>
 <path d="M0 1045 l0 -925 423 0 c457 0 601 8 717 41 212 59 360 211 417 429 22 86 22 261 0 353 -28 113 -83 213 -162 293 -137 139 -265 174 -641 174 l-204 0 -2 278 -3 277 -272 3 -273 2 0 -925z m833 -75 c59 -6 101 -16 129 -32 133 -73 125 -247 -16 -321 -36 -19 -60 -22 -213 -25 l-173 -4 0 196 0 196 93 0 c50 0 132 -5 180 -10z"/>
 <path d="M3010 1295 l0 -675 240 0 240 0 0 71 0 71 60 -55 c93 -87 229 -125 400 -114 243 17 366 131 399 371 7 46 11 265 11 542 l0 464 -250 0 -250 0 0 -402 c-1 -496 -5 -524 -88 -553 -63 -21 -110 -19 -162 8 -89 44 -99 105 -100 595 l0 352 -250 0 -250 0 0 -675z"/>
 <path d="M8632 1293 l3 -678 235 0 235 0 5 73 5 73 45 -46 c87 -90 179 -120 365 -120 108 0 140 4 187 22 118 44 193 122 241 251 21 55 22 74 25 580 l3 522 -250 0 -250 0 -3 -437 c-3 -480 -4 -484 -63 -512 -51 -25 -126 -26 -179 -3 -40 18 -51 29 -74 79 l-27 58 -6 405 c-3 223 -7 406 -7 408 -1 1 -112 2 -247 2 l-245 0 2 -677z"/>
 <path d="M10072 1293 l3 -678 248 -3 247 -2 0 680 0 680 -250 0 -250 0 2 -677z"/>
 <path d="M10074 457 c-2 -7 -3 -87 -2 -177 l3 -165 248 -3 247 -2 0 180 0 180 -245 0 c-191 0 -247 -3 -251 -13z"/>
 </g>

</svg>