<!DOCTYPE svg PUBLIC "-//W3C//DTD SVG 20010904//EN" "http://www.w3.org/TR/2001/REC-SVG-20010904/DTD/svg10.dtd">
<svg version="1.0" xmlns="http://www.w3.org/2000/svg" width="1200px" height="900px" viewBox="0 0 12000 9000" preserveAspectRatio="xMidYMid meet">
<g id="layer101" fill="#1428a0" stroke="none">
 <path d="M1095 5295 c-178 -33 -286 -108 -348 -245 -16 -35 -21 -73 -25 -172 l-4 -128 206 0 206 0 0 95 c0 145 31 185 145 185 100 0 148 -47 149 -146 2 -97 -48 -143 -299 -284 -308 -171 -396 -274 -397 -465 -1 -112 16 -183 61 -252 63 -97 159 -152 309 -178 164 -29 368 -11 480 42 129 61 190 163 199 336 l6 97 -197 0 -196 0 0 -70 c0 -43 -6 -82 -15 -99 -28 -55 -122 -77 -190 -45 -41 19 -65 67 -65 130 0 45 3 51 53 98 35 34 104 79 207 135 258 140 349 213 399 321 46 100 41 322 -11 429 -29 61 -103 133 -169 166 -114 58 -340 81 -504 50z"/>
 <path d="M5985 5284 c-238 -51 -355 -198 -355 -446 l0 -88 205 0 205 0 0 93 c0 101 10 129 53 161 22 16 43 21 92 21 99 0 146 -45 147 -144 0 -98 -42 -139 -294 -281 -292 -166 -362 -238 -390 -399 -15 -88 -2 -194 35 -274 67 -147 239 -227 491 -227 249 0 398 66 467 206 29 58 33 77 37 170 l5 104 -192 0 -191 0 0 -65 c0 -109 -40 -155 -135 -155 -86 0 -135 47 -135 130 0 86 37 120 275 250 235 129 333 208 376 304 46 105 44 315 -5 422 -46 99 -133 168 -266 209 -79 24 -331 30 -425 9z"/>
 <path d="M7470 5289 c-204 -25 -335 -117 -387 -272 -15 -46 -18 -118 -21 -664 l-3 -613 195 0 196 0 0 588 c0 550 1 589 18 621 10 19 34 43 53 53 70 38 166 13 201 -53 17 -32 18 -71 18 -621 l0 -588 195 0 196 0 -3 613 c-4 673 -3 657 -67 759 -51 80 -160 145 -281 168 -76 14 -231 19 -310 9z"/>
 <path d="M10615 5273 c-185 -26 -323 -117 -377 -251 -23 -56 -23 -65 -26 -492 -4 -477 0 -517 51 -613 57 -107 160 -175 310 -204 115 -21 327 -13 418 16 130 41 225 128 266 242 9 25 18 90 21 147 l4 102 -189 0 -190 0 -6 -74 c-7 -96 -26 -132 -84 -158 -82 -36 -168 -10 -205 63 -16 31 -18 73 -18 444 0 389 1 412 20 442 26 43 73 66 136 66 65 0 113 -26 136 -73 15 -28 18 -61 18 -172 l0 -138 -75 0 -75 0 0 -110 0 -110 265 0 265 0 0 263 c0 283 -6 330 -54 410 -78 134 -256 209 -484 206 -54 -1 -110 -4 -127 -6z"/>
 <path d="M2054 5233 c3 -10 28 -139 55 -288 53 -287 154 -832 196 -1055 13 -74 25 -138 25 -142 0 -5 153 -8 340 -8 187 0 340 1 340 3 0 4 43 238 120 652 34 182 81 440 106 575 24 135 47 253 50 263 5 16 -9 17 -200 17 -205 0 -206 0 -211 -22 -3 -13 -25 -162 -50 -333 -25 -170 -65 -445 -90 -610 -24 -165 -47 -325 -51 -355 -4 -30 -9 -50 -10 -45 -3 9 -37 231 -166 1083 l-42 282 -209 0 c-194 0 -208 -1 -203 -17z"/>
 <path d="M3585 5193 c3 -32 9 -330 15 -663 6 -333 13 -647 16 -697 l6 -93 309 0 c170 0 309 3 309 7 0 4 22 145 50 313 27 168 67 420 90 560 22 140 42 260 44 265 2 6 8 -21 15 -60 9 -58 86 -535 157 -982 l17 -103 308 0 308 0 5 43 c3 23 10 303 16 622 5 319 13 640 16 713 l6 132 -196 0 -196 0 -1 -552 c-1 -304 -4 -602 -8 -663 l-6 -110 -13 70 c-30 165 -166 895 -198 1063 -19 100 -34 185 -34 187 0 3 -87 5 -194 5 l-194 0 -6 -27 c-6 -31 -171 -918 -215 -1158 l-27 -150 -7 85 c-4 47 -7 347 -7 668 l0 582 -195 0 -195 0 5 -57z"/>
 <path d="M8547 5234 c-4 -4 -7 -342 -7 -751 l0 -743 283 0 283 0 51 173 c28 94 104 352 168 572 64 220 120 409 125 420 7 14 8 -11 5 -75 -2 -52 -7 -319 -11 -592 l-6 -498 186 0 186 0 0 750 0 750 -264 0 c-166 0 -267 -4 -271 -10 -7 -12 -72 -223 -270 -875 -36 -121 -75 -245 -85 -275 l-20 -55 8 522 c4 288 7 560 7 605 l0 83 -181 3 c-99 1 -183 -1 -187 -4z"/>
 </g>

</svg>