<!DOCTYPE svg PUBLIC "-//W3C//DTD SVG 20010904//EN" "http://www.w3.org/TR/2001/REC-SVG-20010904/DTD/svg10.dtd">
<svg version="1.0" xmlns="http://www.w3.org/2000/svg" width="900px" height="600px" viewBox="0 0 9000 6000" preserveAspectRatio="xMidYMid meet">
<g id="layer101" fill="#e50012" stroke="none">
 <path d="M1473 3515 c-150 -20 -255 -43 -373 -81 -158 -51 -153 -39 -87 -177 31 -64 60 -117 66 -117 6 0 35 11 66 25 219 96 617 178 759 155 84 -13 107 -67 49 -116 -35 -30 -79 -41 -270 -70 -352 -52 -482 -84 -573 -142 -172 -109 -175 -301 -7 -408 58 -38 201 -81 327 -100 222 -32 567 -3 787 67 51 16 95 34 98 38 5 8 -79 206 -94 223 -3 4 -51 -9 -106 -28 -279 -98 -578 -137 -697 -92 -34 13 -43 46 -19 78 23 32 57 40 346 86 354 56 443 84 534 169 61 57 92 125 92 204 1 138 -104 228 -322 276 -103 23 -439 29 -576 10z"/>
 <path d="M7866 3479 c-35 -41 -34 -83 3 -120 50 -49 121 -37 147 27 40 95 -84 172 -150 93z m116 -6 c23 -20 24 -80 1 -105 -22 -24 -77 -24 -103 2 -44 44 -11 120 52 120 17 0 40 -7 50 -17z"/>
 <path d="M7896 3473 c-3 -3 -6 -28 -6 -55 l0 -49 42 3 c33 2 44 8 46 22 2 10 -2 22 -10 27 -10 7 -11 12 -1 28 8 13 9 22 3 26 -6 3 -15 -5 -22 -19 -13 -31 -28 -34 -28 -7 0 21 -13 34 -24 24z m62 -75 c-7 -19 -38 -22 -38 -4 0 10 9 16 21 16 12 0 19 -5 17 -12z"/>
 <path d="M2432 3003 l3 -488 165 0 165 0 3 188 2 187 315 0 315 0 2 -187 3 -188 165 0 165 0 3 488 2 487 -170 0 -170 0 0 -195 0 -195 -315 0 -315 0 0 195 0 195 -170 0 -170 0 2 -487z"/>
 <path d="M3770 3486 c0 -2 128 -221 284 -487 l284 -484 199 -3 c157 -2 203 0 211 11 13 15 582 958 582 964 0 2 -91 2 -202 1 l-202 -3 -64 -107 -65 -108 -317 0 -317 0 -65 108 -64 107 -132 3 c-73 1 -132 1 -132 -2z m900 -422 c0 -8 -190 -324 -195 -324 -3 0 -83 133 -169 283 l-28 47 196 0 c108 0 196 -3 196 -6z"/>
 <path d="M5360 3006 c0 -267 3 -487 8 -490 35 -21 588 -45 792 -34 258 14 432 94 486 224 20 47 17 150 -5 199 -36 79 -134 147 -274 191 -84 26 -88 28 -70 44 10 9 97 86 193 170 96 84 182 159 190 167 12 11 -24 13 -225 13 l-240 -1 -235 -208 c-129 -115 -236 -214 -238 -220 -2 -5 9 -31 24 -56 24 -41 30 -46 53 -40 14 3 78 9 141 12 183 9 293 -30 320 -113 24 -70 -8 -137 -83 -176 -35 -18 -63 -23 -175 -26 -73 -2 -180 -1 -237 3 l-105 7 0 409 0 409 -160 0 -160 0 0 -484z"/>
 <path d="M6750 3006 c0 -267 3 -487 8 -490 26 -16 293 -31 562 -31 284 0 311 2 394 23 171 43 285 123 314 220 18 58 15 150 -7 197 -58 127 -239 215 -508 245 -96 11 -222 6 -395 -16 l-48 -7 0 172 0 171 -160 0 -160 0 0 -484z m735 -17 c116 -21 175 -69 183 -147 8 -86 -39 -138 -151 -168 -55 -15 -260 -19 -379 -7 l-68 6 0 144 0 143 25 10 c71 27 290 38 390 19z"/>
 </g>

</svg>