<!DOCTYPE svg PUBLIC "-//W3C//DTD SVG 20010904//EN" "http://www.w3.org/TR/2001/REC-SVG-20010904/DTD/svg10.dtd">
<svg version="1.0" xmlns="http://www.w3.org/2000/svg" width="512px" height="281px" viewBox="0 0 5120 2810" preserveAspectRatio="xMidYMid meet">
<g id="layer101" fill="#231815" stroke="none">
 <path d="M450 1825 c-68 -14 -176 -51 -197 -67 -17 -14 -30 -2 -38 32 -7 30 -7 30 -76 30 l-69 0 0 -155 0 -155 64 0 c61 0 64 1 76 29 26 65 127 133 235 161 226 56 475 -7 411 -105 -23 -35 -64 -46 -376 -97 -249 -40 -329 -70 -379 -139 -27 -37 -31 -50 -31 -109 0 -60 4 -73 33 -116 36 -54 113 -105 193 -129 189 -55 433 -39 572 37 39 21 52 17 52 -18 0 -23 2 -24 70 -24 l70 0 0 150 0 150 -63 0 c-63 0 -63 0 -75 -34 -23 -62 -141 -140 -253 -166 -81 -18 -231 -10 -291 17 -83 37 -97 97 -32 128 38 18 183 46 329 65 246 31 380 90 420 187 48 115 -29 249 -175 302 -111 41 -335 53 -470 26z"/>
 <path d="M1700 1825 c-283 -42 -446 -197 -445 -425 1 -99 29 -176 91 -249 100 -116 285 -181 519 -181 291 0 497 95 583 270 24 49 27 66 27 160 0 99 -2 110 -32 171 -39 78 -106 145 -189 187 -75 38 -116 50 -234 67 -114 17 -206 17 -320 0z m327 -134 c29 -13 69 -41 88 -62 58 -64 69 -100 69 -224 1 -100 -2 -115 -26 -166 -33 -67 -56 -89 -128 -125 -48 -25 -67 -28 -150 -28 -147 -1 -228 34 -288 124 -43 63 -55 114 -51 211 7 144 70 237 191 281 75 26 222 21 295 -11z"/>
 <path d="M4940 1817 c-38 -19 -55 -61 -40 -98 34 -82 150 -57 150 33 0 57 -59 92 -110 65z m60 -14 c0 -5 -9 -19 -20 -33 l-20 -25 0 23 c0 12 -4 22 -10 22 -5 0 -10 -20 -10 -45 0 -44 0 -45 34 -45 37 0 54 23 35 46 -7 9 -7 19 0 31 9 16 10 16 19 -7 17 -45 -6 -80 -54 -80 -56 0 -83 61 -44 100 19 19 70 28 70 13z m-5 -73 c3 -5 -3 -10 -14 -10 -12 0 -21 5 -21 10 0 6 6 10 14 10 8 0 18 -4 21 -10z"/>
 <path d="M2510 1771 l0 -48 63 -5 c115 -10 107 13 107 -302 0 -240 -2 -275 -16 -287 -9 -7 -48 -15 -86 -17 l-69 -4 3 -52 3 -51 211 -3 211 -2 254 238 254 239 3 -166 c3 -159 2 -167 -19 -183 -15 -13 -39 -18 -81 -18 l-59 0 3 -52 3 -53 238 -3 237 -2 0 55 0 55 -45 0 c-24 0 -56 5 -70 12 l-25 11 0 344 0 343 -97 0 -98 0 -56 -53 c-98 -91 -339 -319 -438 -414 l-96 -91 -3 196 c-1 109 0 207 3 219 6 25 56 43 123 43 l42 0 0 50 0 50 -250 0 -250 0 0 -49z"/>
 <path d="M4150 1766 l0 -53 76 -5 c50 -3 79 -10 85 -19 5 -8 9 -54 9 -103 0 -99 8 -83 -119 -221 -26 -27 -82 -90 -126 -140 -86 -99 -109 -114 -172 -115 l-43 0 0 -55 0 -55 270 0 270 0 0 55 0 55 -39 0 c-72 0 -66 15 59 147 38 40 73 73 78 73 20 0 192 -184 192 -205 0 -11 -11 -15 -40 -15 l-40 0 0 -55 0 -55 215 0 215 0 0 55 0 55 -46 0 c-25 0 -53 4 -63 10 -10 5 -60 56 -111 112 -52 57 -126 138 -167 181 l-73 78 0 100 c0 98 0 100 26 109 14 6 52 10 85 10 l59 0 0 55 0 55 -300 0 -300 0 0 -54z"/>
 </g>

</svg>