<!DOCTYPE svg PUBLIC "-//W3C//DTD SVG 20010904//EN" "http://www.w3.org/TR/2001/REC-SVG-20010904/DTD/svg10.dtd">
<svg version="1.0" xmlns="http://www.w3.org/2000/svg" width="800px" height="489px" viewBox="0 0 8000 4890" preserveAspectRatio="xMidYMid meet">
<g id="layer101" fill="#ed1c24" stroke="none">
 <path d="M170 2976 c0 -1194 3 -1779 11 -1832 34 -244 147 -472 324 -649 125 -126 275 -219 445 -275 188 -64 -35 -60 3583 -60 l3297 0 0 2285 0 2285 -3830 0 -3830 0 0 -1754z"/>
 </g>
<g id="layer102" fill="#fffefe" stroke="none">
 <path d="M3873 3245 c-133 -24 -288 -86 -373 -149 -64 -48 -151 -140 -197 -210 -192 -288 -153 -760 84 -1016 161 -174 363 -255 668 -266 183 -7 314 10 444 59 127 48 194 90 287 182 63 62 90 98 118 157 34 71 65 183 66 236 l0 22 -240 0 c-147 0 -240 -4 -240 -10 0 -34 -49 -131 -87 -171 -53 -57 -118 -86 -215 -99 -229 -28 -403 69 -479 269 -27 71 -36 208 -19 293 45 230 227 364 469 345 96 -7 174 -36 229 -82 43 -37 102 -142 102 -182 l0 -23 241 0 242 0 -7 57 c-15 131 -82 265 -181 366 -166 168 -369 238 -683 236 -86 0 -189 -7 -229 -14z"/>
 <path d="M1910 2660 l0 -540 -305 0 -305 0 2 -217 3 -218 873 -3 872 -2 0 220 0 220 -300 0 -300 0 0 540 0 540 -270 0 -270 0 0 -540z"/>
 <path d="M5260 2440 l0 -760 260 0 260 0 2 553 3 552 428 3 427 2 0 205 0 205 -690 0 -690 0 0 -760z"/>
 </g>

</svg>