<!DOCTYPE svg PUBLIC "-//W3C//DTD SVG 20010904//EN" "http://www.w3.org/TR/2001/REC-SVG-20010904/DTD/svg10.dtd">
<svg version="1.0" xmlns="http://www.w3.org/2000/svg" width="1200px" height="183px" viewBox="0 0 12000 1830" preserveAspectRatio="xMidYMid meet">
<g id="layer101" fill="#ff0000" stroke="none">
 <path d="M2320 1820 c-380 -47 -522 -186 -560 -550 -13 -124 -13 -600 0 -715 35 -304 146 -454 383 -515 128 -32 282 -43 520 -37 348 9 488 48 602 168 64 67 109 154 130 255 36 164 36 815 0 978 -34 159 -122 279 -249 341 -116 58 -231 75 -511 80 -132 2 -274 0 -315 -5z m437 -425 c62 -18 117 -75 134 -137 27 -103 36 -359 19 -558 -13 -147 -39 -207 -108 -248 -44 -25 -56 -27 -182 -31 -172 -4 -229 8 -280 59 -69 69 -75 104 -75 435 0 309 3 332 51 407 25 38 66 66 119 79 57 14 269 10 322 -6z"/>
 <path d="M4220 1819 c-338 -35 -467 -135 -501 -388 -6 -42 -9 -107 -7 -146 l3 -70 233 -3 c181 -2 233 0 236 10 2 7 8 40 14 72 22 113 67 135 277 136 137 0 155 -2 195 -22 60 -31 83 -74 77 -149 -3 -31 -11 -66 -18 -78 -25 -40 -88 -61 -210 -71 -63 -5 -173 -14 -244 -20 -423 -34 -559 -164 -558 -530 0 -253 76 -403 245 -488 106 -53 211 -67 523 -67 299 0 416 14 511 60 59 29 132 102 164 165 28 56 49 172 50 278 l0 82 -239 0 -238 0 -6 -49 c-14 -121 -51 -144 -236 -149 -153 -5 -206 6 -247 49 -36 38 -45 126 -17 179 32 61 61 70 275 86 415 31 524 59 628 163 92 92 123 192 122 401 0 268 -66 397 -247 485 -129 63 -496 93 -785 64z"/>
 <path d="M527 1793 c-4 -3 -7 -300 -7 -660 l0 -653 -260 0 -260 0 0 -225 0 -225 793 2 792 3 0 220 0 220 -262 3 -263 2 0 660 0 660 -263 0 c-145 0 -267 -3 -270 -7z"/>
 <path d="M5580 915 l0 -885 253 2 252 3 3 318 2 317 285 0 285 0 0 -320 0 -320 250 0 250 0 0 885 0 885 -250 0 -250 0 0 -340 0 -340 -285 0 -285 0 -2 338 -3 337 -252 3 -253 2 0 -885z"/>
 <path d="M7597 1793 c-4 -3 -7 -402 -7 -885 l0 -878 255 0 255 0 0 885 0 885 -248 0 c-137 0 -252 -3 -255 -7z"/>
 <path d="M8540 916 l0 -886 508 0 c279 0 541 5 582 10 293 37 410 180 398 483 -4 88 -10 123 -28 165 -28 65 -100 132 -175 163 l-55 23 78 36 c142 67 207 173 219 360 11 161 -33 308 -116 388 -22 21 -67 53 -100 71 -117 62 -138 64 -753 68 l-558 4 0 -885z m929 456 c58 -29 76 -63 76 -145 0 -53 -5 -79 -18 -98 -32 -48 -64 -54 -282 -54 l-200 0 -3 158 -3 157 198 0 c169 0 203 -3 232 -18z m2 -675 c76 -51 68 -203 -12 -244 -17 -9 -85 -13 -221 -13 l-198 0 0 141 0 140 203 -3 c175 -3 206 -5 228 -21z"/>
 <path d="M10195 1783 c3 -10 22 -72 41 -138 20 -66 62 -205 94 -310 32 -104 94 -309 138 -455 44 -146 117 -384 161 -530 44 -146 83 -277 87 -292 l6 -28 374 0 373 0 21 73 c12 39 52 173 90 297 38 124 105 347 150 495 45 149 108 356 140 460 64 209 130 431 130 440 0 3 -118 4 -262 3 l-262 -3 -45 -160 -46 -160 -287 -3 -287 -2 -25 82 c-14 46 -35 120 -47 166 l-22 82 -265 0 c-247 0 -264 -1 -257 -17z m1069 -711 c3 -5 -15 -76 -40 -158 -24 -82 -61 -207 -80 -279 -20 -71 -39 -136 -43 -143 -4 -8 -22 38 -41 110 -18 68 -57 201 -85 295 -29 95 -50 175 -47 178 9 9 330 6 336 -3z"/>
 </g>

</svg>