<!DOCTYPE svg PUBLIC "-//W3C//DTD SVG 20010904//EN" "http://www.w3.org/TR/2001/REC-SVG-20010904/DTD/svg10.dtd">
<svg version="1.0" xmlns="http://www.w3.org/2000/svg" width="1200px" height="159px" viewBox="0 0 12000 1590" preserveAspectRatio="xMidYMid meet">
<g id="layer101" fill="#030000" stroke="none">
 <path d="M1593 1236 c-126 -40 -229 -151 -273 -295 -18 -55 -20 -93 -20 -303 l0 -240 29 -29 c42 -41 107 -41 153 0 l33 29 5 244 c4 150 10 253 17 269 21 47 73 97 121 116 43 17 88 18 557 18 548 0 554 -1 616 -52 16 -14 40 -44 52 -67 20 -38 22 -58 27 -284 l5 -244 33 -29 c46 -41 108 -41 154 0 l33 29 3 204 c4 234 -8 314 -60 416 -40 79 -118 159 -194 197 l-59 30 -595 2 c-474 2 -604 -1 -637 -11z"/>
 <path d="M3389 1221 l-29 -29 0 -357 c0 -333 1 -358 20 -394 54 -106 188 -135 292 -63 25 17 162 154 303 304 295 312 301 318 336 318 33 0 28 5 314 -300 284 -302 308 -326 361 -346 65 -25 152 -16 199 20 73 56 75 66 75 464 l0 354 -29 29 c-24 24 -38 29 -76 29 -40 0 -52 -5 -81 -34 l-34 -34 0 -281 c0 -159 -4 -281 -9 -281 -13 0 -37 24 -324 327 -194 204 -267 275 -297 287 -54 22 -155 20 -205 -3 -28 -12 -119 -101 -298 -289 -142 -149 -267 -282 -278 -296 -11 -14 -27 -26 -35 -26 -12 0 -14 44 -14 281 l0 281 -34 34 c-29 29 -41 34 -81 34 -38 0 -52 -5 -76 -29z"/>
 <path d="M5518 1221 l-33 -29 0 -397 0 -397 33 -29 c46 -41 108 -41 154 0 l33 29 0 397 0 397 -33 29 c-25 23 -42 29 -77 29 -35 0 -52 -6 -77 -29z"/>
 <path d="M5959 1221 l-29 -29 0 -220 0 -219 26 -26 c34 -35 81 -43 128 -23 55 23 66 59 66 216 l0 130 585 0 c378 0 602 -4 634 -11 64 -13 124 -57 153 -111 32 -61 33 -204 1 -263 -27 -50 -57 -79 -108 -102 -37 -17 -94 -18 -738 -23 l-699 -5 -24 -28 c-35 -41 -33 -99 5 -138 l30 -30 733 3 733 3 60 29 c113 56 204 174 240 313 52 199 -54 437 -233 525 l-67 33 -733 3 -733 2 -30 -29z"/>
 <path d="M8045 1238 c-56 -30 -55 -21 -55 -443 0 -355 2 -392 18 -411 47 -59 137 -59 184 0 16 19 18 56 18 403 0 275 -3 389 -12 408 -22 48 -103 71 -153 43z"/>
 <path d="M8730 1241 c-210 -65 -346 -332 -285 -564 34 -131 130 -253 242 -305 l58 -27 733 -3 733 -3 30 30 c41 41 41 100 0 142 l-29 29 -666 0 c-435 0 -682 4 -715 11 -64 13 -124 57 -153 111 -19 36 -23 59 -23 133 0 74 4 97 23 133 29 54 89 98 153 111 72 16 1149 15 1183 0 27 -13 49 -60 39 -87 -3 -9 -13 -25 -21 -34 -14 -17 -49 -18 -466 -18 -422 0 -454 -1 -486 -19 -76 -40 -72 -144 5 -177 31 -13 106 -14 513 -12 532 3 511 1 594 76 60 54 78 100 78 202 0 137 -43 206 -160 259 -44 20 -63 21 -700 20 -360 0 -666 -4 -680 -8z"/>
 <path d="M10528 1221 l-33 -29 0 -397 0 -397 33 -29 c46 -41 111 -41 153 0 l29 29 0 397 0 397 -29 29 c-42 41 -107 41 -153 0z"/>
 </g>

</svg>