<!DOCTYPE svg PUBLIC "-//W3C//DTD SVG 20010904//EN" "http://www.w3.org/TR/2001/REC-SVG-20010904/DTD/svg10.dtd">
<svg version="1.0" xmlns="http://www.w3.org/2000/svg" width="600px" height="180px" viewBox="0 0 6000 1800" preserveAspectRatio="xMidYMid meet">
<g id="layer101" fill="#000000" stroke="none">
 <path d="M3790 1744 c-374 -35 -701 -168 -905 -367 l-60 -59 79 -40 80 -40 33 41 c49 59 182 155 285 207 177 89 381 140 606 153 291 16 501 -19 737 -121 82 -35 239 -126 283 -163 27 -23 37 -25 123 -25 l94 1 -50 45 c-120 109 -322 220 -514 284 -201 67 -288 81 -531 85 -118 1 -235 1 -260 -1z"/>
 <path d="M3253 1266 c-60 -20 -107 -51 -152 -103 -116 -131 -105 -323 24 -442 69 -64 124 -85 220 -86 67 0 89 4 135 27 30 15 75 48 100 73 l44 45 -173 174 -174 174 37 8 c48 8 105 -8 147 -43 17 -15 55 -63 85 -107 l54 -81 0 132 0 131 -37 30 c-93 72 -215 99 -310 68z m44 -358 c62 -62 113 -116 113 -120 0 -4 -20 -10 -44 -13 -110 -17 -218 91 -201 202 3 24 9 43 13 43 4 0 57 -51 119 -112z"/>
 <path d="M4433 1270 c-85 -17 -159 -74 -201 -154 -26 -50 -27 -55 -30 -279 l-4 -227 75 -35 c42 -19 78 -35 81 -35 3 0 6 29 6 65 l0 65 75 0 75 0 0 80 0 80 -75 0 -75 0 0 90 c0 56 5 104 14 125 15 35 67 75 99 75 15 0 17 10 17 80 0 44 -3 80 -7 79 -5 -1 -27 -5 -50 -9z"/>
 <path d="M993 1249 c-63 -12 -116 -43 -162 -95 -61 -70 -71 -115 -71 -326 l0 -178 80 0 80 0 0 179 c0 169 1 180 23 212 12 18 34 40 47 47 34 18 115 10 141 -14 42 -37 49 -74 49 -254 l0 -170 81 0 81 0 -4 193 c-3 168 -6 198 -24 238 -57 124 -188 194 -321 168z"/>
 <path d="M1402 1063 c4 -190 5 -200 30 -248 68 -129 206 -190 342 -151 46 14 70 29 116 74 81 79 90 114 90 344 l0 178 -79 0 -80 0 -3 -191 -3 -191 -37 -34 c-32 -28 -45 -34 -84 -34 -25 0 -59 8 -75 17 -52 31 -59 62 -59 257 l0 176 -81 0 -81 0 4 -197z"/>
 <path d="M4580 1218 c1 -42 6 -49 169 -223 l169 -180 -139 -3 -139 -3 0 -79 0 -80 300 0 300 0 0 31 c0 25 -27 59 -176 217 l-176 187 146 3 146 3 0 84 0 85 -300 0 -300 0 0 -42z"/>
 <path d="M2080 970 l0 -280 80 0 80 0 0 280 0 280 -80 0 -80 0 0 -280z"/>
 <path d="M2370 875 l0 -375 80 -40 80 -40 0 134 0 135 41 -14 c70 -25 147 -19 217 16 65 32 99 66 135 133 19 36 22 60 25 196 l4 156 -79 37 -78 37 -5 -181 -5 -181 -37 -34 c-31 -28 -46 -34 -80 -34 -25 0 -57 8 -76 20 -53 33 -62 68 -62 250 l0 160 -80 0 -80 0 0 -375z"/>
 <path d="M3694 1235 c-4 -9 -4 -91 -2 -183 3 -154 6 -171 30 -223 53 -115 160 -186 294 -196 l74 -6 0 92 0 91 -51 0 c-62 0 -118 28 -145 73 -16 27 -19 57 -22 200 l-4 167 -84 0 c-67 0 -86 -3 -90 -15z"/>
 <path d="M2106 629 c-38 -30 -49 -64 -36 -105 22 -66 105 -86 154 -38 40 41 39 96 -5 137 -36 33 -76 35 -113 6z"/>
 <path d="M776 553 c25 -101 124 -226 249 -312 331 -229 823 -266 1192 -90 79 38 215 132 261 182 l23 24 -71 32 c-38 17 -72 31 -74 31 -1 0 -36 -32 -76 -70 -156 -152 -410 -226 -687 -199 -298 28 -558 176 -645 367 l-28 62 -75 0 -75 0 6 -27z"/>
 </g>

</svg>