<!DOCTYPE svg PUBLIC "-//W3C//DTD SVG 20010904//EN" "http://www.w3.org/TR/2001/REC-SVG-20010904/DTD/svg10.dtd">
<svg version="1.0" xmlns="http://www.w3.org/2000/svg" width="600px" height="180px" viewBox="0 0 6000 1800" preserveAspectRatio="xMidYMid meet">
<g id="layer101" fill="#000000" stroke="none">
 <path d="M488 1515 c-157 -39 -303 -151 -388 -295 -59 -100 -80 -184 -80 -320 0 -206 47 -328 180 -461 82 -83 174 -136 285 -164 76 -19 224 -19 300 0 201 51 372 208 443 407 34 95 43 271 18 369 -22 88 -86 214 -140 275 -61 69 -165 139 -256 171 -93 33 -269 42 -362 18z m287 -90 c179 -47 326 -194 381 -380 25 -86 23 -229 -6 -320 -72 -231 -267 -375 -509 -375 -137 0 -260 46 -357 134 -319 286 -199 831 207 940 72 19 211 20 284 1z"/>
 <path d="M224 1156 c-3 -7 -4 -35 -2 -62 l3 -49 165 -5 c91 -3 158 -7 149 -8 -9 -1 -48 -18 -86 -37 -112 -56 -188 -153 -219 -278 -21 -86 -13 -99 60 -95 47 3 51 5 60 33 36 122 77 180 156 220 99 50 212 40 301 -28 48 -37 93 -110 104 -169 9 -50 24 -60 82 -56 46 3 48 4 51 36 5 51 -24 135 -71 204 -48 70 -139 139 -215 162 -45 14 -41 15 121 15 l167 1 0 65 0 65 -410 0 c-340 0 -412 -2 -416 -14z"/>
 <path d="M3428 1058 c-89 -84 -196 -184 -236 -223 l-74 -70 3 162 c4 141 6 163 23 182 11 12 31 21 45 21 37 0 53 14 49 41 -3 24 -4 24 -145 27 l-143 3 0 -30 c0 -29 14 -41 49 -41 10 0 26 -9 37 -21 16 -17 19 -41 22 -155 7 -210 -9 -264 -78 -264 -28 0 -30 -3 -30 -35 l0 -35 114 0 113 0 164 157 c90 86 179 170 197 187 l32 30 0 -127 c0 -122 -1 -129 -25 -152 -15 -16 -36 -25 -55 -25 -29 0 -31 -2 -28 -32 l3 -33 140 0 140 0 0 30 c0 25 -5 30 -34 36 -65 13 -65 15 -71 277 -5 236 -5 237 -27 240 -18 3 -60 -32 -185 -150z"/>
 <path d="M1692 966 c-68 -128 -134 -243 -147 -256 -12 -12 -41 -24 -64 -27 -39 -5 -41 -7 -41 -40 l0 -33 203 2 202 3 0 30 c0 25 -5 31 -25 33 -45 5 -80 24 -80 42 0 26 23 77 91 201 l62 111 63 -118 c35 -66 69 -136 76 -158 11 -36 10 -40 -11 -57 -13 -11 -39 -19 -58 -19 -33 0 -34 -2 -31 -32 l3 -33 150 0 150 0 0 29 c0 24 -6 31 -30 39 -16 5 -40 19 -52 30 -13 11 -78 125 -145 254 l-123 233 -35 0 -35 -1 -123 -233z"/>
 <path d="M2130 1171 c0 -24 5 -29 31 -35 17 -3 42 -18 57 -33 15 -16 81 -131 147 -256 158 -300 135 -300 299 5 67 125 133 239 146 253 14 15 40 28 62 31 34 6 38 10 38 35 l0 29 -195 0 -195 0 0 -29 c0 -25 4 -29 39 -35 49 -7 65 -26 56 -66 l-7 -31 -136 3 -135 3 -10 28 c-12 38 6 57 62 64 37 5 41 8 41 34 l0 29 -150 0 -150 0 0 -29z m394 -281 c-26 -50 -51 -87 -55 -83 -11 11 -89 157 -89 166 0 4 43 7 96 7 l95 0 -47 -90z"/>
 <path d="M3792 1168 c3 -29 7 -33 35 -36 58 -6 63 -25 63 -224 0 -165 -2 -180 -20 -198 -11 -11 -33 -20 -50 -20 -28 0 -30 -3 -30 -35 l0 -35 175 0 175 0 0 35 c0 32 -3 35 -29 35 -16 0 -39 8 -51 18 -20 16 -24 31 -28 100 -2 45 -2 82 2 82 3 0 53 -37 111 -82 112 -87 125 -111 67 -116 -31 -3 -33 -6 -30 -35 l3 -32 153 -3 152 -3 0 36 c0 33 -2 35 -34 35 -35 0 -114 47 -190 112 l-39 34 117 141 c89 108 125 144 151 153 29 10 35 16 35 41 l0 29 -175 0 -175 0 0 -29 c0 -30 14 -41 56 -41 40 0 29 -30 -47 -118 -76 -88 -79 -89 -129 -49 -23 17 -29 30 -29 62 -1 66 22 97 82 110 22 4 27 11 27 35 l0 30 -176 0 -175 0 3 -32z"/>
 <path d="M4720 1165 c0 -32 2 -35 30 -35 51 0 70 -29 70 -110 l0 -71 -95 -114 c-94 -112 -133 -145 -175 -145 -16 0 -20 -6 -20 -35 l0 -35 183 2 182 3 3 32 c3 30 1 32 -35 35 -24 2 -39 8 -41 18 -2 15 104 155 118 155 16 0 112 -134 108 -152 -2 -12 -14 -19 -36 -21 -29 -3 -32 -6 -32 -38 l0 -35 138 3 137 3 0 30 c0 24 -5 30 -30 35 -53 11 -72 28 -164 145 l-91 114 0 68 c0 85 16 113 66 113 32 0 34 2 34 35 l0 35 -175 0 -175 0 0 -35z"/>
 <path d="M5454 1180 c-164 -53 -254 -234 -195 -391 25 -66 97 -139 166 -170 96 -43 283 -43 379 0 61 27 121 84 150 144 36 71 37 189 2 262 -27 59 -90 119 -155 148 -68 31 -261 35 -347 7z m220 -52 c93 -28 153 -134 144 -257 -10 -134 -91 -221 -208 -221 -79 0 -164 67 -189 149 -14 50 -14 143 1 193 23 77 110 146 187 148 13 0 42 -6 65 -12z"/>
 </g>

</svg>