<!DOCTYPE svg PUBLIC "-//W3C//DTD SVG 20010904//EN" "http://www.w3.org/TR/2001/REC-SVG-20010904/DTD/svg10.dtd">
<svg version="1.0" xmlns="http://www.w3.org/2000/svg" width="1190px" height="363px" viewBox="0 0 11900 3630" preserveAspectRatio="xMidYMid meet">
<g id="layer101" fill="#008cd6" stroke="none">
 <path d="M1884 3441 c-74 -12 -118 -28 -219 -79 -73 -37 -107 -63 -181 -136 -79 -80 -137 -160 -479 -666 -369 -545 -503 -742 -665 -977 -39 -57 -77 -118 -85 -137 -22 -51 -19 -158 4 -204 68 -133 232 -180 352 -99 44 29 75 72 335 457 121 179 256 377 299 440 43 63 124 183 180 265 377 557 388 573 448 616 32 23 50 29 93 29 126 0 105 24 579 -675 45 -66 224 -331 400 -590 175 -259 332 -485 349 -503 39 -42 93 -71 149 -78 156 -22 300 137 266 295 -10 49 -33 84 -378 591 -58 85 -155 228 -216 317 -60 89 -193 285 -294 435 -284 419 -340 493 -435 565 -67 50 -176 104 -246 121 -65 16 -196 22 -256 13z"/>
 <path d="M4175 3441 c-79 -20 -162 -97 -183 -169 -18 -60 -16 -1953 2 -2004 20 -56 71 -114 124 -140 63 -31 159 -31 218 0 52 27 111 94 124 141 15 54 13 1962 -2 2012 -32 108 -174 188 -283 160z"/>
 <path d="M6394 3441 c-146 -23 -301 -105 -409 -216 -66 -67 -135 -166 -640 -910 -45 -66 -193 -284 -330 -485 -137 -201 -255 -383 -263 -405 -61 -174 110 -362 288 -316 81 21 117 56 229 222 58 86 241 355 406 598 165 242 364 536 443 652 228 338 249 361 348 367 54 4 70 1 108 -22 24 -14 57 -43 74 -63 24 -32 259 -376 616 -903 576 -849 556 -824 658 -851 132 -36 282 72 296 210 8 86 -4 115 -116 279 -58 87 -220 326 -360 532 -140 206 -305 449 -367 540 -61 91 -150 223 -198 293 -196 289 -305 390 -491 452 -80 27 -212 38 -292 26z"/>
 <path d="M9240 3430 c-328 -35 -621 -201 -819 -465 -67 -89 -153 -264 -186 -380 -56 -196 -56 -475 0 -670 33 -112 110 -277 172 -364 65 -91 203 -227 289 -284 137 -90 266 -146 424 -183 67 -16 151 -18 765 -21 476 -3 721 -1 789 7 313 36 602 200 788 448 91 120 169 275 205 407 25 94 27 113 27 320 1 200 -1 228 -22 309 -36 133 -88 249 -166 366 -172 257 -413 420 -731 493 -86 19 -123 20 -775 23 -377 1 -719 -2 -760 -6z m1484 -476 c110 -28 212 -90 307 -184 137 -137 197 -276 206 -481 7 -150 -12 -251 -72 -374 -70 -145 -170 -247 -310 -315 -145 -71 -129 -70 -906 -70 -660 0 -700 1 -773 20 -115 29 -229 93 -305 170 -151 153 -211 304 -211 531 0 291 131 517 375 646 141 74 106 71 909 72 625 1 726 -1 780 -15z"/>
 <path d="M4033 808 c-165 -164 -179 -188 -150 -244 24 -46 288 -301 320 -309 15 -4 37 -5 50 -2 12 4 91 75 175 160 150 151 152 154 152 198 0 43 -2 45 -153 196 -151 150 -155 153 -197 153 -43 0 -47 -3 -197 -152z"/>
 </g>

</svg>