<!DOCTYPE svg PUBLIC "-//W3C//DTD SVG 20010904//EN" "http://www.w3.org/TR/2001/REC-SVG-20010904/DTD/svg10.dtd">
<svg version="1.0" xmlns="http://www.w3.org/2000/svg" width="1200px" height="852px" viewBox="0 0 12000 8520" preserveAspectRatio="xMidYMid meet">
<g id="layer101" fill="#ef7e1f" stroke="none">
<path d="M920 6449 c-14 -5 -33 -20 -42 -32 -17 -21 -18 -149 -18 -2155 0 -2356 -5 -2168 62 -2191 22 -8 662 -11 2140 -11 2276 0 2154 -3 2192 51 15 22 16 200 16 2149 0 1949 -1 2127 -16 2149 -38 54 84 51 -2196 50 -1356 0 -2122 -4 -2138 -10z"/>
</g>
<g id="layer102" fill="#9e9ea1" stroke="none">
<path d="M6988 5991 c-75 -25 -115 -86 -105 -162 11 -86 62 -118 222 -144 52 -9 101 -18 110 -21 15 -6 20 -49 9 -79 -10 -26 -60 -45 -119 -45 -49 0 -60 4 -86 29 -16 16 -29 37 -29 45 0 12 -11 16 -43 16 -24 0 -46 -3 -50 -6 -10 -10 21 -76 50 -106 37 -39 85 -52 184 -52 96 1 135 16 173 67 19 26 22 46 27 225 3 108 9 205 13 215 7 15 2 17 -39 17 -42 0 -48 -3 -58 -29 l-10 -28 -48 30 c-37 22 -62 30 -111 33 -35 2 -75 0 -90 -5z m180 -91 c38 -23 62 -72 62 -126 0 -33 -2 -36 -22 -30 -13 3 -61 13 -107 21 -47 8 -93 23 -103 32 -25 22 -23 72 4 100 29 31 117 32 166 3z"/>
<path d="M7579 5987 c-105 -39 -153 -120 -154 -257 0 -73 4 -93 28 -141 47 -97 146 -141 265 -119 123 22 182 107 182 262 0 129 -33 193 -125 240 -49 26 -147 33 -196 15z m163 -92 c93 -63 89 -276 -7 -335 -71 -44 -162 -15 -199 63 -23 50 -22 171 3 217 41 78 132 103 203 55z"/>
<path d="M9438 5986 c-56 -20 -85 -42 -114 -85 -57 -87 -56 -261 3 -345 44 -62 101 -89 187 -89 87 0 138 22 171 72 32 48 42 91 22 91 -8 0 -28 3 -44 6 -26 5 -31 2 -43 -25 -19 -47 -55 -71 -106 -71 -50 0 -99 35 -120 87 -21 49 -18 176 5 221 52 102 196 94 231 -13 11 -32 15 -35 50 -35 21 0 42 5 45 11 13 19 -26 97 -65 133 -60 54 -144 70 -222 42z"/>
<path d="M9934 5991 c-65 -17 -136 -85 -154 -149 -15 -56 -12 -182 6 -235 16 -49 74 -109 122 -129 42 -17 172 -14 208 5 90 47 141 157 131 280 -8 96 -37 150 -103 194 -44 29 -64 36 -116 39 -35 2 -77 0 -94 -5z m146 -93 c51 -35 70 -81 70 -166 0 -86 -18 -132 -65 -168 -64 -49 -164 -22 -201 54 -26 51 -26 173 -1 224 38 75 130 101 197 56z"/>
<path d="M6150 5981 c0 -4 38 -63 85 -129 47 -67 85 -126 85 -131 0 -5 -36 -61 -80 -124 -44 -63 -80 -117 -80 -121 0 -3 24 -6 54 -6 l53 0 54 83 c29 45 55 84 57 87 2 3 9 -3 15 -12 7 -9 34 -49 62 -87 l49 -71 53 0 c29 0 53 2 53 5 0 3 -38 57 -85 120 -47 63 -85 117 -85 121 0 4 39 61 86 127 47 66 88 126 91 134 4 10 -8 13 -49 13 l-54 0 -65 -101 -66 -100 -67 100 -66 101 -50 0 c-28 0 -50 -4 -50 -9z"/>
<path d="M6690 5730 l0 -260 45 0 45 0 0 260 0 260 -45 0 -45 0 0 -260z"/>
<path d="M8000 5730 l0 -260 40 0 c38 0 40 1 40 32 l0 31 23 -20 c72 -66 193 -67 251 -2 29 32 29 32 45 13 34 -42 71 -58 135 -58 71 0 113 20 142 68 17 28 19 54 19 241 l0 210 -47 3 -47 3 -3 -206 c-3 -204 -3 -207 -27 -226 -46 -37 -126 -15 -158 44 -15 26 -19 63 -21 210 l-4 177 -44 0 -44 0 0 -190 c0 -233 -9 -260 -86 -260 -43 0 -84 29 -105 73 -16 36 -19 67 -19 210 l0 167 -45 0 -45 0 0 -260z"/>
<path d="M8820 5730 l0 -260 45 0 45 0 0 260 0 260 -45 0 -45 0 0 -260z"/>
<path d="M9060 5935 l0 -56 53 3 52 3 0 50 0 50 -52 3 -53 3 0 -56z"/>
<path d="M10345 5978 c-3 -7 -4 -124 -3 -258 l3 -245 40 0 c36 0 40 3 46 30 4 17 7 25 8 18 0 -6 17 -21 37 -34 68 -42 194 -27 229 28 l17 25 26 -25 c42 -39 73 -50 132 -50 69 0 108 18 134 63 19 32 21 51 21 245 l0 210 -42 3 -43 3 0 -173 c0 -187 -9 -239 -43 -263 -46 -32 -117 -9 -150 48 -8 14 -14 85 -17 202 l-5 180 -42 3 -43 3 0 -173 c0 -187 -9 -239 -43 -263 -45 -31 -121 -9 -149 44 -9 18 -15 84 -18 206 l-5 180 -43 3 c-28 2 -44 -1 -47 -10z"/>
<path d="M9777 5044 c-4 -4 -7 -268 -7 -586 l0 -579 -92 3 -92 3 -74 230 c-40 127 -93 291 -116 365 -24 74 -67 207 -95 295 -77 242 -100 265 -271 264 -58 0 -121 -3 -141 -7 l-37 -7 44 -115 c97 -254 324 -966 324 -1017 0 -10 -57 -13 -237 -15 l-238 -3 0 -145 0 -145 512 -3 513 -2 2 -513 3 -512 178 -3 177 -2 0 515 0 515 505 0 505 0 0 150 0 150 -218 2 -219 3 52 180 c90 314 187 609 283 861 l39 102 -45 6 c-72 10 -226 7 -260 -5 -29 -10 -65 -48 -91 -97 -11 -20 -48 -134 -232 -717 -60 -189 -82 -255 -101 -307 l-10 -28 -104 0 -104 0 -2 583 -3 582 -171 3 c-93 1 -173 -1 -177 -4z"/>
<path d="M6831 4943 c0 -54 5 -114 12 -133 15 -43 64 -69 148 -79 49 -6 66 -13 92 -39 l32 -32 3 -1055 2 -1055 170 0 170 0 3 1008 c3 1324 3 1280 -12 1325 -18 54 -67 106 -126 133 -48 23 -61 24 -272 24 l-223 0 1 -97z"/>
<path d="M6103 4643 c-72 -4 -70 -2 -49 -96 8 -34 22 -102 31 -152 9 -49 29 -157 45 -240 17 -82 50 -258 75 -390 25 -132 63 -332 85 -445 42 -221 70 -370 70 -376 0 -3 80 -3 178 -2 l177 3 -3 30 c-3 29 -50 299 -113 645 -17 91 -39 219 -50 285 -11 66 -26 154 -33 195 -20 103 -43 236 -62 355 -18 111 -31 143 -70 174 -28 22 -88 25 -281 14z"/>
<path d="M8085 4624 c-35 -37 -43 -73 -65 -294 -25 -242 -35 -330 -55 -495 -8 -71 -24 -211 -35 -310 -20 -186 -30 -271 -54 -460 -7 -60 -12 -113 -9 -117 4 -7 353 -12 353 -5 0 4 39 301 55 422 9 66 23 174 31 240 23 188 32 261 49 385 9 63 25 185 35 270 10 85 24 196 31 245 19 141 23 129 -51 136 -36 4 -109 7 -163 8 -94 1 -99 0 -122 -25z"/>
<path d="M9357 3396 c-66 -24 -102 -61 -150 -153 -51 -100 -257 -538 -257 -547 0 -3 73 -6 163 -6 l164 0 48 121 c26 66 101 227 167 357 65 130 118 237 118 239 0 10 -221 0 -253 -11z"/>
<path d="M10290 3407 c0 -3 51 -106 113 -229 62 -122 138 -283 168 -355 l54 -133 163 0 c89 0 162 3 162 8 1 19 -268 573 -298 615 -54 75 -94 91 -239 95 -68 2 -123 2 -123 -1z"/>
</g>
<g id="layer103" fill="#fffffe" stroke="none">
<path d="M1350 4260 l0 -1120 968 0 c1065 0 1046 -1 1172 62 98 49 207 162 258 269 71 150 70 135 73 1069 l3 835 -262 3 -262 2 -1 -182 c-1 -101 -4 -446 -8 -768 -7 -569 -7 -586 -28 -632 -29 -64 -87 -125 -146 -155 -76 -38 -174 -43 -724 -36 l-503 6 0 884 0 883 -270 0 -270 0 0 -1120z"/>
<path d="M4240 4260 l0 -1120 270 0 270 0 0 1120 0 1120 -270 0 -270 0 0 -1120z"/>
<path d="M2310 4680 l0 -680 275 0 275 0 0 680 0 680 -275 0 -275 0 0 -680z"/>
</g>


</svg>