<!DOCTYPE svg PUBLIC "-//W3C//DTD SVG 20010904//EN" "http://www.w3.org/TR/2001/REC-SVG-20010904/DTD/svg10.dtd">
<svg version="1.0" xmlns="http://www.w3.org/2000/svg" width="600px" height="180px" viewBox="0 0 6000 1800" preserveAspectRatio="xMidYMid meet">
<g id="layer101" fill="#00479d" stroke="none">
<path d="M2725 1729 c-252 -41 -473 -201 -586 -424 -41 -82 -39 -81 44 24 108 135 305 246 501 280 88 16 266 13 354 -5 146 -30 328 -119 400 -197 l23 -24 -32 -21 -32 -20 123 -97 c67 -53 124 -94 127 -92 2 3 -17 71 -42 152 l-46 146 -30 -18 -29 -19 -87 86 c-49 48 -119 105 -158 128 -156 92 -357 130 -530 101z"/>
<path d="M1235 1135 c-32 -31 -34 -93 -6 -119 13 -12 113 -40 272 -77 138 -32 254 -61 257 -64 3 -3 -114 -5 -259 -5 -193 0 -268 -3 -277 -12 -18 -18 -14 -56 7 -68 12 -6 129 -10 311 -10 321 0 339 3 359 60 12 35 3 66 -25 91 -11 10 -125 42 -269 75 l-250 59 264 5 c252 5 264 6 277 25 12 18 11 24 -2 43 -15 22 -17 22 -325 22 l-310 0 -24 -25z"/>
<path d="M2000 1138 c-40 -27 -75 -85 -84 -138 -13 -81 43 -182 117 -209 38 -15 437 -14 474 0 126 48 150 234 44 334 l-32 30 -242 3 c-240 3 -243 3 -277 -20z m505 -93 c20 -19 25 -34 25 -72 -1 -51 -12 -73 -47 -91 -27 -15 -390 -16 -428 -2 -57 22 -68 130 -18 170 24 19 41 20 235 20 208 0 209 0 233 -25z"/>
<path d="M2992 1020 c-128 -77 -237 -140 -242 -140 -6 0 -10 47 -10 116 0 125 -8 154 -43 154 -43 0 -47 -15 -47 -176 l0 -152 32 -27 c23 -19 39 -25 58 -22 35 8 551 317 558 335 8 23 -12 47 -44 50 -22 2 -83 -30 -262 -138z"/>
<path d="M3360 1141 c-5 -11 -10 -87 -10 -174 0 -141 2 -155 20 -172 17 -15 24 -16 45 -7 23 11 25 17 25 77 l0 65 98 0 c169 0 248 -23 374 -107 61 -40 72 -44 94 -34 57 26 19 78 -108 150 -26 14 -48 28 -48 31 0 3 19 16 43 29 113 65 155 112 127 146 -19 23 -46 18 -98 -20 -27 -19 -80 -49 -118 -67 -67 -32 -74 -33 -216 -36 l-148 -4 0 59 c0 33 -5 64 -12 71 -18 18 -56 14 -68 -7z"/>
<path d="M4124 1150 c-30 -12 -80 -73 -94 -116 -28 -85 14 -195 90 -235 31 -17 60 -19 253 -19 252 0 271 5 318 78 49 78 47 168 -7 240 -46 59 -59 62 -311 61 -125 0 -237 -4 -249 -9z m483 -104 c24 -21 28 -32 28 -75 0 -39 -5 -56 -23 -73 -22 -22 -29 -23 -232 -26 l-210 -3 -30 30 c-40 40 -43 109 -5 146 24 25 24 25 234 25 207 0 210 0 238 -24z"/>
<path d="M2828 680 c-15 -11 -33 -17 -42 -14 -24 9 -49 -15 -35 -32 18 -22 72 -16 109 11 19 14 40 25 48 25 7 0 12 6 10 13 -7 21 -62 20 -90 -3z"/>
<path d="M2116 633 c99 -227 321 -407 563 -459 98 -21 259 -18 361 6 221 53 412 204 520 411 52 101 51 121 -2 39 -86 -133 -241 -262 -332 -275 -28 -5 -55 -16 -67 -28 -15 -16 -22 -18 -31 -9 -21 21 -116 15 -151 -10 -29 -21 -30 -21 -23 -2 15 35 12 49 -12 52 -17 3 -21 8 -17 23 6 16 1 19 -32 19 -32 1 -41 6 -58 32 -12 20 -32 35 -52 40 -26 7 -33 14 -33 33 0 36 -32 49 -60 25 -29 -25 -68 -25 -100 0 -28 21 -22 34 18 35 21 0 28 5 30 25 2 17 14 30 35 40 39 19 45 36 15 46 -32 11 -49 6 -79 -23 -16 -14 -44 -27 -68 -30 -26 -4 -41 -11 -41 -20 0 -7 -12 -18 -27 -24 -42 -16 -63 -39 -63 -69 0 -24 -3 -26 -34 -22 -18 2 -47 -3 -63 -12 -30 -15 -30 -15 -75 32 -56 59 -103 120 -119 155 -7 15 -16 27 -20 27 -5 0 3 -26 17 -57z"/>
</g>
<g id="layer102" fill="#f8b300" stroke="none">
<path d="M3115 903 c-105 -63 -194 -119 -199 -124 -6 -5 65 -9 177 -9 235 0 227 -5 227 139 0 55 -4 102 -8 105 -4 2 -93 -47 -197 -111z"/>
</g>


</svg>