<!DOCTYPE svg PUBLIC "-//W3C//DTD SVG 20010904//EN" "http://www.w3.org/TR/2001/REC-SVG-20010904/DTD/svg10.dtd">
<svg version="1.0" xmlns="http://www.w3.org/2000/svg" width="800px" height="386px" viewBox="0 0 8000 3860" preserveAspectRatio="xMidYMid meet">
<g id="layer101" fill="#00bffe" stroke="none">
 <path d="M154 3841 c-87 -39 -145 -124 -152 -222 -8 -101 -102 57 1025 -1714 715 -1124 711 -1117 719 -1160 13 -69 -33 -157 -100 -192 -28 -16 -98 -18 -681 -23 -645 -5 -650 -5 -691 -27 -45 -24 -95 -76 -120 -126 -27 -51 -30 -155 -7 -208 26 -59 76 -115 127 -142 l41 -22 1103 -3 c1060 -2 1105 -2 1146 16 131 58 198 205 152 333 -7 19 -377 609 -823 1310 -974 1531 -913 1431 -913 1482 0 57 33 120 82 153 l41 29 716 5 c712 5 716 5 757 27 49 26 110 92 132 142 20 47 20 155 -2 203 -24 55 -73 106 -127 134 l-48 24 -1168 0 c-1118 0 -1170 -1 -1209 -19z"/>
 <path d="M4105 3836 c-27 -12 -69 -44 -93 -70 -84 -91 -76 56 -82 -1576 -6 -1630 1 -1491 -78 -1574 -73 -76 -88 -79 -432 -85 l-305 -6 -46 -27 c-81 -48 -127 -116 -136 -202 -12 -112 48 -220 149 -270 l52 -26 1086 0 c1202 0 1137 -3 1216 64 117 100 120 297 6 397 -72 64 -87 66 -415 72 -336 6 -350 9 -422 89 -71 78 -66 -42 -73 1567 l-7 1456 -23 46 c-30 61 -86 116 -147 145 -70 33 -180 33 -250 0z"/>
 <path d="M5872 3834 c-49 -24 -91 -67 -123 -124 -12 -21 -14 -299 -17 -1768 l-2 -1742 24 -48 c30 -59 78 -105 136 -131 44 -20 61 -21 975 -21 1038 0 964 -5 1049 70 61 54 81 102 81 195 0 93 -20 140 -83 197 -75 68 -59 66 -754 72 -696 6 -668 3 -741 74 -21 20 -48 55 -60 77 -21 39 -22 50 -22 410 0 367 0 370 23 417 13 26 40 61 59 79 76 66 54 63 648 69 l540 5 48 25 c95 48 147 133 147 237 -1 110 -52 195 -147 243 l-48 25 -540 5 c-540 5 -540 5 -587 28 -53 26 -102 77 -127 131 -24 53 -30 706 -7 784 19 66 72 128 134 159 l47 23 640 5 640 5 54 30 c29 16 66 45 82 64 102 125 66 321 -74 401 l-52 30 -946 0 -945 0 -52 -26z"/>
 </g>

</svg>